SplineFontDB: 3.2
FontName: TemplateV1Synthetic
FullName: Template V1 Synthetic Regular
FamilyName: Template V1 Synthetic
Weight: Regular
Copyright: Copyright (c) 2026, Himadri
UComments: "2026-5-1: Created with FontForge (http://fontforge.org)"
Version: 001.000
ItalicAngle: 0
UnderlinePosition: -100
UnderlineWidth: 50
Ascent: 550
Descent: 450
InvalidEm: 0
LayerCount: 2
Layer: 0 0 "Back" 1
Layer: 1 0 "Fore" 0
XUID: [1021 414 1931386165 8819080]
StyleMap: 0x0000
FSType: 0
OS2Version: 0
OS2_WeightWidthSlopeOnly: 0
OS2_UseTypoMetrics: 1
CreationTime: 1777626145
ModificationTime: 1777626150
OS2TypoAscent: 0
OS2TypoAOffset: 1
OS2TypoDescent: 0
OS2TypoDOffset: 1
OS2TypoLinegap: 90
OS2WinAscent: 0
OS2WinAOffset: 1
OS2WinDescent: 0
OS2WinDOffset: 1
HheadAscent: 0
HheadAOffset: 1
HheadDescent: 0
HheadDOffset: 1
DEI: 91125
Encoding: UnicodeFull
UnicodeInterp: none
NameList: AGL For New Fonts
DisplaySize: -48
AntiAlias: 1
FitToEm: 0
BeginChars: 1114112 95

StartChar: A
Encoding: 65 65 0
Width: 1081
VWidth: 821
Flags: W
HStem: -450 21G<80 146 926.5 1001> -450 21G<80 146 926.5 1001>
VStem: 124 49<-393.964 -348.98> 126 76<-357.719 -316.507> 226 61<-192.67 -128.508> 255 46<-127.305 -92.6021> 283 75<-60.8594 -14.5084> 340 61<73 106.964> 354 61<73.0781 135.267> 369 61<94.8687 157.891> 383 61<122.947 169.769> 397 61<170.281 221.696> 423 64<241.004 276.366> 454 76<281.141 333.453> 554 62<302.185 333.799> 583 76<211.831 279.979> 611 62<184.281 210.723> 626 61<142.125 183.446> 669 61<49.511 85> 726 61<-62.1424 -29> 755 62<-122.598 -50.8674> 769 61<-142.445 -87.4182> 783 61<-154.492 -107.628> 797 74<-222.076 -183> 927 74<-450 -406.594>
LayerCount: 2
Fore
SplineSet
411 221 m 0x80100080
 411 236 423 241 423 241 c 0x80080080
 425 241 426 247 426 253 c 0
 426 271 436 270 438 277 c 0
 446 305 454 288 454 306 c 0
 454 329 471 319 470 340 c 2
 469 346 l 1
 476 352 476 352 482 356 c 1
 482 362 484 368 484 374 c 1
 497 386 497 386 497 392 c 0
 497 407 504 408 508 408 c 0
 511 408 511 407 523 394 c 1
 535 395 l 2
 566 397 545 405 567 408 c 1
 575 400 575 399 586 388 c 1
 586 382 587 377 587 371 c 1
 601 359 601 359 601 350 c 0
 602 328 616 343 616 320 c 2
 616 314 l 1x80060080
 624 307 624 306 629 302 c 1
 630 285 630 284 637 280 c 0
 658 268 635 261 652 250 c 0
 657 247 659 243 659 235 c 0x80010080
 659 217 673 226 673 206 c 0x80008080
 673 189 687 199 687 178 c 0x80004080
 687 160 699 173 701 150 c 2
 702 142 l 1
 715 130 716 130 716 120 c 0
 716 104 730 113 730 93 c 0x80002080
 730 77 744 83 744 66 c 0
 744 50 757 48 758 44 c 0
 759 42 759 37 760 28 c 1
 771 18 773 16 773 6 c 2
 773 0 l 1
 786 -12 787 -12 787 -21 c 0x80001080
 787 -37 801 -32 801 -50 c 0
 801 -69 818 -56 817 -79 c 2
 817 -87 l 1x80000880
 827 -96 830 -100 830 -108 c 0x80000480
 830 -123 844 -119 844 -135 c 0x80000280
 844 -143 845 -144 857 -155 c 1
 858 -161 859 -166 860 -172 c 1
 864 -176 867 -179 871 -183 c 1
 871 -197 872 -199 880 -206 c 0
 894 -218 879 -222 894 -235 c 0
 907 -246 895 -252 908 -263 c 0
 919 -273 909 -279 922 -291 c 0
 929 -298 928 -298 930 -314 c 1
 958 -343 933 -322 954 -348 c 0
 960 -355 953 -367 965 -377 c 0
 971 -382 971 -384 973 -399 c 1
 1002 -430 974 -416 992 -432 c 0
 997 -437 1001 -443 1001 -448 c 2
 1001 -450 l 1
 927 -450 l 1
 926 -445 926 -443 926 -438 c 0
 926 -422 911 -423 911 -407 c 0
 911 -392 897 -396 897 -377 c 0
 897 -365 886 -366 883 -354 c 0
 878 -333 868 -343 868 -321 c 2
 868 -314 l 1
 856 -303 854 -300 854 -290 c 0
 854 -278 840 -281 840 -263 c 0
 840 -257 838 -255 832 -250 c 0
 827 -246 827 -246 825 -228 c 1
 813 -217 811 -215 811 -205 c 0
 811 -188 797 -197 797 -177 c 2
 797 -172 l 1x80000180
 785 -160 783 -158 783 -148 c 2
 783 -143 l 1x80000280
 770 -131 769 -130 769 -121 c 0x80000480
 769 -105 755 -111 755 -95 c 0x80000880
 755 -84 751 -82 747 -80 c 0
 737 -74 738 -71 739 -65 c 0
 741 -43 726 -58 726 -35 c 2
 726 -29 l 1x80001080
 722 -25 717 -20 713 -16 c 1
 711 2 711 2 705 6 c 0
 690 16 704 24 691 34 c 0
 685 38 682 44 684 47 c 0
 684 47 686 55 676 63 c 0
 670 68 669 70 669 79 c 2
 669 85 l 1x80002080
 665 89 660 94 656 98 c 1
 655 116 654 115 648 120 c 0
 632 132 650 137 634 148 c 0
 628 152 626 156 626 165 c 0x80004080
 626 172 626 172 613 184 c 1
 613 190 611 195 611 201 c 1x80008080
 606 205 606 205 599 211 c 1
 598 229 598 230 591 235 c 0
 585 239 583 243 583 252 c 0x80010080
 583 267 563 262 567 275 c 0
 567 277 568 281 568 283 c 0
 568 295 554 289 554 310 c 2
 554 315 l 1
 547 323 542 328 540 331 c 0
 539 333 538 334 536 334 c 0
 532 334 530 329 530 322 c 0x80060080
 530 301 517 316 515 290 c 2
 514 281 l 1
 507 275 504 271 503 268 c 0
 500 256 500 255 496 252 c 0
 488 246 487 244 487 238 c 0x80080080
 487 213 474 232 472 206 c 0
 471 198 471 198 458 187 c 1x80100080
 458 181 457 176 457 170 c 1
 451 165 451 164 444 158 c 1
 444 151 l 2x80200080
 444 128 430 142 430 124 c 0x80400080
 430 101 415 112 415 93 c 0x80800080
 415 75 401 82 401 64 c 0x81000080
 401 44 388 60 387 37 c 0
 386 15 373 27 373 9 c 0
 373 -12 358 -3 358 -22 c 0x82000080
 358 -42 346 -26 344 -52 c 2
 343 -61 l 1
 333 -71 332 -72 331 -76 c 0
 324 -103 318 -85 315 -108 c 0
 313 -129 301 -117 301 -135 c 0x84000080
 301 -152 287 -147 287 -163 c 0
 287 -171 285 -175 280 -178 c 0
 266 -186 276 -199 269 -204 c 0
 266 -206 264 -209 260 -212 c 1
 257 -232 257 -232 251 -236 c 0
 239 -243 249 -255 237 -263 c 0
 224 -272 235 -283 223 -292 c 0
 217 -296 217 -297 214 -316 c 1
 202 -327 202 -326 202 -335 c 0x98000080
 203 -355 189 -342 187 -363 c 0
 184 -385 173 -376 173 -389 c 0
 173 -410 159 -405 159 -419 c 0
 159 -439 148 -426 144 -450 c 1
 80 -450 l 1
 83 -430 85 -425 92 -418 c 0
 104 -407 92 -403 106 -390 c 0
 123 -374 98 -381 124 -358 c 1xa0000080
 124 -352 126 -346 126 -340 c 1
 140 -327 139 -327 140 -321 c 0
 143 -298 155 -307 155 -292 c 0
 155 -276 169 -277 169 -263 c 0
 169 -255 172 -252 183 -241 c 1
 183 -237 l 2
 183 -226 185 -224 196 -214 c 1
 202 -173 206 -204 206 -191 c 0
 206 -185 210 -195 212 -177 c 0
 214 -156 226 -165 226 -150 c 0x98000080
 226 -140 228 -139 240 -128 c 1
 241 -113 241 -109 248 -104 c 0
 253 -100 255 -98 255 -91 c 0x84000080
 255 -70 264 -78 269 -59 c 0
 272 -46 283 -48 283 -38 c 0x82000080
 283 -26 285 -25 297 -14 c 1
 298 1 298 5 305 10 c 0
 318 19 305 29 320 39 c 0
 334 49 318 52 334 67 c 2
 340 73 l 1
 340 78 l 2x81000080
 340 99 354 92 354 106 c 0x80800080
 354 127 369 120 369 136 c 0x80400080
 369 157 383 146 383 164 c 0x80200080
 383 183 397 178 397 191 c 0
 397 213 411 206 411 221 c 0x80100080
EndSplineSet
EndChar

StartChar: B
Encoding: 66 66 1
Width: 1070
VWidth: 819
Flags: W
HStem: -450 25<685.062 721.791> 348 48<469.062 673.813> 363 47<402.757 662.703>
VStem: 84 50<-127.452 -86 -69.8118 21.8601> 99 49<-172.301 -98.2402> 112 50<101 126.354> 127 48<-273.626 -189.979 101.465 179.297> 183 36<-327.75 -306.913 229 234.691> 853 35<-328.547 -308.469 230 231.464> 896 47<96.2773 171.906> 910 47<-228.4 -135.67> 925 47<52.052 121.664> 937 50<-95.6243 29.6308>
LayerCount: 2
Fore
SplineSet
85 -86 m 1xb180
 83 -81 82 -75 80 -70 c 1
 81 -66 83 -61 84 -57 c 1
 84 -15 l 2xb180
 84 32 84 32 90 37 c 0
 113 55 85 73 106 95 c 2
 112 101 l 1xa580
 112 111 112 116 120 123 c 0
 135 136 124 142 127 155 c 0
 128 159 129 161 141 173 c 2
 155 186 l 1
 155 191 l 2
 155 200 156 202 170 216 c 2
 183 229 l 1
 183 234 l 2
 183 249 191 247 198 260 c 0
 207 277 211 272 234 295 c 2
 246 307 l 1
 264 312 266 312 278 324 c 0
 284 329 288 334 289 334 c 0
 305 334 325 358 325 358 c 0
 336 371 341 361 355 373 c 0
 374 390 381 373 398 388 c 0
 418 406 437 386 454 402 c 0
 458 406 462 408 468 410 c 1
 536 410 l 2xa380
 612 410 607 410 615 403 c 0
 621 397 624 396 643 396 c 0
 690 396 660 382 692 382 c 0
 717 382 714 371 723 369 c 0
 726 368 730 367 738 365 c 1
 750 353 l 2
 777 326 770 347 795 323 c 0
 806 312 806 312 822 309 c 1
 835 297 l 2
 861 272 866 275 872 262 c 0
 878 249 888 252 888 235 c 2
 888 230 l 1
 897 221 906 212 915 203 c 1
 915 198 916 192 916 187 c 1
 924 179 l 2
 946 156 945 157 943 144 c 0xc3c0
 940 121 959 129 959 106 c 0
 959 102 959 102 964 97 c 0
 972 89 973 87 972 69 c 0xc190
 972 61 972 53 971 52 c 0
 968 47 983 37 985 30 c 0
 986 27 987 14 987 -16 c 0xc188
 987 -58 987 -58 990 -70 c 1
 979 -110 995 -121 978 -136 c 0
 960 -152 983 -183 964 -192 c 0
 961 -193 960 -195 960 -196 c 0
 960 -199 957 -199 957 -207 c 0xc1a0
 957 -216 956 -216 942 -229 c 1
 943 -240 l 2xc1c0
 944 -254 942 -258 935 -264 c 0
 902 -291 923 -294 906 -308 c 0
 900 -313 895 -318 887 -327 c 1
 888 -344 889 -345 881 -350 c 0
 878 -352 864 -364 849 -379 c 0
 821 -407 823 -406 809 -409 c 0
 798 -412 789 -433 770 -436 c 0
 767 -437 755 -438 755 -448 c 0
 755 -449 749 -450 708 -450 c 2
 662 -450 l 1
 670 -423 679 -441 697 -425 c 0
 708 -415 711 -423 724 -411 c 0
 729 -406 730 -406 743 -403 c 0
 747 -402 761 -390 764 -386 c 0
 775 -369 778 -383 798 -366 c 0
 810 -356 815 -342 828 -335 c 0
 828 -335 852 -318 852 -308 c 0
 852 -293 874 -276 874 -276 c 0
 885 -269 875 -258 888 -248 c 0
 900 -238 889 -231 902 -220 c 0
 909 -214 910 -212 910 -196 c 2
 910 -183 l 1xc1a0
 924 -171 924 -170 924 -148 c 0
 924 -126 924 -125 930 -120 c 0
 937 -113 938 -113 938 -97 c 0
 938 -67 933 -79 936 -65 c 0
 938 -56 939 14 937 17 c 0xc188
 934 22 927 22 925 30 c 0xc190
 922 42 932 67 917 80 c 0
 900 94 921 110 903 122 c 0
 898 126 896 129 896 138 c 0
 896 154 882 145 882 166 c 2
 882 172 l 1
 872 182 l 2
 867 187 861 193 859 194 c 0
 855 197 853 202 853 210 c 0
 853 215 851 219 846 222 c 0
 838 228 802 272 783 275 c 0
 763 278 758 306 742 306 c 0
 730 306 723 318 718 319 c 0
 703 322 703 322 697 328 c 0
 690 336 690 335 674 337 c 1
 670 340 667 345 663 348 c 1
 644 348 l 2xc1c0
 622 349 619 350 611 357 c 0
 608 360 605 363 604 363 c 0
 603 363 572 363 535 363 c 2
 468 363 l 1
 463 360 461 359 457 355 c 0
 443 341 418 356 402 341 c 0
 394 334 384 338 376 330 c 0
 356 312 359 327 343 312 c 0
 332 302 324 312 303 284 c 0
 299 278 296 277 286 274 c 0
 269 270 219 217 219 216 c 0
 218 214 218 208 217 198 c 1
 190 175 190 172 190 165 c 0
 190 146 176 156 175 134 c 2
 175 127 l 1xa3c0
 160 113 160 113 162 102 c 0xa580
 167 74 143 84 147 60 c 0
 149 46 144 55 147 47 c 0
 147 47 153 31 141 22 c 0
 137 19 135 17 133 14 c 1
 134 -21 l 2
 134 -56 134 -56 138 -71 c 1
 134 -84 134 -85 134 -97 c 0xb180
 134 -124 143 -116 148 -128 c 0xa980
 153 -140 140 -161 156 -177 c 0
 169 -190 159 -190 162 -196 c 0xa580
 168 -208 149 -198 176 -226 c 1
 179 -243 178 -243 184 -249 c 0
 200 -266 178 -256 205 -283 c 0
 217 -296 220 -299 220 -306 c 0
 220 -321 251 -334 261 -351 c 0
 271 -369 281 -372 301 -378 c 1
 308 -387 l 2
 326 -407 330 -400 343 -408 c 0
 364 -422 363 -416 373 -423 c 0
 394 -439 401 -424 412 -450 c 1
 364 -450 l 1
 317 -450 l 1
 312 -438 312 -439 289 -432 c 1
 279 -422 l 2
 266 -410 266 -410 248 -405 c 1
 222 -379 l 2
 208 -365 194 -352 191 -350 c 0
 183 -345 182 -344 183 -327 c 1
 168 -304 157 -306 157 -292 c 0
 157 -287 156 -283 141 -269 c 0
 127 -256 126 -254 127 -240 c 0xa380
 129 -215 117 -229 114 -207 c 0
 110 -176 101 -204 99 -173 c 0
 98 -158 100 -149 99 -145 c 0xa980
 99 -143 96 -139 92 -135 c 0
 84 -126 83 -123 84 -102 c 2
 85 -86 l 1xb180
EndSplineSet
EndChar

StartChar: C
Encoding: 67 67 2
Width: 1103
VWidth: 846
Flags: W
HStem: -450 21G<117 193 910 985> -450 21G<117 193 910 985>
VStem: 508 88<-72.9826 -22.1442> 910 75<-450 -423.6>
LayerCount: 2
Fore
SplineSet
106 416 m 0xb0
 109 420 117 429 126 416 c 0
 128 412 258 282 260 281 c 0
 277 272 284 253 304 237 c 0
 309 233 312 228 318 223 c 0
 361 180 l 0
 362 179 431 110 432 109 c 0
 433 108 531 10 532 9 c 0
 542 2 539 -5 551 -5 c 0
 557 -5 560 -3 564 2 c 0
 566 5 814 253 815 253 c 0
 817 254 828 272 843 281 c 0
 845 282 847 284 847 284 c 0
 847 285 972 408 979 418 c 0
 984 425 991 424 996 416 c 0
 999 412 1010 400 1019 392 c 0
 1025 387 1024 381 1016 377 c 0
 1009 373 978 339 974 337 c 0
 967 334 968 327 959 321 c 0
 954 317 949 310 945 307 c 0
 936 302 914 270 902 264 c 0
 900 263 750 111 750 111 c 0
 750 110 741 105 737 100 c 0
 734 96 682 45 682 45 c 0
 681 42 613 -22 607 -31 c 0
 605 -33 604 -35 602 -36 c 0
 598 -38 596 -42 596 -48 c 0
 596 -63 617 -67 625 -82 c 0
 626 -85 726 -186 727 -187 c 0
 728 -188 838 -296 843 -301 c 0
 865 -325 891 -344 896 -354 c 0
 901 -363 976 -433 977 -434 c 0
 984 -439 984 -442 985 -450 c 1
 910 -450 l 1
 910 -448 l 2
 910 -445 906 -439 903 -437 c 0
 900 -435 850 -385 850 -384 c 0
 850 -383 840 -377 837 -372 c 0
 833 -365 797 -337 794 -331 c 0
 793 -329 702 -235 669 -204 c 0
 661 -197 666 -196 658 -192 c 0
 657 -191 594 -131 559 -93 c 1
 552 -93 l 2
 535 -93 541 -100 530 -107 c 0
 527 -109 449 -190 445 -192 c 0
 439 -195 440 -199 434 -204 c 0
 429 -209 400 -239 380 -258 c 0
 379 -259 314 -322 309 -330 c 0
 305 -337 307 -330 244 -393 c 0
 194 -443 194 -443 192 -450 c 1
 117 -450 l 1
 119 -441 119 -440 125 -435 c 0
 126 -434 203 -360 206 -354 c 0
 209 -348 219 -339 226 -334 c 0
 234 -329 468 -93 472 -90 c 0
 475 -88 483 -72 500 -62 c 0
 505 -59 508 -54 508 -48 c 0
 508 -43 506 -39 501 -36 c 0
 496 -33 492 -25 487 -22 c 0
 486 -22 423 41 422 44 c 0
 418 52 413 50 408 57 c 0
 407 58 338 127 337 128 c 0
 336 129 266 198 266 199 c 0
 264 202 224 240 222 243 c 0
 214 254 185 275 180 284 c 0
 177 290 139 324 136 330 c 0
 132 338 127 336 122 343 c 0
 118 349 113 351 110 355 c 0
 100 370 80 378 80 386 c 0
 80 393 97 402 106 416 c 0xb0
EndSplineSet
EndChar

StartChar: D
Encoding: 68 68 3
Width: 1045
VWidth: 808
Flags: W
HStem: -450 21G<80 133 912 965> -450 21G<80 133 912 965>
VStem: 206 42<-195.862 -177.372> 213 49<-190.905 -153.236> 284 50<-63.085 7.41016> 298 50<-48.8608 36.9998> 328 34<17.5077 59.9897> 341 49<60.6461 121.455> 354 51<72.5099 130.399> 369 50<95.1002 158.4> 383 50<131.094 200.906> 397 51<159.078 212.812> 412 64<213.125 271.406> 497 52<351.25 408.861> 569 50<215.094 285.722> 599 49<187 200> 640 51<64.872 114> 655 50<60.5084 113.922> 697 37<-6.08208 28.9062> 712 50<-70.3993 -13.6014> 754 51<-163.577 -101.6> 768 51<-168.49 -106.218> 811 37<-246.622 -215.601> 826 50<-306.583 -221.174> 853 37<-330.246 -280.535> 882 51<-415.17 -349.692> 912 53<-450 -416.509> 912 35<-444.716 -416.509>
LayerCount: 2
Fore
SplineSet
397 192 m 0x8014
 397 213 412 207 412 223 c 0
 412 243 429 236 427 255 c 0
 425 270 434 269 439 283 c 0
 442 290 442 290 454 301 c 1
 454 307 456 312 456 318 c 1
 468 329 472 333 470 338 c 0
 465 349 485 353 483 366 c 0
 481 381 497 377 497 395 c 0
 497 420 539 409 539 409 c 0
 547 406 548 406 549 386 c 1
 563 373 563 373 563 363 c 0
 563 348 582 349 576 338 c 0
 572 330 589 320 590 317 c 0
 591 316 591 312 591 308 c 2
 591 301 l 1
 602 290 605 288 606 284 c 0
 612 266 619 273 619 254 c 0x800e
 619 232 634 243 634 221 c 2
 634 215 l 1
 647 203 648 201 648 192 c 2
 648 187 l 1x8005
 652 183 657 178 661 174 c 1
 662 156 663 156 669 152 c 0
 676 147 676 144 677 129 c 1
 689 117 691 116 691 108 c 0x800480
 691 93 705 95 705 80 c 0x800440
 705 72 706 71 718 60 c 1
 718 47 718 44 726 38 c 0
 731 34 734 29 734 22 c 0x800420
 734 6 746 13 748 -7 c 2
 748 -13 l 1
 761 -26 762 -28 762 -36 c 0x800410
 762 -49 771 -45 777 -61 c 0
 782 -75 790 -73 790 -89 c 0
 790 -107 805 -104 805 -122 c 0x800408
 805 -133 819 -135 819 -148 c 0x800404
 819 -155 821 -158 832 -169 c 1
 838 -208 843 -185 847 -200 c 0
 848 -202 848 -206 848 -208 c 0x800402
 848 -220 858 -215 861 -235 c 0
 863 -251 876 -248 876 -264 c 0x800401
 876 -274 890 -278 890 -292 c 0x80040080
 890 -304 901 -303 904 -321 c 0
 906 -337 924 -333 921 -349 c 0
 918 -364 933 -363 933 -378 c 0x80040040
 933 -388 947 -393 947 -405 c 0x80040010
 947 -423 960 -410 965 -450 c 1
 912 -450 l 1
 912 -442 l 2x80040020
 912 -429 909 -427 898 -416 c 1
 895 -398 895 -399 889 -393 c 0
 883 -387 882 -384 882 -378 c 0x80040040
 882 -367 873 -368 867 -352 c 0
 859 -333 853 -341 853 -323 c 0x80040080
 853 -304 840 -309 840 -293 c 0
 840 -280 826 -277 826 -266 c 0x800401
 826 -249 811 -251 811 -235 c 0x800402
 811 -229 811 -228 798 -215 c 1
 796 -200 795 -195 789 -192 c 0
 777 -185 789 -176 775 -164 c 0
 770 -160 768 -155 768 -148 c 0x800404
 768 -136 754 -137 754 -121 c 0x800408
 754 -114 754 -114 741 -101 c 1
 740 -86 739 -84 730 -79 c 0
 724 -76 724 -74 722 -71 c 1
 726 -58 726 -57 719 -51 c 0
 712 -45 712 -45 712 -30 c 1x800410
 699 -16 697 -14 697 -5 c 0x800420
 697 9 683 4 683 23 c 2
 683 29 l 1
 670 41 668 43 670 47 c 0
 675 56 655 64 655 76 c 0x800440
 655 96 640 89 640 109 c 2
 640 114 l 1x800480
 626 128 l 1
 626 142 l 1
 612 156 611 156 611 171 c 1
 607 175 603 180 599 184 c 1x8005
 599 189 597 195 597 200 c 1
 593 204 589 208 585 212 c 1
 584 230 583 229 576 235 c 0
 571 239 569 244 569 252 c 0
 569 268 548 261 552 275 c 0
 553 278 553 280 554 286 c 1
 547 293 537 298 541 313 c 1
 534 321 l 2
 529 326 526 329 526 331 c 0
 526 336 533 333 527 340 c 2
 524 343 l 1
 517 336 517 336 520 334 c 0
 527 330 508 320 506 317 c 0
 505 316 505 309 504 299 c 1
 489 286 490 286 494 272 c 1
 486 259 476 267 476 249 c 0x800e
 476 230 464 244 462 221 c 2
 461 213 l 1
 457 209 452 205 448 201 c 1
 448 195 l 2x8014
 448 173 433 183 433 164 c 0x8024
 433 146 419 154 419 136 c 0x8044
 419 117 405 126 405 109 c 0x8084
 405 86 390 104 390 71 c 1x8104
 378 60 374 56 375 48 c 0
 377 35 362 39 362 22 c 0x8204
 362 4 348 9 348 -7 c 0x8404
 348 -26 334 -18 334 -35 c 0
 334 -55 319 -44 321 -64 c 0
 324 -88 305 -71 305 -92 c 0
 305 -109 291 -106 291 -120 c 0
 291 -138 279 -131 277 -149 c 0
 274 -174 262 -159 262 -179 c 0x9804
 262 -197 248 -185 248 -206 c 0
 248 -223 234 -218 234 -235 c 0
 234 -253 222 -242 219 -265 c 2
 218 -273 l 1
 214 -277 210 -280 206 -284 c 1
 204 -301 204 -301 199 -306 c 0
 192 -312 192 -312 190 -333 c 1
 167 -356 184 -351 171 -363 c 0
 164 -369 164 -368 161 -387 c 1
 149 -398 150 -398 149 -403 c 0
 145 -432 135 -412 133 -441 c 2
 132 -450 l 1
 80 -450 l 1
 85 -416 99 -416 99 -407 c 0
 99 -391 113 -387 113 -375 c 0
 113 -370 118 -365 125 -356 c 1
 125 -351 124 -346 124 -341 c 1
 140 -326 140 -326 142 -316 c 0
 145 -302 154 -305 156 -290 c 0
 159 -269 164 -286 171 -257 c 0
 173 -248 182 -244 183 -239 c 0
 186 -225 186 -225 191 -219 c 0
 204 -206 196 -198 200 -196 c 0
 204 -193 206 -193 206 -191 c 0xa004
 206 -189 213 -185 213 -177 c 0x9004
 213 -165 225 -158 226 -153 c 0
 229 -139 229 -139 234 -133 c 0
 247 -119 234 -119 248 -104 c 0xa004
 263 -89 250 -83 262 -71 c 0
 268 -65 270 -55 277 -48 c 0
 283 -42 284 -39 284 -33 c 0x9804
 284 -16 298 -20 298 -5 c 0x8404
 298 11 312 10 312 22 c 0
 312 40 328 37 328 54 c 2
 328 60 l 1x8204
 341 74 341 74 341 81 c 0x8104
 341 96 354 96 354 106 c 0x8084
 354 116 356 118 369 131 c 1
 369 137 l 2x8044
 369 146 369 146 383 159 c 1
 383 164 l 2x8024
 383 184 397 178 397 192 c 0x8014
EndSplineSet
EndChar

StartChar: E
Encoding: 69 69 4
Width: 1081
VWidth: 823
Flags: W
HStem: -450 46<667.193 731.951> -450 33<349.689 420.452> -450 19<421.099 471.702 609.543 670.812> -436 61<288.281 314.906 767 775> 264 73<753.221 809.525> 276 77<740.035 797.853> 306 61<348 397.621 705.6 739.999> 320 61<666.149 733.906> 320 46<348.062 396.74> 349 61<412.854 605>
VStem: 81 67<-167.703 51.7627> 97 61<-190.763 -71.4335 -69.5556 51.7627 52.052 99.4> 110 62<-191 -168.467 71.6476 126.354> 125 60<100.062 144> 139 74<148.123 185.445> 868 89<135 178> 895 61<-261.222 -221.186> 924 61<49 97.9985> 937 63<-175.425 -71.024 -70.8931 30.921>
LayerCount: 2
Fore
SplineSet
327 352 m 0x2802
 339 352 338 366 354 366 c 0x0082
 370 366 361 378 383 381 c 0x0102
 390 382 392 382 397 388 c 0
 403 395 406 396 428 396 c 0
 448 396 449 395 454 402 c 0
 460 410 459 410 542 410 c 0x0042
 622 410 622 410 627 403 c 0
 632 397 633 396 655 396 c 0
 677 396 678 396 684 389 c 0
 689 383 692 381 699 381 c 0x0102
 717 381 709 367 726 367 c 0x0202
 745 367 737 353 754 353 c 0x0402
 773 353 768 337 783 337 c 0
 790 337 797 333 800 329 c 0
 801 327 824 306 827 302 c 0
 837 288 847 302 856 289 c 0
 866 275 885 275 885 255 c 0
 885 234 898 238 898 233 c 0
 898 233 908 220 927 203 c 1
 929 185 928 185 934 181 c 0
 941 176 941 175 943 157 c 1
 955 148 957 146 957 135 c 0x0803
 957 129 957 129 970 117 c 1
 972 102 972 98 974 98 c 0
 974 98 977 96 979 94 c 0
 985 89 986 86 985 65 c 2x080040
 984 49 l 1
 991 36 996 37 998 31 c 0
 998 31 1000 -78 1000 -79 c 0x080020
 999 -84 999 -92 999 -105 c 0
 999 -127 999 -130 991 -136 c 0
 974 -150 994 -183 977 -192 c 0
 964 -199 976 -213 963 -221 c 0
 957 -225 956 -227 956 -233 c 0
 956 -254 943 -245 941 -262 c 0
 940 -273 940 -274 935 -278 c 0
 929 -282 927 -286 927 -292 c 0
 927 -299 925 -303 919 -307 c 0
 919 -307 887 -337 884 -353 c 0
 884 -355 852 -396 838 -393 c 0
 834 -392 829 -395 826 -400 c 0
 826 -400 796 -433 789 -435 c 0
 787 -436 783 -436 780 -436 c 0x180080
 767 -436 767 -448 767 -448 c 2
 767 -450 l 1
 605 -450 l 1
 608 -437 611 -435 619 -431 c 1
 639 -431 l 2x200080
 662 -431 662 -432 668 -425 c 0
 683 -407 698 -428 710 -411 c 0
 714 -405 716 -404 724 -404 c 0x800080
 727 -404 731 -404 732 -403 c 0
 735 -401 750 -385 753 -381 c 0
 756 -377 760 -375 768 -375 c 2
 775 -375 l 1
 783 -367 l 2
 797 -354 797 -345 813 -335 c 0
 819 -331 861 -288 862 -288 c 0
 865 -288 867 -273 868 -269 c 0x1001
 869 -266 889 -246 891 -246 c 0
 893 -246 895 -240 895 -236 c 0x100080
 895 -220 905 -219 908 -212 c 0
 912 -201 904 -185 917 -176 c 0
 934 -164 913 -135 931 -120 c 0
 934 -118 936 -114 937 -113 c 0
 940 -104 936 -71 936 -71 c 0
 936 -69 937 -49 937 -27 c 0x100020
 938 18 938 17 931 22 c 0
 924 27 924 28 924 51 c 0x100040
 924 74 924 75 917 79 c 0
 900 91 919 112 903 122 c 0
 889 131 903 141 889 150 c 0
 884 153 881 160 874 164 c 0
 868 168 868 170 868 178 c 0
 868 181 867 185 866 186 c 0
 865 189 789 264 788 264 c 0x1801
 784 264 782 276 766 276 c 0x0401
 751 276 759 283 746 293 c 0
 743 295 740 298 740 298 c 0
 740 299 738 302 734 306 c 1
 728 306 l 2x0201
 718 306 718 306 705 320 c 1
 692 320 l 2x0101
 684 320 669 320 666 332 c 0
 663 344 625 326 610 343 c 2
 605 349 l 1
 543 349 l 2x0041
 476 349 476 350 471 343 c 0
 459 329 416 342 416 333 c 0
 416 331 409 322 406 321 c 0
 404 320 399 320 391 320 c 0
 361 320 376 305 352 305 c 2
 348 305 l 1
 338 295 l 2
 333 290 328 285 327 283 c 0
 321 272 312 277 302 270 c 0
 286 258 286 259 285 257 c 0
 284 256 268 239 249 220 c 2
 215 186 l 1
 215 180 213 175 213 169 c 1x0083
 207 164 204 161 196 153 c 2
 187 144 l 1
 187 138 185 133 185 127 c 1x0084
 170 113 170 113 172 102 c 0x0088
 174 87 172 85 157 71 c 1
 158 27 158 28 151 22 c 0
 143 15 142 13 143 5 c 0
 146 -21 140 -40 148 -71 c 1x00a0
 145 -80 138 -105 151 -118 c 0
 158 -125 158 -126 158 -149 c 2
 158 -168 l 1x0090
 168 -178 175 -186 172 -191 c 0
 172 -191 169 -210 179 -218 c 0
 186 -223 187 -228 188 -241 c 1
 197 -249 205 -258 214 -266 c 1
 215 -273 216 -277 216 -279 c 0
 216 -287 269 -334 270 -334 c 0
 280 -341 283 -345 286 -351 c 0
 286 -351 300 -374 313 -374 c 0
 329 -374 338 -400 355 -402 c 0
 379 -406 362 -417 391 -417 c 0x4088
 417 -417 409 -426 421 -430 c 0
 423 -431 432 -431 442 -431 c 0
 467 -431 472 -432 477 -450 c 1
 315 -450 l 1
 313 -445 310 -435 302 -435 c 0
 299 -435 294 -434 288 -433 c 1
 279 -423 l 2
 256 -399 251 -393 242 -392 c 0
 223 -390 221 -376 203 -362 c 0
 196 -357 197 -347 190 -338 c 0
 184 -331 184 -327 168 -312 c 2
 156 -300 l 1
 150 -260 144 -289 140 -262 c 0
 138 -245 126 -251 126 -233 c 0
 126 -219 114 -227 112 -207 c 0
 111 -196 109 -194 106 -192 c 0
 97 -188 97 -186 97 -162 c 0x2010
 97 -141 97 -141 89 -133 c 0
 76 -120 85 -101 81 -80 c 0
 79 -72 80 -68 81 -63 c 0x2020
 82 -61 82 -40 82 -16 c 0
 82 33 82 32 89 37 c 0
 90 38 100 47 98 52 c 0
 97 53 97 61 97 69 c 0x2010
 96 87 96 87 110 100 c 1
 110 104 l 2x2008
 110 127 125 118 125 137 c 0x2004
 125 155 139 147 139 164 c 0
 139 173 140 174 153 186 c 1
 153 192 l 2
 153 195 153 199 154 200 c 0
 155 203 190 239 192 239 c 0
 194 239 196 245 196 251 c 0
 196 257 196 268 216 279 c 0
 220 281 224 286 231 293 c 1
 249 296 249 296 253 301 c 0
 256 305 263 309 267 314 c 0
 282 334 295 336 304 337 c 1
 315 350 317 352 327 352 c 0x2802
EndSplineSet
EndChar

StartChar: F
Encoding: 70 70 5
Width: 1103
VWidth: 848
Flags: W
HStem: -450 21G<118 193.5 909.5 985> -450 21G<118 193.5 909.5 985> 349 74<95.0266 138.605>
VStem: 118 74<-450 -423.355> 663 67<-210.587 -176.51> 911 74<-450 -424.841>
LayerCount: 2
Fore
SplineSet
227 -333 m 0xbc
 229 -333 367 -192 371 -192 c 0
 371 -192 372 -192 372 -191 c 0
 372 -189 473 -90 478 -80 c 0
 485 -66 517 -56 507 -42 c 0
 505 -39 421 44 420 47 c 0
 419 48 307 155 307 159 c 0
 307 160 299 165 295 171 c 0
 293 173 201 264 200 265 c 0
 178 280 182 285 173 292 c 0
 172 292 118 349 117 349 c 0
 115 350 92 375 86 378 c 0
 79 382 77 390 84 395 c 0
 95 404 110 421 114 423 c 0
 118 425 122 424 125 419 c 0
 128 414 142 401 142 400 c 0
 142 400 201 344 201 339 c 0
 201 338 209 335 212 330 c 0
 212 330 239 303 240 302 c 0
 241 300 260 282 261 281 c 0
 278 271 285 256 291 251 c 0
 292 250 487 56 487 53 c 0
 487 52 546 -3 547 -3 c 0
 554 -6 555 -6 583 22 c 0
 585 24 817 254 821 263 c 0
 823 268 826 272 836 279 c 0
 843 284 900 338 900 339 c 0
 900 340 971 416 987 423 c 1
 992 421 994 420 998 415 c 0
 1004 407 1022 391 1023 388 c 0
 1024 384 1022 382 1017 379 c 0
 1015 378 968 334 968 333 c 0
 966 329 937 301 937 300 c 0
 937 299 929 294 924 286 c 0
 919 278 863 228 808 170 c 0
 802 164 760 124 755 118 c 0
 751 114 688 51 687 51 c 0
 685 51 682 48 682 46 c 0
 682 45 600 -36 597 -41 c 0
 588 -58 617 -66 625 -82 c 0
 626 -85 730 -188 730 -190 c 0
 730 -191 878 -335 880 -336 c 0
 888 -341 893 -347 896 -353 c 0
 898 -357 968 -427 978 -435 c 0
 983 -439 985 -444 985 -448 c 2
 985 -450 l 1
 948 -450 l 1
 911 -450 l 1
 908 -443 907 -441 900 -435 c 0
 897 -432 815 -351 814 -350 c 0
 800 -339 797 -336 794 -331 c 0
 788 -320 663 -201 663 -196 c 0
 663 -195 659 -194 608 -143 c 0
 582 -117 559 -95 558 -94 c 0
 557 -93 554 -93 551 -93 c 2
 545 -93 l 1
 531 -106 l 2
 509 -128 509 -129 509 -129 c 0
 509 -130 500 -135 495 -142 c 0
 489 -149 440 -195 440 -196 c 0
 438 -200 314 -320 310 -329 c 0
 308 -333 296 -344 290 -348 c 0
 286 -351 204 -433 199 -437 c 0
 195 -440 195 -443 192 -450 c 1
 118 -450 l 1
 118 -448 l 2
 118 -446 119 -438 128 -432 c 0
 129 -431 201 -363 207 -352 c 0
 213 -342 227 -333 227 -333 c 0xbc
EndSplineSet
EndChar

StartChar: G
Encoding: 71 71 6
Width: 1045
VWidth: 809
Flags: W
HStem: -450 21G<80 133 912 965> -450 21G<80 133 912 965>
VStem: 80 53<-450 -416.509> 98 35<-444.716 -416.509> 112 51<-400.72 -349.692> 155 37<-330.246 -280.535> 169 50<-306.583 -221.174> 197 37<-246.622 -215.601> 226 51<-168.49 -106.218> 240 51<-163.577 -101.6> 283 50<-70.3993 -13.6014> 311 37<-12.3518 28.9062> 340 50<60.5084 113.922> 354 51<64.872 114> 397 49<187 200> 426 50<216.644 268.725> 497 51<350.82 409.857> 569 64<213.831 271.406> 597 51<159.078 212.812> 612 50<131.078 200.891> 626 50<94.5567 158.399> 655 49<60.6461 121.833> 683 34<17.5077 59.606> 697 50<-47.5898 36.289> 711 50<-63.085 7.41016> 754 50<-163.739 -79.51> 783 49<-190.905 -135.279> 797 42<-230.763 -177.372> 913 52<-450 -396.038>
LayerCount: 2
Fore
SplineSet
340 80 m 0x80088008
 340 95 354 92 354 107 c 0x80048008
 354 115 356 117 368 129 c 1
 369 144 369 147 376 152 c 0
 382 156 383 156 384 174 c 1
 388 178 393 183 397 187 c 1
 397 192 l 2x80028008
 397 201 398 203 411 215 c 1
 411 251 426 227 426 254 c 0
 426 273 433 266 439 284 c 0
 440 288 443 290 454 301 c 1
 454 307 l 2
 454 326 463 319 468 331 c 0
 471 340 464 342 473 349 c 0
 482 356 482 357 482 363 c 0
 482 373 482 373 497 387 c 1
 497 394 l 2
 497 401 497 407 511 410 c 0
 513 410 548 417 548 395 c 0
 548 377 564 380 562 365 c 0
 560 352 580 349 575 338 c 0
 573 333 577 329 589 318 c 1
 589 312 591 307 591 301 c 1
 617 277 600 286 612 273 c 0x80019008
 627 257 609 252 626 238 c 0x80008808
 632 233 633 230 633 223 c 0x8000c008
 633 207 648 213 648 192 c 0x8000a008
 648 178 662 184 662 164 c 2
 662 159 l 1x80009008
 676 146 676 145 676 136 c 2
 676 131 l 1x80008808
 689 118 691 116 691 106 c 0
 691 96 704 95 704 80 c 0x80008408
 704 74 704 74 717 60 c 1
 717 54 l 2x80008208
 717 37 733 40 733 22 c 0
 733 10 747 11 747 -5 c 0x80008108
 747 -20 761 -16 761 -33 c 0x80008088
 761 -45 770 -44 777 -60 c 0
 783 -72 791 -77 789 -87 c 0
 787 -101 804 -106 804 -118 c 0x80008048
 804 -131 815 -132 817 -145 c 0
 821 -170 832 -160 832 -177 c 0x80008028
 832 -185 839 -189 839 -191 c 0
 839 -198 844 -187 846 -203 c 0
 849 -225 857 -215 860 -231 c 0
 864 -255 871 -243 874 -258 c 0
 881 -287 886 -269 889 -290 c 0
 891 -305 900 -302 903 -316 c 0
 905 -326 905 -326 921 -341 c 1
 921 -346 920 -351 920 -356 c 1
 944 -384 924 -373 939 -390 c 0
 944 -396 946 -401 946 -407 c 0
 946 -416 960 -416 965 -450 c 1
 913 -450 l 1
 911 -429 912 -429 904 -421 c 0
 890 -407 905 -407 890 -393 c 2
 884 -387 l 1
 878 -348 875 -376 867 -351 c 0
 864 -343 865 -343 855 -333 c 1
 853 -312 853 -312 846 -306 c 0
 841 -301 841 -301 839 -284 c 1
 835 -280 831 -277 827 -273 c 1
 824 -254 824 -254 818 -250 c 0
 813 -247 811 -241 811 -235 c 0
 811 -218 797 -223 797 -206 c 0x80008018
 797 -185 783 -198 783 -179 c 0x80008028
 783 -159 771 -174 768 -149 c 0
 766 -131 754 -138 754 -120 c 0x80008048
 754 -106 740 -109 740 -92 c 0
 740 -71 721 -88 724 -64 c 0
 726 -44 711 -55 711 -35 c 0x80008088
 711 -18 697 -26 697 -7 c 0x80008108
 697 9 683 4 683 22 c 0x80008208
 683 39 668 34 670 47 c 0
 671 55 667 60 655 71 c 1
 655 83 655 86 648 93 c 0x8000a408
 632 108 649 110 633 122 c 0x8000c008
 627 126 626 128 626 136 c 0x80008808
 626 154 612 145 612 163 c 0x80009008
 612 182 597 172 597 194 c 2
 597 201 l 1x8000a008
 593 205 588 209 584 213 c 1
 583 231 583 231 577 235 c 0
 571 239 569 242 569 249 c 0
 569 267 559 259 551 272 c 1
 555 286 556 286 541 299 c 1
 540 317 540 318 533 322 c 0
 514 334 533 332 524 340 c 2
 521 343 l 1
 517 338 514 334 517 333 c 0
 518 333 519 331 519 330 c 0
 519 328 516 326 511 321 c 2
 504 313 l 1
 508 298 499 293 491 286 c 1
 494 269 493 269 493 269 c 0
 489 263 476 265 476 252 c 0x8001c008
 476 244 474 239 469 235 c 0
 462 229 461 230 460 212 c 1
 456 208 452 204 448 200 c 1
 448 195 446 189 446 184 c 1x80028008
 442 180 438 175 434 171 c 1
 434 156 433 156 419 142 c 1
 419 128 l 1
 405 114 l 1
 405 109 l 2x80048008
 405 89 390 96 390 76 c 0x80088008
 390 64 370 56 375 47 c 0
 377 43 375 41 362 29 c 1
 362 23 l 2
 362 4 348 9 348 -5 c 0x80108008
 348 -14 346 -16 333 -30 c 1x80208008
 333 -45 333 -45 326 -51 c 0
 319 -57 319 -58 323 -71 c 1
 315 -84 307 -76 305 -94 c 2
 304 -101 l 1
 291 -114 291 -114 291 -121 c 0x80408008
 291 -137 277 -136 277 -148 c 0x80808008
 277 -167 262 -163 262 -180 c 0
 262 -196 251 -183 248 -208 c 2
 247 -215 l 1
 234 -228 234 -229 234 -235 c 0x81008008
 234 -251 219 -249 219 -266 c 0x82008008
 219 -277 205 -280 205 -293 c 0
 205 -309 192 -304 192 -323 c 0x84008008
 192 -341 186 -333 178 -352 c 0
 172 -368 163 -367 163 -378 c 0x88008008
 163 -391 151 -395 150 -401 c 0
 149 -404 148 -410 147 -416 c 1
 136 -427 133 -429 133 -442 c 2
 133 -450 l 1
 80 -450 l 1xa0008008
 85 -410 98 -423 98 -405 c 0x90008008
 98 -393 112 -388 112 -378 c 0x88008008
 112 -363 127 -364 124 -349 c 0
 121 -333 139 -337 141 -321 c 0
 144 -303 155 -304 155 -292 c 0x84008008
 155 -278 169 -274 169 -264 c 0x82008008
 169 -248 182 -251 184 -235 c 0
 187 -215 197 -220 197 -208 c 0x81008008
 197 -190 208 -201 212 -177 c 2
 213 -169 l 1
 224 -158 226 -155 226 -148 c 0x80808008
 226 -135 240 -133 240 -122 c 0x80408008
 240 -104 255 -107 255 -89 c 0
 255 -73 263 -75 268 -61 c 0
 274 -45 283 -49 283 -36 c 0x80208008
 283 -28 284 -26 297 -13 c 1
 298 1 299 4 305 9 c 0
 310 13 311 16 311 22 c 0x80108008
 311 40 326 35 326 54 c 2
 327 60 l 1
 339 71 340 72 340 80 c 0x80088008
EndSplineSet
EndChar

StartChar: H
Encoding: 72 72 7
Width: 1081
VWidth: 823
Flags: W
HStem: -450 47<327.537 376.812 667.312 753.38> -450 32<363.234 460.688> -450 19<411.191 470.387 609.19 669.994> -393 105<209.994 239.75 839.875 867.755> 275 77<281.269 337.329 747.049 774.996> 320 47<345.125 396.387 685.557 740.953> 335 61<374.34 459.862> 348 61<447.507 631.86>
VStem: 81 62<-125.811 51.7634> 96 59<-217.773 -128.049> 109 61<85.1399 127.538> 139 75<-304.977 -247.007> 195 46<215 251> 896 61<118.277 154.905> 939 60<-168.688 22.8601>
LayerCount: 2
Fore
SplineSet
363 -403 m 1x9810
 368 -408 373 -414 377 -418 c 1
 390 -418 l 2x5010
 405 -417 408 -417 413 -424 c 0
 418 -432 418 -432 441 -431 c 2
 461 -431 l 1
 470 -436 471 -436 475 -450 c 1
 313 -450 l 1
 313 -447 l 2
 313 -435 306 -435 289 -434 c 1
 271 -417 l 2
 260 -406 254 -399 249 -393 c 1
 242 -393 l 2
 234 -393 229 -391 226 -387 c 0
 217 -374 199 -367 196 -351 c 0
 193 -335 160 -306 160 -306 c 0
 147 -295 159 -287 146 -278 c 0
 141 -275 139 -269 139 -263 c 0x3010
 139 -258 136 -252 133 -251 c 0
 121 -247 129 -228 118 -221 c 0
 103 -212 117 -198 103 -191 c 0
 96 -187 96 -181 96 -162 c 0x3040
 96 -140 96 -141 89 -135 c 0
 86 -133 84 -129 83 -128 c 0
 82 -126 79 -115 81 -17 c 2x3080
 82 31 l 1
 91 39 99 47 97 52 c 0
 96 54 95 80 96 85 c 0x3040
 97 88 98 90 109 101 c 1x3020
 109 118 110 118 123 128 c 1
 125 147 125 147 132 152 c 0
 138 156 137 156 139 174 c 1x3010
 144 179 144 179 152 186 c 1
 152 192 l 2
 152 211 169 214 182 232 c 0
 185 236 192 240 194 243 c 0
 195 244 195 248 195 251 c 0
 195 273 214 275 224 288 c 0
 229 294 231 295 239 295 c 0
 247 295 249 296 252 301 c 0
 254 304 279 327 280 329 c 0
 283 333 290 337 295 336 c 0
 315 333 301 352 325 352 c 0x3808
 346 352 332 367 353 366 c 0
 374 365 362 383 381 381 c 0
 388 380 392 382 396 388 c 0
 401 396 403 397 427 396 c 2x1208
 447 395 l 1
 458 406 457 408 460 409 c 0
 461 410 615 412 621 409 c 0x1108
 627 407 629 398 632 396 c 0x1208
 641 391 674 405 685 388 c 0
 697 371 702 391 713 374 c 0
 718 366 718 366 735 367 c 1x1408
 746 357 743 355 747 353 c 0
 748 352 752 352 756 352 c 0
 770 352 775 338 775 338 c 0
 775 334 793 341 800 330 c 0
 801 328 827 303 828 301 c 0
 830 296 834 295 841 295 c 0
 859 295 853 286 864 280 c 0
 866 279 872 275 876 271 c 2
 884 263 l 1
 886 241 885 242 891 238 c 0
 892 237 921 208 921 208 c 0
 936 198 920 191 935 180 c 0
 949 169 938 161 945 155 c 0
 948 153 952 149 956 145 c 1
 956 139 957 134 957 128 c 1x180c
 963 124 963 124 970 118 c 1
 973 99 973 99 979 94 c 0
 986 89 986 87 985 66 c 2
 984 49 l 1
 986 40 996 37 999 29 c 1
 999 -13 l 2
 999 -14 1001 -46 999 -102 c 0
 998 -129 999 -131 992 -135 c 0
 975 -146 995 -184 976 -192 c 0
 965 -197 975 -214 964 -220 c 0
 949 -228 962 -241 949 -249 c 0
 936 -257 946 -271 935 -278 c 0
 921 -287 932 -299 921 -306 c 0
 920 -306 890 -328 882 -359 c 1
 854 -380 859 -393 839 -393 c 2
 832 -393 l 1
 829 -397 829 -397 802 -425 c 2
 792 -434 l 1
 770 -436 770 -436 767 -450 c 1x3802
 687 -450 l 2x9002
 643 -450 606 -450 606 -450 c 0
 606 -448 610 -438 611 -436 c 0
 618 -426 655 -435 662 -431 c 0
 663 -430 666 -427 668 -424 c 0
 682 -406 700 -427 709 -412 c 0
 714 -403 717 -404 723 -404 c 0
 732 -404 735 -403 739 -397 c 0
 744 -390 747 -390 752 -383 c 0
 762 -369 768 -377 775 -374 c 0
 786 -368 798 -344 814 -334 c 0
 820 -330 861 -288 862 -288 c 0
 863 -288 867 -281 867 -277 c 0
 867 -258 895 -250 895 -236 c 0
 895 -220 906 -219 909 -212 c 0
 910 -208 911 -185 911 -183 c 0
 911 -182 916 -177 924 -169 c 1
 924 -149 l 2
 924 -125 925 -124 931 -119 c 0
 946 -107 934 -82 937 -62 c 0
 938 -55 939 -44 939 -19 c 2
 939 15 l 1x3002
 936 18 934 20 930 23 c 0
 923 28 924 39 924 42 c 0
 930 94 908 64 910 102 c 0
 912 132 896 113 896 136 c 0
 896 143 895 145 890 149 c 0
 884 153 882 159 875 164 c 0
 869 168 868 171 868 180 c 0
 868 184 867 189 860 193 c 0
 859 194 836 218 833 220 c 0
 831 221 791 262 790 263 c 0
 787 265 783 269 776 275 c 1
 768 275 l 2x3804
 750 275 759 284 747 292 c 0
 737 299 740 308 728 306 c 0
 717 304 715 309 707 320 c 1
 694 320 l 2x1404
 680 320 669 320 667 331 c 0
 664 344 621 327 611 343 c 0
 610 345 607 347 606 348 c 0
 603 349 478 349 475 348 c 0x1104
 474 347 471 345 470 343 c 0
 461 329 423 339 417 335 c 0x1204
 416 335 415 332 413 329 c 0
 404 312 381 323 374 319 c 0
 368 315 371 306 353 306 c 2
 345 306 l 1
 338 296 329 290 326 282 c 0
 324 276 321 275 311 275 c 2
 304 275 l 1
 282 255 288 264 283 256 c 0
 280 252 241 216 241 215 c 0
 241 214 235 208 227 200 c 2
 213 186 l 1
 213 180 l 2
 213 173 212 168 208 165 c 0
 206 164 201 159 195 153 c 2
 184 143 l 1
 184 136 l 2
 184 109 169 135 170 102 c 0x182c
 170 87 170 83 163 78 c 0
 144 65 168 36 149 22 c 0
 142 17 141 18 142 -26 c 0
 143 -56 143 -111 143 -112 c 0x1880
 145 -116 153 -122 155 -126 c 0x1840
 159 -137 149 -164 163 -176 c 0
 180 -190 160 -206 178 -219 c 0
 190 -228 182 -240 191 -246 c 0
 191 -246 214 -264 214 -278 c 0
 214 -282 216 -288 218 -288 c 0
 220 -288 258 -329 266 -334 c 0
 283 -345 284 -353 297 -366 c 2
 306 -375 l 1
 320 -374 323 -374 328 -382 c 0
 333 -389 341 -394 341 -395 c 0
 341 -396 343 -398 347 -403 c 1
 363 -403 l 1x9810
EndSplineSet
EndChar

StartChar: I
Encoding: 73 73 8
Width: 1088
VWidth: 838
Flags: W
HStem: -450 21G<143.5 193 895 972> -450 21G<143.5 193 895 972>
VStem: 885 69<317.531 354.159> 895 77<-450 -424.527>
LayerCount: 2
Fore
SplineSet
101 409 m 0x90
 115 422 119 427 128 415 c 0
 129 414 206 334 206 334 c 0
 211 332 256 284 266 278 c 0
 281 269 285 255 290 251 c 0
 301 244 489 49 492 48 c 0
 496 46 534 6 539 4 c 0
 546 1 546 1 569 24 c 0
 581 36 600 52 600 52 c 0
 602 57 799 252 805 263 c 0
 809 270 812 272 821 278 c 0
 823 279 885 337 885 338 c 0
 885 339 902 357 924 379 c 0
 966 421 966 422 974 420 c 0
 976 420 1006 396 1008 384 c 0
 1007 384 954 334 954 333 c 0xa0
 953 330 912 291 907 283 c 0
 902 275 898 271 890 266 c 0
 887 264 668 47 668 47 c 0
 667 43 585 -37 582 -43 c 0
 574 -59 602 -64 611 -83 c 0
 612 -84 719 -195 720 -195 c 0
 725 -197 856 -330 864 -335 c 0
 872 -340 878 -346 882 -353 c 0
 895 -374 966 -430 972 -450 c 1
 895 -450 l 1
 895 -448 l 2
 895 -445 891 -440 886 -436 c 0
 880 -431 803 -354 793 -346 c 0
 784 -340 783 -338 776 -328 c 0
 775 -326 644 -192 643 -192 c 0
 641 -191 642 -191 594 -143 c 2
 548 -98 l 1
 545 -98 l 2
 534 -98 453 -188 444 -192 c 0
 443 -192 438 -199 376 -261 c 0
 339 -298 312 -326 310 -330 c 0
 306 -336 297 -344 291 -348 c 0
 290 -349 195 -439 193 -446 c 2
 192 -450 l 1
 154 -450 l 2
 133 -450 116 -449 116 -449 c 1
 116 -440 126 -433 129 -431 c 0
 130 -430 201 -362 207 -351 c 0
 210 -345 213 -343 222 -336 c 0
 241 -322 361 -198 367 -195 c 0
 368 -195 375 -186 423 -137 c 0
 463 -97 476 -83 478 -79 c 0
 486 -64 509 -60 507 -46 c 0
 506 -43 416 50 415 51 c 0
 411 54 206 259 197 266 c 0
 177 281 189 276 167 298 c 0
 144 321 143 321 143 321 c 0
 142 321 132 335 129 337 c 0
 123 340 97 370 88 376 c 0
 84 379 74 387 86 396 c 0
 88 398 95 403 101 409 c 0x90
EndSplineSet
EndChar

StartChar: J
Encoding: 74 74 9
Width: 1080
VWidth: 821
Flags: W
HStem: -450 21G<80 146 925.5 1000> -450 21G<80 146 925.5 1000>
VStem: 96 62<-448.947 -385.418> 196 75<-212.813 -163.038> 282 61<-72.9446 -30.1875> 310 61<15 50.1098> 367 61<101.078 163.602> 396 75<186.323 214.719> 410 62<198.281 225.994> 425 61<226.281 274.663> 453 61<268.816 331.27> 567 62<256.141 298.723> 625 61<137.868 199.538> 639 61<112.004 178.617> 668 61<49.8826 111.996> 683 60<45.5538 91.5588> 725 61<-61.996 0.490898> 738 77<-105.875 -33.854> 753 62<-112.262 -49.3055> 782 61<-176.469 -113.509> 796 61<-203.748 -134.397> 839 47<-261.697 -221.244> 853 61<-312.49 -249.306> 867 61<-344.398 -277.004> 896 60<-397.492 -338.202> 926 74<-450 -405.258>
LayerCount: 2
Fore
SplineSet
410 221 m 0xb080
 410 240 425 232 425 254 c 0xb040
 425 273 434 262 438 282 c 0
 441 298 453 290 453 307 c 0
 453 328 462 316 468 332 c 0
 469 334 469 336 468 338 c 0
 465 347 479 353 481 356 c 0
 487 366 471 367 495 384 c 1
 496 403 l 1
 501 407 506 412 514 403 c 0
 519 397 519 397 534 396 c 2
 546 395 l 1
 560 412 561 412 575 398 c 0
 586 387 586 386 586 378 c 2
 586 372 l 1
 594 365 595 365 600 360 c 1
 601 344 601 340 610 335 c 0
 614 333 614 331 614 323 c 0
 614 304 629 314 629 293 c 0xb030
 629 273 647 290 645 265 c 2
 644 256 l 1
 673 235 645 238 664 224 c 0
 671 219 671 217 673 200 c 1
 684 190 686 189 686 177 c 0xb008
 686 164 700 170 700 150 c 0xb004
 700 134 714 143 714 123 c 0
 714 118 716 112 717 112 c 0
 717 112 729 107 729 90 c 0xb002
 729 81 743 81 743 64 c 0xb001
 743 57 743 57 756 45 c 1
 757 29 757 29 765 23 c 0
 770 19 770 16 772 1 c 1
 784 -10 786 -12 786 -23 c 2
 786 -27 l 1xb00080
 799 -39 799 -39 800 -47 c 0
 803 -73 816 -53 815 -77 c 2
 815 -85 l 1xb00040
 827 -97 827 -97 829 -113 c 1
 840 -124 843 -126 843 -138 c 0xb00010
 843 -146 857 -147 857 -164 c 0xb00008
 857 -177 873 -177 871 -190 c 0
 869 -203 883 -198 886 -221 c 2
 886 -227 l 1xb00004
 895 -236 900 -241 900 -250 c 0
 900 -262 914 -261 914 -277 c 0xb00002
 914 -289 928 -291 928 -306 c 0xb00001
 928 -319 938 -315 942 -329 c 0
 948 -350 956 -343 956 -360 c 0xb0000080
 956 -377 971 -374 971 -393 c 0
 971 -405 985 -403 985 -421 c 0
 985 -436 995 -423 1000 -450 c 1
 926 -450 l 1xb0000040
 925 -432 925 -425 917 -420 c 0
 911 -416 911 -413 910 -398 c 1
 899 -387 896 -386 896 -377 c 0xb0000080
 896 -372 893 -366 888 -363 c 0
 879 -357 884 -348 874 -338 c 0
 868 -333 867 -329 867 -320 c 2
 867 -313 l 1xb00001
 855 -302 853 -299 853 -290 c 0xb00002
 853 -276 839 -280 839 -262 c 0xb00004
 839 -246 827 -256 825 -235 c 0
 822 -212 813 -232 810 -204 c 0
 808 -183 796 -198 796 -178 c 0xb00008
 796 -161 782 -166 782 -149 c 0xb00010
 782 -130 771 -143 768 -119 c 0
 766 -101 753 -112 753 -89 c 0xb00020
 753 -74 737 -85 738 -65 c 0xb00040
 739 -42 725 -55 725 -37 c 0xb00080
 725 -29 723 -25 718 -22 c 0
 703 -12 718 -1 703 8 c 0
 698 11 696 15 696 23 c 0
 696 41 684 29 683 48 c 0xb001
 682 69 668 60 668 79 c 0xb002
 668 97 656 85 654 106 c 0
 652 131 639 115 639 137 c 0xb004
 639 156 625 144 625 165 c 0xb008
 625 183 611 174 611 191 c 0
 611 211 596 203 596 223 c 0
 596 242 582 231 582 251 c 0
 582 273 565 255 567 279 c 2
 567 287 l 1
 560 293 561 293 554 299 c 1
 553 318 553 318 547 322 c 0
 539 328 538 334 533 334 c 0
 521 334 540 317 521 306 c 0
 516 303 514 301 514 291 c 0xb030
 514 266 505 285 500 261 c 0
 499 255 499 255 486 243 c 1xb040
 486 237 485 232 485 226 c 0
 485 226 476 218 472 215 c 1xb080
 472 209 471 204 471 198 c 1xb1
 465 193 465 193 457 186 c 1
 457 180 l 2
 457 159 442 168 442 149 c 0
 442 129 428 140 428 121 c 0xb2
 428 100 416 115 414 92 c 2
 414 84 l 1
 410 80 404 75 400 71 c 1
 400 65 l 2
 400 42 386 58 386 37 c 0
 386 17 371 25 371 6 c 0xb4
 371 -13 359 1 357 -22 c 2
 357 -30 l 1
 353 -34 348 -38 344 -42 c 1
 344 -49 343 -55 343 -62 c 1
 317 -87 338 -79 322 -93 c 0
 306 -107 321 -112 307 -122 c 0
 293 -132 307 -137 293 -150 c 0
 278 -164 295 -166 279 -179 c 0
 271 -186 271 -190 271 -202 c 1
 267 -206 262 -209 258 -213 c 1
 256 -230 257 -231 251 -236 c 0
 235 -250 250 -252 236 -264 c 0
 221 -276 237 -279 221 -294 c 2
 215 -299 l 1
 213 -316 213 -316 208 -321 c 0
 192 -335 212 -339 194 -350 c 0
 188 -354 186 -357 186 -363 c 0
 186 -382 172 -377 172 -393 c 0
 172 -409 158 -406 158 -420 c 0
 158 -438 149 -427 143 -450 c 1
 80 -450 l 1
 81 -434 82 -427 89 -421 c 0
 95 -415 96 -413 96 -409 c 0
 96 -398 100 -394 110 -385 c 1
 112 -369 111 -369 124 -357 c 1
 124 -352 123 -347 123 -342 c 1
 127 -337 130 -335 133 -333 c 0
 137 -331 139 -326 139 -322 c 0
 139 -307 153 -303 153 -296 c 0
 153 -285 156 -282 167 -271 c 1
 169 -256 169 -254 175 -249 c 0
 189 -237 174 -234 190 -219 c 2
 196 -213 l 1
 196 -209 l 2
 196 -192 206 -195 206 -191 c 0
 206 -189 210 -187 210 -181 c 0
 210 -171 212 -168 224 -157 c 1
 226 -141 226 -138 232 -134 c 0
 237 -130 239 -127 239 -121 c 0
 239 -103 254 -110 254 -88 c 0
 254 -73 264 -73 266 -66 c 0
 271 -42 282 -52 282 -35 c 0xb8
 282 -15 294 -30 296 -6 c 2
 297 2 l 1
 301 6 306 11 310 15 c 1
 310 20 l 2xb4
 310 28 312 34 318 38 c 0
 323 42 327 49 325 52 c 0
 325 52 322 58 331 65 c 0
 338 71 338 70 340 88 c 1
 344 92 349 97 353 101 c 1
 353 106 l 2
 353 126 367 119 367 134 c 0xb2
 367 142 370 147 375 151 c 0
 382 156 382 155 383 174 c 1
 389 179 389 180 396 186 c 1
 396 192 l 2xb1
 396 214 410 203 410 221 c 0xb080
EndSplineSet
EndChar

StartChar: K
Encoding: 75 75 10
Width: 1080
VWidth: 827
Flags: W
HStem: -450 52<326.641 412.799 666.219 753.194> -450 38<342.686 467.054> -450 11<470.818 609.162> 323 47<684.35 717.399> 324 62<364.6 412.998> 352 62<469.277 667.218>
VStem: 81 62<-172.642 49.3076> 109 62<-243.486 -196.048> 923 48<-213.519 -129.033> 924 61<32.1435 114.844> 935 65<-126.674 31.8474>
LayerCount: 2
Fore
SplineSet
690 323 m 0x3040
 668 323 667 332 667 333 c 0
 667 344 624 329 612 345 c 0
 609 349 606 350 601 352 c 1
 539 352 l 2x0440
 475 352 475 352 469 345 c 0
 456 329 413 345 413 333 c 0
 413 333 410 322 389 324 c 0
 377 325 377 325 364 311 c 1
 354 310 348 309 346 308 c 0
 343 306 329 291 327 287 c 0
 318 270 316 288 294 270 c 0
 284 262 218 195 216 191 c 0
 214 187 212 182 210 173 c 1
 199 162 l 2
 174 137 190 139 178 126 c 0
 162 109 179 101 163 83 c 0
 147 65 166 41 150 26 c 0
 146 23 144 20 142 15 c 1
 143 -23 l 2
 144 -69 143 -70 143 -89 c 0x0a40
 143 -106 143 -107 150 -115 c 0
 167 -134 146 -150 165 -173 c 0
 176 -186 168 -192 170 -196 c 0
 171 -197 171 -199 171 -201 c 0
 171 -211 180 -211 185 -228 c 0
 188 -238 189 -240 201 -252 c 2
 210 -261 l 1
 213 -271 215 -277 217 -281 c 0
 219 -286 261 -326 269 -332 c 0
 304 -357 280 -365 322 -371 c 1
 333 -383 l 2
 344 -395 347 -398 355 -398 c 0x89
 374 -398 367 -415 390 -412 c 0x41
 400 -411 406 -412 412 -419 c 0
 429 -438 449 -415 470 -433 c 0
 479 -440 479 -441 487 -440 c 0
 491 -440 517 -439 546 -439 c 2
 598 -439 l 1
 604 -437 608 -435 612 -431 c 0
 630 -416 649 -436 668 -418 c 0
 686 -401 691 -422 712 -404 c 0
 717 -399 723 -396 728 -396 c 0
 741 -396 749 -371 771 -368 c 0
 786 -366 785 -350 811 -331 c 0
 815 -328 827 -316 839 -304 c 0
 890 -253 849 -282 880 -249 c 0
 903 -225 890 -230 903 -211 c 0
 917 -190 901 -188 916 -170 c 0
 922 -162 923 -160 923 -143 c 2x2180
 922 -127 l 1
 925 -120 928 -116 932 -110 c 0
 944 -94 933 -77 935 -63 c 0x2020
 935 -61 937 -42 937 -22 c 0
 938 18 938 15 931 23 c 0
 919 36 925 50 924 51 c 0
 920 56 930 66 917 81 c 0
 911 88 909 93 909 105 c 2
 909 115 l 1
 887 147 902 129 894 145 c 0
 885 163 874 158 867 184 c 0
 865 190 859 196 824 231 c 0
 783 272 779 275 771 276 c 0
 745 279 751 304 725 309 c 2
 718 310 l 1
 705 323 704 323 690 323 c 0x3040
321 -450 m 1x2080
 310 -434 308 -432 300 -432 c 0
 291 -432 290 -432 268 -409 c 2
 248 -389 l 1
 242 -389 l 2
 234 -389 232 -389 214 -370 c 2
 199 -354 l 1
 185 -319 161 -313 153 -286 c 0
 149 -272 146 -282 139 -258 c 0
 136 -247 129 -245 126 -233 c 0
 122 -217 109 -209 109 -196 c 0x2180
 109 -195 107 -192 104 -189 c 0
 97 -182 96 -178 96 -158 c 0
 96 -140 95 -140 88 -132 c 0
 79 -122 80 -106 81 -18 c 0
 82 35 81 35 95 50 c 1
 95 69 l 2
 95 111 100 82 110 115 c 0
 115 130 119 125 125 145 c 0
 129 160 133 153 139 173 c 0
 143 186 149 186 152 196 c 0
 160 226 195 239 195 256 c 0
 195 270 204 276 209 280 c 0
 213 282 219 288 223 292 c 2
 231 299 l 1
 239 300 246 301 247 301 c 0
 285 338 l 0
 286 342 292 343 305 344 c 1
 317 357 317 356 333 358 c 1
 346 371 347 372 355 372 c 0
 369 372 363 384 384 386 c 2
 390 386 l 1x2a
 405 400 404 400 425 399 c 2
 442 399 l 1
 461 409 446 406 464 414 c 1
 538 414 l 2x06
 623 414 619 414 629 405 c 0
 647 388 666 410 685 391 c 0
 699 377 700 389 713 377 c 0
 718 372 724 370 728 370 c 0
 742 370 744 356 755 356 c 0
 771 356 768 344 786 341 c 0
 800 338 827 302 837 300 c 0
 840 299 845 298 851 297 c 1
 858 289 863 284 869 280 c 0
 880 272 883 268 885 256 c 0
 888 234 921 221 928 198 c 0
 934 180 938 183 941 172 c 0
 946 153 952 155 956 142 c 0
 961 125 967 126 971 113 c 0x1280
 980 84 985 106 985 69 c 0x1040
 985 49 985 49 987 47 c 0
 992 42 997 35 998 32 c 0
 999 30 1001 -53 1000 -96 c 0x1020
 999 -119 998 -123 992 -130 c 0
 975 -151 996 -175 973 -192 c 0
 972 -193 971 -194 971 -196 c 0
 971 -205 931 -272 923 -297 c 1
 914 -306 l 2
 887 -333 896 -338 867 -368 c 0
 828 -409 858 -363 812 -410 c 0
 797 -426 792 -430 783 -430 c 0
 775 -430 769 -441 757 -444 c 0
 751 -446 750 -447 749 -450 c 1x9080
 321 -450 l 1x2080
EndSplineSet
EndChar

StartChar: L
Encoding: 76 76 11
Width: 1084
VWidth: 839
Flags: W
HStem: -450 21G<110 188 897 946.5> -450 21G<110 188 897 946.5> 337 86<107 144.589>
LayerCount: 2
Fore
SplineSet
956 417 m 0xa0
 966 432 975 424 990 409 c 0
 1003 396 1010 388 996 377 c 0
 989 372 955 337 953 337 c 0
 951 337 948 334 948 332 c 0
 948 330 915 298 907 287 c 0
 901 279 900 278 887 267 c 0
 886 266 664 47 664 47 c 0
 664 44 588 -29 583 -36 c 0
 576 -47 583 -53 593 -60 c 0
 600 -65 603 -69 609 -77 c 0
 612 -80 723 -194 724 -195 c 0
 729 -197 855 -326 864 -332 c 0
 871 -337 874 -340 883 -351 c 0
 889 -359 958 -428 966 -435 c 0
 974 -441 974 -449 974 -449 c 0
 974 -449 957 -450 936 -450 c 2
 897 -450 l 1
 897 -448 l 2
 897 -445 893 -439 886 -433 c 0
 876 -424 805 -352 794 -344 c 0
 776 -330 792 -341 708 -256 c 0
 674 -221 650 -197 650 -196 c 0
 650 -195 644 -192 595 -143 c 0
 550 -99 545 -93 540 -95 c 0
 536 -96 444 -190 439 -192 c 0
 438 -192 435 -198 378 -255 c 0
 344 -288 317 -316 314 -320 c 0
 306 -330 303 -334 292 -343 c 0
 283 -350 192 -439 189 -443 c 0
 188 -445 188 -447 188 -450 c 1
 110 -450 l 1
 112 -444 114 -438 120 -433 c 0
 121 -432 189 -367 202 -350 c 0
 211 -338 207 -347 294 -261 c 0
 365 -190 365 -192 365 -191 c 0
 365 -189 467 -89 472 -81 c 0
 483 -64 497 -58 501 -52 c 0
 508 -41 506 -40 460 6 c 0
 426 40 418 51 417 51 c 0
 414 52 204 264 197 269 c 0
 187 277 132 337 131 337 c 0
 130 337 85 377 80 389 c 1
 90 408 108 422 111 423 c 0
 120 426 119 427 164 382 c 0
 207 339 208 334 209 334 c 0
 213 332 257 288 263 284 c 0
 275 275 277 272 283 264 c 0
 285 262 493 49 495 48 c 0
 500 46 534 10 537 8 c 0
 551 0 578 42 590 48 c 0
 593 49 710 172 787 247 c 0
 803 262 804 271 819 281 c 0
 820 281 879 338 879 338 c 0
 879 339 955 416 956 417 c 0xa0
EndSplineSet
EndChar

StartChar: M
Encoding: 77 77 12
Width: 1086
VWidth: 828
Flags: W
HStem: -450 21G<80 150 934 1006> -450 21G<80 150 934 1006>
VStem: 80 70<-450 -404.905> 692 66<18.0218 93.653> 939 67<-450 -400.64>
LayerCount: 2
Fore
SplineSet
501 393 m 0xb8
 507 431 524 403 524 403 c 0
 527 397 529 397 534 398 c 0
 536 398 541 399 546 399 c 2
 554 399 l 1
 563 412 569 420 579 405 c 0
 581 402 585 397 587 395 c 0
 595 386 590 382 600 370 c 0
 609 360 607 346 613 341 c 0
 614 340 615 340 615 339 c 0
 615 332 631 316 637 292 c 0
 639 283 648 284 651 268 c 0
 655 246 659 264 665 235 c 0
 667 228 674 228 678 212 c 0
 684 191 686 207 693 181 c 0
 697 167 701 176 708 151 c 0
 710 144 716 142 720 130 c 0
 727 105 731 116 735 100 c 0
 740 81 745 86 749 71 c 0
 754 53 758 56 758 52 c 0
 758 48 776 18 776 18 c 0
 782 -5 786 6 792 -15 c 0
 798 -34 800 -25 806 -44 c 0
 812 -65 817 -54 822 -73 c 0
 823 -78 869 -170 870 -172 c 0
 874 -177 878 -186 878 -191 c 0
 878 -198 885 -194 891 -214 c 0
 896 -231 900 -224 906 -243 c 0
 912 -262 914 -252 920 -271 c 0
 926 -290 929 -283 934 -300 c 0
 939 -315 963 -343 963 -356 c 0
 963 -365 971 -369 976 -383 c 0
 983 -405 987 -397 991 -412 c 0
 997 -434 1006 -429 1006 -446 c 2
 1006 -450 l 1
 939 -450 l 1
 929 -425 928 -421 924 -416 c 0
 915 -405 920 -399 910 -387 c 0
 902 -378 905 -370 895 -358 c 0
 889 -351 888 -342 881 -335 c 0
 869 -322 880 -316 867 -302 c 0
 858 -292 863 -286 854 -275 c 0
 845 -264 848 -256 838 -245 c 0
 831 -237 833 -227 824 -217 c 0
 817 -209 817 -194 814 -192 c 0
 801 -181 807 -173 796 -161 c 0
 787 -151 792 -143 782 -131 c 0
 773 -121 778 -115 768 -103 c 0
 758 -91 765 -87 752 -73 c 0
 742 -62 748 -57 738 -45 c 0
 732 -38 735 -28 725 -17 c 0
 716 -6 721 0 710 12 c 0
 702 20 706 29 696 39 c 0
 693 42 692 44 692 46 c 0
 692 57 679 67 676 79 c 0
 671 100 666 93 662 106 c 0
 654 134 651 120 647 137 c 0
 641 159 637 147 633 165 c 0
 627 189 624 171 617 198 c 0
 614 210 607 209 605 221 c 0
 600 246 594 233 590 251 c 0
 584 277 578 258 574 283 c 0
 572 297 567 291 562 308 c 0
 556 329 550 325 550 332 c 0
 550 336 537 346 535 329 c 0
 532 302 522 315 520 297 c 0
 517 273 510 285 504 261 c 0
 502 252 495 258 490 236 c 0
 486 218 481 231 476 208 c 0
 472 190 468 203 462 178 c 0
 459 166 454 174 447 149 c 0
 444 137 437 139 434 123 c 0
 430 106 425 116 419 94 c 0
 416 81 409 80 407 72 c 0
 403 58 403 57 394 49 c 1
 390 31 389 29 384 24 c 0
 376 17 379 7 371 -2 c 0
 359 -15 366 -21 357 -31 c 0
 344 -46 353 -54 343 -63 c 0
 335 -70 336 -80 329 -88 c 0
 318 -100 322 -108 313 -118 c 0
 303 -129 307 -138 300 -145 c 0
 291 -154 292 -166 285 -174 c 0
 279 -180 274 -197 274 -197 c 0
 274 -202 267 -201 262 -220 c 0
 259 -232 256 -226 249 -247 c 0
 244 -262 240 -257 234 -277 c 0
 230 -292 224 -286 219 -306 c 0
 218 -311 165 -412 163 -419 c 0
 159 -434 150 -433 150 -447 c 2
 150 -450 l 1
 80 -450 l 1
 85 -432 101 -410 104 -399 c 0
 109 -381 113 -388 118 -371 c 0
 119 -368 167 -273 168 -272 c 0
 177 -261 174 -252 181 -244 c 0
 191 -233 190 -222 196 -215 c 0
 201 -210 208 -192 208 -192 c 0
 208 -186 211 -192 218 -171 c 0
 223 -156 227 -161 233 -141 c 0
 237 -127 241 -133 247 -112 c 0
 251 -99 258 -102 261 -84 c 0
 264 -64 276 -62 276 -52 c 0
 276 -47 284 -48 290 -27 c 0
 294 -12 298 -19 304 1 c 0
 308 15 312 10 318 30 c 0
 321 42 332 47 332 52 c 0
 331 65 340 62 347 87 c 0
 351 99 357 101 359 108 c 0
 367 138 367 115 375 144 c 0
 379 157 384 151 389 171 c 0
 392 183 400 188 402 195 c 0
 408 220 411 203 418 230 c 0
 422 244 429 238 432 257 c 0
 435 278 447 279 447 290 c 0
 447 292 457 300 459 307 c 0
 462 318 462 321 465 324 c 0
 481 343 469 342 481 355 c 0
 491 367 485 372 496 384 c 0
 500 388 501 390 501 393 c 0xb8
EndSplineSet
EndChar

StartChar: N
Encoding: 78 78 13
Width: 1068
VWidth: 823
Flags: W
HStem: -450 12<615.925 665.777> 338 49<343.622 455.111> 366 49<456.323 668.5>
VStem: 83 49<-159.75 49.7649> 97 48<31.3735 125.847> 111 49<-225.622 -160.233> 125 35<-236.496 -191.162> 847 38<216.033 242.338> 922 48<47.1552 126.103> 933 52<-174.29 -67.1719 -67 36.5803>
LayerCount: 2
Fore
SplineSet
257 317 m 0xc9
 263 317 280 335 282 335 c 0
 286 335 284 341 296 344 c 0
 321 351 317 366 342 373 c 0
 360 378 355 387 377 387 c 0xc9
 406 387 388 403 427 401 c 0
 442 400 444 400 453 407 c 0
 463 415 464 415 534 415 c 2
 599 415 l 1xa9
 626 405 617 397 637 400 c 0
 670 405 670 383 691 386 c 0
 708 388 706 378 738 368 c 1
 747 359 l 2
 767 338 772 346 780 338 c 0
 782 336 783 335 784 335 c 0
 788 335 794 321 818 313 c 2
 825 310 l 1
 836 299 l 2
 855 279 864 278 873 263 c 0
 884 244 885 244 885 242 c 0
 892 220 907 220 914 199 c 0
 922 173 941 180 943 148 c 2
 943 137 l 1
 949 128 l 2
 950 126 970 88 970 86 c 0xc980
 973 73 967 50 973 47 c 0
 974 46 983 36 984 33 c 0
 987 27 983 -27 986 -54 c 2
 988 -67 l 1
 986 -78 l 2
 985 -85 985 -92 985 -102 c 0xc140
 985 -118 984 -122 976 -133 c 0
 963 -150 975 -160 970 -175 c 0xc180
 966 -187 957 -193 957 -196 c 0
 957 -211 941 -220 942 -236 c 0
 944 -264 924 -255 910 -294 c 0
 903 -316 897 -292 884 -339 c 0
 883 -340 824 -398 823 -399 c 0
 821 -400 817 -402 813 -403 c 0
 803 -407 797 -410 789 -419 c 2
 782 -427 l 1
 771 -430 l 2
 765 -432 749 -438 749 -448 c 2
 749 -450 l 1
 614 -450 l 1
 618 -437 622 -438 639 -438 c 2
 654 -438 l 1
 690 -419 687 -426 699 -417 c 0
 708 -410 746 -398 759 -383 c 0
 779 -361 787 -375 802 -353 c 0
 809 -343 814 -338 822 -332 c 0
 860 -304 842 -298 866 -276 c 0
 867 -275 912 -201 908 -190 c 0
 906 -185 907 -180 912 -173 c 0
 933 -142 910 -140 927 -116 c 0
 946 -90 927 -67 933 -57 c 0xc140
 934 -56 936 12 934 17 c 0
 932 22 925 28 922 37 c 0
 918 50 925 47 922 52 c 0
 918 59 928 65 915 82 c 0
 898 104 916 106 901 125 c 0
 892 136 883 172 864 190 c 2
 855 199 l 1
 852 210 850 217 847 221 c 0
 847 222 806 271 781 278 c 0
 758 284 763 301 739 309 c 0
 725 313 725 320 709 324 c 0
 703 326 695 331 695 333 c 0
 695 335 690 338 685 338 c 0xc180
 680 338 676 339 669 344 c 0
 645 362 632 343 613 358 c 0
 610 360 609 362 601 366 c 1
 533 366 l 2xa180
 463 366 463 366 456 360 c 0
 437 342 420 362 400 345 c 0
 395 341 386 338 380 338 c 0
 377 338 372 335 372 333 c 0
 372 326 358 329 343 316 c 0
 330 305 321 316 303 289 c 0
 298 282 296 281 288 279 c 0
 258 272 217 217 217 216 c 0
 216 214 217 214 213 200 c 1
 204 192 l 2
 181 171 191 166 181 154 c 0
 171 142 174 134 167 126 c 0
 162 120 160 117 160 108 c 0xc380
 160 95 160 95 145 73 c 1
 145 63 l 2
 145 57 145 52 145 50 c 0xc9
 145 41 145 34 138 26 c 0
 136 23 135 22 131 15 c 1
 132 -21 l 2
 133 -73 133 -74 132 -88 c 0xd1
 131 -102 131 -107 138 -115 c 0
 145 -124 146 -125 146 -144 c 2
 146 -160 l 1
 149 -165 150 -168 154 -173 c 0
 164 -185 157 -192 159 -196 c 0
 160 -197 160 -199 160 -201 c 0xc5
 160 -209 169 -213 174 -228 c 0
 179 -244 184 -244 188 -256 c 0
 195 -280 209 -277 216 -298 c 0
 224 -324 243 -326 260 -348 c 0
 273 -366 275 -366 297 -372 c 1
 306 -382 l 2
 329 -406 330 -393 344 -404 c 0
 358 -415 362 -411 372 -419 c 0
 385 -430 392 -425 403 -433 c 0
 424 -447 444 -425 454 -450 c 1
 318 -450 l 1
 313 -425 296 -441 274 -415 c 0
 264 -403 254 -406 245 -399 c 0
 239 -395 196 -351 189 -345 c 0
 173 -330 195 -334 158 -300 c 1
 153 -282 151 -278 137 -264 c 0
 126 -253 125 -250 125 -236 c 2
 125 -226 l 1xc3
 118 -218 111 -206 111 -196 c 0xc5
 111 -189 94 -191 98 -154 c 0
 101 -127 82 -146 83 -101 c 0
 83 -89 83 -86 80 -67 c 1
 82 -54 l 2
 83 -44 83 -34 83 -5 c 2
 83 31 l 1xd1
 85 39 91 45 97 50 c 1
 97 68 l 2
 97 88 97 91 103 99 c 0
 114 113 112 119 119 129 c 0
 137 155 110 150 139 179 c 0
 163 203 149 206 169 223 c 0
 187 239 182 262 213 283 c 0
 224 291 245 317 257 317 c 0xc9
EndSplineSet
EndChar

StartChar: O
Encoding: 79 79 14
Width: 1098
VWidth: 848
Flags: W
HStem: -450 21G<110 165 911 989> -450 21G<110 165 911 989> 337 87<108.168 141.679>
VStem: 110 77<-449.885 -423.346> 911 78<-450 -423.817>
LayerCount: 2
Fore
SplineSet
971 418 m 0xb8
 981 433 988 426 992 422 c 0
 994 419 1000 412 1005 407 c 0
 1019 392 1021 387 1013 380 c 0
 998 368 971 338 968 337 c 0
 965 336 962 334 962 332 c 0
 962 329 927 298 918 284 c 0
 917 282 914 278 912 276 c 0
 906 272 678 50 677 47 c 0
 675 43 597 -34 595 -39 c 0
 587 -55 603 -51 625 -80 c 0
 626 -82 737 -194 738 -195 c 0
 740 -196 871 -327 878 -332 c 0
 884 -336 962 -421 980 -435 c 0
 986 -440 988 -444 989 -450 c 1
 911 -450 l 1
 911 -444 911 -443 860 -393 c 0
 829 -362 810 -344 804 -340 c 0
 797 -335 793 -331 789 -325 c 0
 788 -323 664 -195 659 -192 c 0
 657 -191 557 -92 556 -91 c 0
 552 -89 546 -88 543 -90 c 0
 540 -92 443 -190 438 -192 c 0
 437 -192 436 -196 376 -256 c 0
 314 -318 299 -336 298 -337 c 0
 266 -363 214 -420 197 -434 c 0
 191 -439 187 -445 187 -448 c 0
 187 -449 182 -450 148 -450 c 2
 110 -450 l 1
 112 -443 112 -439 121 -432 c 0
 132 -423 195 -359 203 -349 c 0
 208 -343 213 -338 220 -333 c 0
 221 -332 364 -193 365 -191 c 0
 366 -188 466 -89 472 -80 c 0
 486 -60 497 -59 501 -52 c 0
 503 -48 504 -40 502 -36 c 0
 500 -32 422 43 421 46 c 0
 420 49 177 286 176 288 c 0
 175 289 132 337 131 337 c 0
 127 339 94 373 86 379 c 0
 77 387 78 392 91 406 c 0
 108 424 108 423 110 424 c 0
 118 427 117 427 163 381 c 0
 186 358 205 338 205 337 c 0
 205 336 264 283 266 281 c 0
 274 275 278 270 283 262 c 0
 287 255 489 55 490 52 c 0
 490 52 515 28 520 24 c 0
 545 -1 546 -2 554 2 c 0
 559 4 608 52 608 52 c 0
 608 54 809 252 816 263 c 0
 827 279 822 268 863 309 c 0
 881 327 894 338 894 338 c 0
 896 342 966 411 971 418 c 0xb8
EndSplineSet
EndChar

StartChar: P
Encoding: 80 80 15
Width: 1086
VWidth: 828
Flags: W
HStem: -450 21G<80 152 935 1006> -450 21G<80 152 935 1006>
VStem: 80 70<-450 -402.91> 691 67<10.1835 93.5464> 815 63<-215.349 -157.647>
LayerCount: 2
Fore
SplineSet
279 -185 m 0xb8
 279 -187 274 -195 274 -197 c 0
 274 -202 269 -199 263 -219 c 0
 258 -234 255 -226 249 -247 c 0
 245 -261 240 -258 235 -276 c 0
 232 -288 227 -285 221 -303 c 0
 218 -314 211 -317 208 -330 c 0
 203 -351 200 -336 192 -360 c 0
 187 -374 184 -370 178 -389 c 0
 174 -404 169 -397 164 -417 c 0
 158 -437 154 -420 150 -450 c 1
 80 -450 l 1
 81 -445 110 -385 111 -385 c 0
 117 -379 133 -335 139 -329 c 0
 150 -317 146 -309 154 -300 c 0
 164 -288 161 -281 168 -272 c 0
 180 -257 171 -259 185 -239 c 0
 190 -232 191 -220 197 -213 c 0
 202 -206 208 -190 208 -190 c 0
 208 -184 213 -189 219 -169 c 0
 223 -157 228 -157 233 -142 c 0
 238 -125 242 -132 247 -114 c 0
 252 -97 261 -95 261 -84 c 0
 261 -70 286 -43 290 -28 c 0
 296 -9 299 -19 305 2 c 0
 308 12 313 13 318 29 c 0
 324 49 333 48 332 53 c 0
 330 61 341 70 346 86 c 0
 352 104 356 97 362 117 c 0
 366 129 370 126 375 143 c 0
 381 161 383 153 389 171 c 0
 394 188 397 181 403 199 c 0
 409 218 412 207 418 229 c 0
 423 248 429 238 432 259 c 0
 435 278 437 269 445 286 c 0
 452 301 457 300 460 314 c 0
 464 329 473 330 474 340 c 0
 475 353 484 356 489 371 c 0
 495 391 497 376 504 401 c 0
 509 420 519 410 530 398 c 1
 555 401 555 401 560 406 c 0
 566 412 571 412 575 409 c 0
 590 397 592 378 600 369 c 0
 610 358 606 350 612 343 c 0
 614 341 615 339 615 338 c 0
 615 334 619 338 622 326 c 0
 627 304 629 322 637 295 c 0
 640 283 652 279 652 266 c 0
 652 253 659 262 666 236 c 0
 669 225 676 226 679 212 c 0
 683 193 688 199 692 186 c 0
 697 166 702 172 706 157 c 0
 712 137 716 144 720 129 c 0
 726 109 732 112 735 100 c 0
 740 82 745 85 749 71 c 0
 755 53 758 56 758 52 c 0
 758 51 791 -12 792 -15 c 0
 796 -30 802 -29 807 -44 c 0
 813 -62 820 -58 823 -75 c 0
 825 -86 832 -91 835 -101 c 0
 840 -117 846 -116 849 -128 c 0
 854 -145 859 -145 862 -156 c 0
 868 -174 878 -178 878 -191 c 0
 878 -195 888 -202 892 -216 c 0
 892 -217 934 -299 934 -299 c 0
 940 -318 959 -338 962 -355 c 0
 964 -368 971 -369 976 -384 c 0
 981 -400 1006 -436 1006 -448 c 2
 1006 -450 l 1
 937 -450 l 1
 933 -428 922 -415 918 -405 c 0
 912 -387 908 -390 904 -377 c 0
 895 -351 876 -339 873 -318 c 0
 871 -303 866 -308 861 -292 c 0
 855 -272 851 -278 846 -263 c 0
 840 -243 836 -249 832 -235 c 0
 827 -219 815 -207 815 -195 c 0
 815 -191 809 -194 804 -177 c 0
 798 -157 795 -166 790 -150 c 0
 783 -128 780 -136 776 -121 c 0
 771 -100 767 -111 761 -91 c 0
 756 -73 744 -71 744 -58 c 0
 744 -55 736 -47 733 -36 c 0
 727 -15 722 -22 718 -7 c 0
 712 17 711 -1 703 27 c 0
 700 39 691 39 691 48 c 0
 691 59 681 59 674 85 c 0
 672 94 665 94 662 108 c 0
 657 129 651 120 647 137 c 0
 641 159 638 146 633 165 c 0
 626 190 625 169 617 199 c 0
 613 213 610 199 603 228 c 0
 599 243 597 223 588 257 c 0
 585 266 576 264 574 282 c 0
 572 294 565 292 562 308 c 0
 559 319 547 337 546 337 c 0
 531 341 540 326 527 310 c 0
 516 297 524 291 517 282 c 0
 516 280 513 278 513 278 c 0
 510 278 506 262 500 255 c 0
 489 243 494 236 486 227 c 0
 474 214 479 206 471 197 c 0
 460 185 466 180 456 168 c 0
 447 157 450 150 442 140 c 0
 433 130 437 121 429 112 c 0
 418 99 422 90 414 82 c 0
 404 72 409 62 399 53 c 0
 390 46 394 34 387 27 c 0
 378 19 378 6 371 -2 c 0
 361 -13 365 -21 357 -31 c 0
 344 -46 355 -49 343 -62 c 0
 340 -66 279 -184 279 -185 c 0xb8
EndSplineSet
EndChar

StartChar: Q
Encoding: 81 81 16
Width: 1068
VWidth: 823
Flags: W
HStem: -450 12<401.153 452.372> 338 49<612.889 725.173> 366 49<446.322 611.677>
VStem: 83 52<-174.278 -67.1719 -67 51.9012> 111 49<-241.8 -129.126> 908 63<-200.724 -160.233 74.0153 128.805> 908 35<-236.496 -191.162> 923 48<35.1861 125.807> 936 49<-159.75 34.6769>
LayerCount: 2
Fore
SplineSet
923 73 m 1xc1
 908 95 908 95 908 108 c 0
 908 127 901 119 896 137 c 0
 890 158 887 149 881 167 c 0
 878 178 875 182 864 192 c 2
 855 200 l 1
 849 221 849 221 823 247 c 0
 807 264 797 275 780 279 c 0
 759 284 767 303 737 311 c 0
 720 315 728 320 709 325 c 0
 702 327 696 330 696 333 c 0
 696 335 691 338 688 338 c 0xc4
 682 338 673 341 668 345 c 0
 648 362 631 341 612 359 c 0
 605 365 605 366 535 366 c 2
 467 366 l 1xa4
 452 358 453 355 446 353 c 0
 431 348 419 359 399 344 c 0
 392 339 388 338 383 338 c 0
 378 338 373 335 373 333 c 0
 373 327 354 325 341 315 c 0
 327 305 325 315 307 293 c 0
 287 268 291 286 267 267 c 0
 258 260 224 226 221 221 c 0
 218 217 216 210 213 199 c 1
 204 190 l 2
 184 171 192 168 181 152 c 0
 174 142 173 132 167 125 c 0
 152 106 170 104 153 82 c 0
 140 65 150 59 146 52 c 0
 145 49 152 40 140 25 c 0
 133 16 132 17 133 -21 c 0
 133 -40 135 -56 135 -57 c 0xd4
 141 -67 122 -90 141 -116 c 0
 158 -140 135 -142 156 -173 c 0
 166 -188 158 -189 160 -196 c 0
 160 -197 192 -267 202 -276 c 0
 225 -296 209 -305 246 -332 c 0
 270 -349 261 -359 287 -368 c 0
 311 -376 307 -386 322 -393 c 0
 352 -407 378 -423 389 -427 c 0
 396 -430 404 -433 414 -438 c 1
 429 -438 l 2
 448 -438 451 -438 454 -450 c 1
 319 -450 l 1
 319 -448 l 2
 319 -438 303 -432 297 -430 c 2
 286 -427 l 1
 279 -419 l 2
 271 -410 265 -407 255 -403 c 0
 244 -399 244 -398 221 -375 c 0
 207 -361 198 -352 184 -339 c 1
 178 -318 178 -318 168 -308 c 0
 152 -293 157 -282 141 -267 c 0
 113 -242 137 -241 119 -216 c 0
 115 -211 111 -201 111 -196 c 0xc8
 111 -190 96 -188 97 -162 c 0
 98 -140 98 -142 92 -133 c 0
 84 -122 83 -118 83 -102 c 0
 83 -92 83 -85 82 -78 c 2
 80 -67 l 1
 82 -54 l 2
 85 -28 81 27 84 33 c 0
 87 41 99 50 98 52 c 0
 98 52 93 81 104 98 c 0
 112 110 111 116 119 128 c 2
 125 137 l 1
 125 148 l 2
 127 180 146 173 154 199 c 0
 161 220 176 220 183 242 c 0
 183 242 194 267 214 282 c 0
 218 285 226 293 232 299 c 2
 243 310 l 1
 257 315 265 318 275 328 c 0
 279 332 283 335 284 335 c 0
 286 335 289 340 297 343 c 0
 306 346 312 349 321 359 c 2
 330 368 l 1
 362 377 360 388 377 386 c 0
 398 383 398 405 431 400 c 0
 454 397 450 411 470 414 c 0
 472 414 503 415 538 415 c 0xb0
 609 415 604 415 615 407 c 0
 638 390 647 412 671 394 c 0
 680 387 680 387 691 387 c 0
 713 387 708 378 726 373 c 0
 751 366 747 351 772 344 c 0
 784 341 782 335 786 335 c 0
 788 335 805 317 811 317 c 0
 823 317 843 291 855 283 c 0
 884 263 882 237 899 223 c 0
 919 206 905 203 929 179 c 0
 958 150 931 155 949 129 c 0
 956 119 954 113 965 99 c 0
 971 91 971 88 971 68 c 2
 971 50 l 1xd1
 977 45 983 39 985 31 c 1
 985 -5 l 2
 985 -34 985 -44 986 -54 c 2
 988 -67 l 1
 985 -82 985 -86 985 -101 c 0xc080
 986 -146 967 -127 970 -154 c 0
 974 -191 957 -189 957 -196 c 0
 957 -202 954 -211 943 -226 c 1
 943 -236 l 2
 943 -269 922 -260 912 -292 c 2
 910 -300 l 1
 874 -333 895 -331 879 -345 c 0
 872 -351 829 -395 823 -399 c 0
 814 -406 804 -403 794 -415 c 0
 772 -441 755 -425 750 -450 c 1
 614 -450 l 1
 623 -425 645 -447 665 -433 c 0
 676 -425 683 -430 696 -419 c 0
 706 -411 710 -415 724 -404 c 0
 738 -393 739 -406 762 -382 c 2
 771 -372 l 1
 793 -366 795 -366 808 -348 c 0
 826 -325 843 -325 852 -298 c 0
 859 -277 873 -280 880 -256 c 0
 884 -244 889 -244 894 -228 c 0
 899 -213 908 -209 908 -201 c 0xc2
 908 -195 911 -196 909 -191 c 0
 907 -187 909 -179 914 -173 c 0
 918 -168 919 -165 922 -160 c 1
 922 -144 l 2
 922 -125 923 -124 930 -115 c 0
 937 -107 937 -102 936 -88 c 0
 935 -74 935 -73 936 -21 c 2xc080
 937 15 l 1
 930 28 927 28 924 35 c 0
 923 39 923 41 923 50 c 0
 923 52 923 57 923 63 c 2
 923 73 l 1xc1
EndSplineSet
EndChar

StartChar: R
Encoding: 82 82 17
Width: 1098
VWidth: 848
Flags: W
HStem: -450 21G<110 187 908.5 988> -450 21G<110 187 908.5 988>
VStem: 110 77<-450 -423.538> 665 68<-210.305 -177.384>
LayerCount: 2
Fore
SplineSet
103 420 m 0xb0
 108 427 115 431 124 420 c 0
 125 419 204 339 204 338 c 0
 204 337 261 283 265 280 c 0
 273 274 279 269 282 263 c 0
 284 259 489 55 490 52 c 0
 538 6 l 0
 544 0 546 -1 549 -1 c 0
 560 -1 593 41 604 48 c 0
 605 49 605 50 712 157 c 0
 776 221 815 261 817 264 c 0
 827 279 821 266 864 309 c 0
 865 310 972 416 974 419 c 0
 982 430 988 429 997 416 c 0
 998 414 1003 409 1007 405 c 0
 1024 388 1017 383 1013 380 c 0
 1007 375 972 339 968 337 c 0
 961 333 927 289 905 272 c 0
 903 270 682 52 681 51 c 0
 680 51 670 39 636 5 c 0
 585 -45 585 -46 606 -61 c 0
 615 -68 620 -72 626 -81 c 0
 630 -87 733 -189 733 -191 c 0
 733 -192 892 -345 893 -347 c 0
 900 -356 963 -420 976 -431 c 0
 985 -438 988 -443 988 -448 c 2
 988 -450 l 1
 912 -450 l 1
 905 -432 793 -331 790 -326 c 0
 778 -310 665 -200 665 -197 c 0
 665 -195 662 -192 660 -192 c 0
 659 -192 557 -91 556 -90 c 0
 548 -84 547 -84 491 -140 c 0
 440 -192 434 -195 434 -196 c 0
 433 -199 318 -313 309 -325 c 0
 305 -331 299 -335 294 -339 c 0
 293 -340 187 -438 187 -450 c 1
 110 -450 l 1
 115 -432 182 -375 203 -349 c 0
 208 -343 214 -337 220 -332 c 0
 235 -321 355 -198 361 -195 c 0
 362 -194 473 -80 474 -79 c 0
 490 -55 504 -60 504 -44 c 2
 504 -38 l 1
 496 -30 l 2
 484 -17 421 45 421 47 c 0
 421 48 420 46 344 122 c 0
 236 230 202 264 192 272 c 0
 183 279 132 337 131 337 c 0
 127 339 95 372 87 378 c 0
 77 386 78 391 91 405 c 0
 96 410 101 417 103 420 c 0xb0
EndSplineSet
EndChar

StartChar: S
Encoding: 83 83 18
Width: 1056
VWidth: 819
Flags: W
HStem: -450 21G<80 140 936 976> -450 21G<80 140 936 976>
VStem: 209 46<-231.072 -158.421> 589 36<226.651 261.698>
LayerCount: 2
Fore
SplineSet
938 -373 m 0xb0
 938 -373 971 -433 976 -450 c 1
 950 -450 l 2
 922 -450 922 -450 922 -445 c 0
 922 -444 879 -354 864 -335 c 0
 856 -325 863 -319 853 -305 c 0
 852 -304 799 -200 801 -196 c 0
 803 -190 797 -200 788 -174 c 0
 785 -167 778 -159 774 -148 c 0
 772 -144 750 -99 748 -94 c 0
 740 -70 734 -78 730 -62 c 0
 726 -45 682 39 681 40 c 0
 674 49 681 48 677 51 c 0
 675 52 589 220 589 227 c 0
 589 229 579 241 577 247 c 0
 568 279 562 258 559 282 c 0
 558 290 534 330 535 334 c 0
 536 340 533 337 532 340 c 0
 531 342 527 342 526 340 c 0
 524 337 521 338 522 333 c 0
 524 326 516 330 509 307 c 0
 502 285 502 307 496 273 c 1
 469 249 488 254 475 239 c 0
 464 227 468 219 461 211 c 0
 451 200 454 191 445 181 c 0
 437 172 437 162 433 156 c 0
 420 139 427 136 417 124 c 0
 408 113 411 106 402 95 c 0
 394 85 396 78 388 67 c 0
 384 62 379 50 379 48 c 0
 379 41 372 42 367 25 c 0
 362 8 358 11 353 -5 c 0
 348 -20 344 -15 338 -33 c 0
 334 -46 330 -49 327 -61 c 0
 323 -80 318 -66 310 -92 c 0
 306 -106 302 -101 296 -119 c 0
 291 -134 288 -128 281 -148 c 0
 278 -158 255 -195 255 -196 c 0
 255 -202 205 -302 205 -302 c 0
 192 -317 202 -323 191 -335 c 0
 183 -344 148 -412 132 -450 c 1
 80 -450 l 1
 81 -446 123 -364 123 -363 c 0
 129 -347 209 -192 209 -190 c 0
 209 -189 248 -114 249 -111 c 0
 256 -92 259 -94 261 -81 c 0
 262 -73 264 -68 267 -65 c 0
 280 -51 324 43 329 47 c 0
 335 52 328 53 340 73 c 0
 342 76 423 239 424 241 c 0
 439 263 429 267 438 277 c 0
 449 288 467 331 471 333 c 0
 477 336 470 338 482 356 c 0
 494 374 502 410 517 415 c 0
 517 415 548 423 554 398 c 0
 559 378 563 388 569 369 c 0
 573 355 584 346 582 339 c 0
 581 335 594 325 597 313 c 0
 601 297 625 273 625 257 c 0
 625 247 636 240 640 226 c 0
 640 226 682 142 682 141 c 0
 684 136 709 90 711 84 c 0
 716 69 725 63 725 52 c 0
 725 50 726 48 726 48 c 0
 731 48 741 21 747 12 c 0
 754 1 768 -36 777 -47 c 0
 796 -71 793 -85 802 -99 c 0
 806 -104 854 -205 860 -214 c 0
 863 -219 899 -294 903 -301 c 0
 910 -312 906 -315 918 -329 c 0
 922 -333 923 -336 925 -341 c 0
 928 -351 938 -372 938 -373 c 0xb0
EndSplineSet
EndChar

StartChar: T
Encoding: 84 84 19
Width: 1080
VWidth: 827
Flags: W
HStem: -450 54<324.727 411.998 669.48 755.078> -450 39<343.104 467.156> -450 11<470.838 609.182> 323 61<362.601 402.719> 324 48<690.603 715.4> 352 62<412.104 610.724>
VStem: 80 64<-126.491 31.885> 95 62<-195.81 -127> 109 61<-241.168 -129> 909 62<-243.273 -131.39> 937 63<-172.642 32.6657>
LayerCount: 2
Fore
SplineSet
413 333 m 0x0420
 413 332 412 323 390 323 c 0
 376 323 375 323 362 310 c 1
 344 307 345 307 339 300 c 0
 321 278 319 278 309 277 c 0
 301 276 297 272 256 231 c 0
 221 196 215 190 213 184 c 0
 205 154 189 162 183 136 c 0
 182 131 182 131 171 115 c 1
 171 105 l 2
 171 74 155 86 157 60 c 0x1120
 158 44 153 53 156 47 c 0
 159 42 155 30 149 23 c 0
 142 15 142 18 143 -22 c 0
 144 -73 145 -74 144 -80 c 0x12
 142 -97 142 -102 148 -110 c 0
 151 -114 153 -116 158 -127 c 1
 157 -143 l 2x11
 157 -160 158 -162 164 -170 c 0
 176 -185 168 -192 170 -196 c 0
 179 -220 179 -211 184 -225 c 0
 192 -251 206 -248 212 -266 c 0
 216 -279 219 -282 241 -304 c 0
 279 -342 276 -332 292 -354 c 0
 312 -381 304 -353 333 -382 c 0
 344 -393 348 -396 352 -396 c 0x9080
 369 -396 364 -412 389 -411 c 0x4080
 402 -411 405 -412 412 -418 c 0
 431 -436 450 -416 468 -431 c 0
 472 -435 476 -437 482 -439 c 1
 534 -439 l 2
 563 -439 589 -440 593 -440 c 0
 601 -441 601 -440 610 -433 c 0
 631 -415 651 -438 668 -419 c 0
 684 -401 693 -422 709 -406 c 0
 715 -400 719 -398 725 -398 c 0
 731 -398 733 -398 747 -383 c 2
 758 -371 l 1
 779 -368 779 -368 792 -351 c 0
 800 -340 802 -338 811 -332 c 0
 819 -326 861 -286 863 -281 c 0
 865 -277 867 -271 870 -261 c 1
 879 -252 l 2
 906 -225 889 -230 902 -215 c 0
 907 -209 909 -205 909 -201 c 0x20c0
 909 -195 912 -196 910 -191 c 0
 908 -186 910 -179 915 -173 c 0
 934 -150 913 -134 930 -115 c 0
 937 -107 937 -106 937 -89 c 0
 937 -70 936 -69 937 -23 c 2
 938 15 l 1
 936 20 934 23 930 26 c 0
 914 41 933 65 917 83 c 0
 901 101 918 109 902 126 c 0
 890 139 906 137 881 162 c 2
 870 173 l 1
 868 182 866 187 864 191 c 0
 862 195 796 262 786 270 c 0
 764 288 762 270 753 287 c 0
 751 291 737 306 734 308 c 0
 732 309 726 310 716 311 c 1
 703 325 703 325 691 324 c 0x2820
 670 322 667 333 667 333 c 0
 667 345 624 329 611 345 c 0
 605 352 606 352 541 352 c 2
 479 352 l 1
 474 350 471 349 468 345 c 0
 456 329 413 344 413 333 c 0x0420
780 -432 m 0
 772 -432 770 -434 759 -450 c 1x2840
 331 -450 l 1
 327 -442 322 -448 311 -438 c 0
 305 -433 300 -430 297 -430 c 0
 278 -430 255 -387 238 -387 c 0
 225 -387 199 -354 194 -344 c 0
 194 -344 180 -320 166 -306 c 2
 157 -297 l 1x8140
 145 -260 145 -277 140 -261 c 0
 135 -245 129 -244 125 -232 c 0
 120 -215 109 -208 109 -196 c 0x8080
 109 -188 94 -189 95 -162 c 0x81
 96 -140 95 -139 88 -130 c 0
 83 -124 80 -120 80 -66 c 0
 80 -1 81 30 82 32 c 0
 84 38 97 50 96 51 c 0
 96 51 91 87 101 97 c 0
 109 106 108 116 115 125 c 0
 126 140 121 143 130 154 c 0
 140 167 137 174 144 182 c 0
 163 204 135 188 176 229 c 0
 191 244 194 247 195 256 c 0
 197 268 200 272 211 280 c 0
 217 284 222 289 229 297 c 1
 247 300 247 300 270 322 c 0
 289 341 288 340 294 341 c 0
 312 344 309 356 325 356 c 0
 336 356 338 370 352 370 c 0
 364 370 367 384 383 384 c 0x92
 392 384 397 394 403 397 c 0
 421 404 437 391 451 405 c 0
 457 411 459 411 467 414 c 1
 542 414 l 1
 616 414 l 1x06
 625 411 629 402 638 399 c 1
 655 399 l 2
 676 400 675 400 690 386 c 1
 703 385 707 385 712 379 c 0
 716 374 720 372 725 372 c 0
 733 372 734 371 747 358 c 1
 763 356 763 357 775 344 c 1
 788 343 794 342 795 338 c 0
 833 301 l 0
 834 301 842 300 849 299 c 1
 857 292 l 2
 868 281 876 277 879 273 c 0
 881 271 885 261 885 256 c 0
 885 239 920 226 928 196 c 0
 931 186 937 186 941 173 c 0
 947 153 951 160 955 145 c 0
 961 125 965 131 970 116 c 0
 980 83 985 111 985 69 c 2
 985 50 l 1
 993 41 996 38 997 33 c 0
 999 27 1001 -52 1000 -91 c 0x0a20
 999 -119 998 -125 992 -132 c 0
 985 -140 984 -140 984 -158 c 0
 984 -178 983 -182 976 -189 c 0
 973 -192 971 -195 971 -196 c 0x0840
 971 -209 958 -217 954 -233 c 0
 950 -250 946 -239 939 -264 c 0
 935 -278 932 -268 925 -292 c 0
 922 -303 910 -311 900 -325 c 0
 886 -344 885 -343 881 -354 c 1
 866 -370 l 2
 848 -389 846 -389 838 -389 c 2
 832 -389 l 1
 812 -409 l 2
 790 -432 789 -432 780 -432 c 0
EndSplineSet
EndChar

StartChar: U
Encoding: 85 85 20
Width: 1097
VWidth: 853
Flags: W
HStem: -450 21G<106 182 914 992> -450 21G<106 182 914 992>
VStem: 106 76<-450 -423.431> 668 69<-211.339 -175.933>
LayerCount: 2
Fore
SplineSet
87 408 m 0xb0
 101 418 109 435 117 432 c 0
 118 432 211 334 212 334 c 0
 217 332 251 295 262 287 c 0
 274 278 276 276 280 270 c 0
 289 257 494 55 494 52 c 0
 494 52 507 41 520 28 c 0
 540 8 545 2 555 7 c 0
 556 7 603 52 603 52 c 0
 604 55 809 259 818 271 c 0
 823 277 889 337 889 338 c 0
 889 341 974 427 979 429 c 0
 985 432 989 430 995 423 c 0
 998 420 1003 414 1008 409 c 0
 1022 396 1022 395 989 362 c 0
 974 347 958 333 958 333 c 0
 958 330 929 305 923 295 c 0
 918 288 912 281 904 276 c 0
 901 274 678 52 675 50 c 0
 673 49 671 47 671 46 c 0
 671 45 596 -32 595 -33 c 0
 595 -33 590 -45 600 -52 c 0
 608 -58 617 -67 620 -71 c 0
 622 -75 737 -189 737 -191 c 0
 737 -192 740 -193 806 -259 c 0
 840 -293 871 -323 873 -324 c 0
 881 -329 947 -403 981 -433 c 0
 985 -437 992 -444 992 -450 c 0
 992 -450 975 -450 954 -450 c 2
 915 -450 l 1
 913 -439 810 -340 804 -336 c 0
 794 -329 792 -327 789 -320 c 0
 784 -309 670 -202 668 -196 c 0
 668 -195 645 -175 607 -137 c 2
 553 -83 l 1
 550 -83 l 2
 545 -83 543 -83 530 -97 c 0
 488 -140 429 -196 429 -196 c 0
 427 -202 314 -309 309 -319 c 0
 306 -324 298 -333 291 -337 c 0
 285 -341 209 -418 194 -432 c 0
 183 -442 182 -443 182 -450 c 1
 106 -450 l 1
 108 -444 108 -439 113 -435 c 0
 131 -421 216 -330 219 -328 c 0
 221 -327 361 -190 361 -190 c 0
 363 -185 470 -80 478 -69 c 0
 486 -58 506 -49 504 -37 c 0
 503 -34 422 50 421 51 c 0
 416 54 202 270 193 276 c 0
 177 286 182 290 155 316 c 0
 151 320 134 337 134 337 c 0
 133 337 84 384 81 393 c 0
 79 399 80 403 87 408 c 0xb0
EndSplineSet
EndChar

StartChar: V
Encoding: 86 86 21
Width: 1062
VWidth: 827
Flags: W
HStem: -450 21G<94.5 135 931 982> -450 21G<94.5 135 931 982>
VStem: 80 79<-438.891 -413.094> 135 39<-378.992 -333.742> 210 35<-225.125 -186.168> 684 41<23.375 50.9531> 931 51<-450 -427.6>
LayerCount: 2
Fore
SplineSet
123 -364 m 0xae
 123 -357 127 -352 135 -344 c 1
 134 -328 133 -327 141 -322 c 0
 149 -317 150 -316 153 -299 c 1
 179 -272 157 -282 172 -265 c 0
 183 -253 177 -248 184 -239 c 0
 186 -237 188 -235 188 -235 c 0
 193 -235 191 -218 201 -207 c 0
 204 -204 210 -198 210 -190 c 2
 210 -185 l 1
 235 -159 214 -167 228 -152 c 0
 243 -136 231 -136 245 -121 c 0
 255 -110 248 -104 258 -94 c 0
 263 -88 265 -83 265 -76 c 0
 265 -62 272 -65 279 -49 c 0
 286 -33 291 -38 295 -20 c 0
 298 -5 305 -9 308 9 c 0
 310 22 319 19 322 35 c 0
 326 53 331 45 333 53 c 0
 340 87 346 71 351 95 c 0
 354 109 360 102 366 125 c 0
 369 136 375 132 380 153 c 0
 383 163 390 164 394 180 c 0
 397 193 403 189 408 209 c 0
 412 224 417 217 423 239 c 0
 426 250 435 250 435 265 c 0
 435 279 441 276 449 293 c 0
 456 307 460 306 464 320 c 0
 470 343 474 328 477 342 c 0
 483 370 486 356 493 377 c 0
 499 395 503 390 507 406 c 0
 510 417 512 419 526 421 c 0
 547 424 552 416 554 408 c 0
 559 390 564 394 567 383 c 0
 573 361 578 368 582 352 c 0
 585 342 586 342 586 339 c 0
 586 334 592 338 596 325 c 0
 603 300 626 283 626 267 c 0
 626 251 640 246 640 234 c 0
 640 226 651 223 654 209 c 0
 659 189 664 197 668 180 c 0
 673 159 678 168 681 154 c 0
 687 125 689 150 697 117 c 0
 699 110 708 107 710 96 c 0
 714 74 725 79 725 64 c 0
 725 52 739 47 739 36 c 0
 739 25 751 22 753 10 c 0
 757 -13 764 -2 767 -18 c 0
 771 -36 775 -30 783 -48 c 0
 787 -58 790 -60 797 -67 c 1
 798 -86 797 -86 804 -93 c 0
 814 -103 804 -107 817 -120 c 0
 831 -135 819 -139 832 -150 c 0
 839 -156 839 -166 839 -166 c 0
 839 -176 856 -184 852 -191 c 0
 848 -197 867 -209 867 -220 c 0
 867 -236 879 -229 882 -250 c 0
 884 -266 896 -263 896 -280 c 0
 896 -294 908 -286 910 -306 c 0
 913 -329 928 -314 926 -337 c 2
 926 -344 l 1
 936 -354 938 -356 938 -363 c 0
 938 -370 939 -372 951 -384 c 1
 954 -402 954 -402 960 -407 c 0
 965 -411 967 -416 967 -423 c 2
 967 -427 l 1
 980 -440 980 -440 982 -450 c 1
 931 -450 l 1
 931 -448 l 2
 931 -445 929 -442 924 -436 c 0
 913 -424 923 -422 911 -410 c 0
 896 -394 912 -396 896 -380 c 0
 884 -368 896 -365 881 -352 c 0
 874 -345 875 -335 868 -329 c 0
 857 -319 869 -311 854 -295 c 0
 840 -280 853 -278 839 -266 c 0
 830 -258 836 -250 826 -239 c 0
 814 -226 822 -221 812 -210 c 0
 798 -196 812 -197 797 -181 c 0
 785 -168 796 -166 782 -152 c 0
 772 -142 780 -136 769 -124 c 0
 757 -111 765 -108 754 -95 c 0
 742 -82 753 -80 739 -67 c 0
 732 -60 730 -58 730 -50 c 0
 730 -33 725 -50 717 -19 c 0
 714 -5 710 -20 703 9 c 0
 701 17 693 18 690 33 c 0
 688 41 684 46 684 48 c 0
 684 49 683 50 681 51 c 0
 674 55 679 64 669 76 c 0
 665 81 661 89 661 93 c 0
 661 100 652 103 648 117 c 0
 642 138 637 132 634 143 c 0
 628 165 624 158 620 173 c 0
 615 192 610 188 606 201 c 0
 599 224 595 216 591 231 c 0
 586 250 581 244 577 259 c 0
 570 285 564 266 559 296 c 0
 558 302 550 306 547 318 c 0
 537 354 521 338 521 334 c 0
 521 330 505 299 504 294 c 0
 501 272 492 283 485 259 c 0
 482 248 476 245 471 229 c 0
 467 218 463 219 457 201 c 0
 453 189 447 189 442 173 c 0
 439 162 433 159 429 144 c 0
 426 134 420 132 415 116 c 0
 412 105 406 107 401 89 c 0
 397 76 391 77 386 58 c 0
 383 48 378 52 378 48 c 0
 378 44 339 -35 338 -36 c 0
 333 -43 332 -44 331 -60 c 1
 324 -67 l 2
 310 -81 318 -82 309 -94 c 0
 295 -112 309 -105 292 -127 c 0
 285 -136 290 -141 281 -152 c 0
 271 -164 276 -170 267 -180 c 0
 251 -199 263 -196 252 -209 c 0
 248 -213 245 -219 245 -221 c 0
 245 -233 233 -238 230 -253 c 0
 226 -271 219 -262 215 -283 c 0
 212 -297 201 -297 201 -312 c 0
 201 -331 174 -356 174 -364 c 0x9e
 174 -377 159 -384 159 -396 c 0
 159 -407 149 -405 145 -426 c 0
 144 -434 139 -432 131 -450 c 1
 105 -450 l 2
 84 -450 80 -450 80 -449 c 0
 80 -437 92 -438 95 -419 c 2
 96 -413 l 1
 108 -401 107 -401 110 -385 c 1
 118 -377 123 -371 123 -364 c 0xae
EndSplineSet
EndChar

StartChar: W
Encoding: 87 87 22
Width: 1080
VWidth: 832
Flags: W
HStem: -450 57<668.003 754.417> -450 42<367.094 402.629> -450 28<403.461 473.674 475.016 674.03> -450 15<466.887 611.185> -425 61<743.371 795.918> 282 67<743.125 800.327> 315 48<719.462 733> 344 48<688 705.719> 358 62<464.325 669.172>
VStem: 80 62<-123.859 87.9075> 95 61<-190.712 -124.094> 109 74<-215.491 -191.423> 938 60<-131.764 36>
LayerCount: 2
Fore
SplineSet
664 341 m 0x0218
 664 345 651 345 640 344 c 0x0118
 616 343 616 342 604 358 c 1
 545 358 l 2x0098
 512 358 484 359 482 359 c 0
 473 361 471 350 464 345 c 0
 461 343 458 343 435 344 c 2x0118
 420 345 l 1
 414 340 409 335 408 333 c 0
 401 319 386 342 370 323 c 0
 363 315 362 314 347 316 c 1
 340 308 l 2
 329 297 328 290 324 286 c 0
 321 283 321 283 304 282 c 1
 286 270 216 199 214 193 c 0
 210 179 210 179 198 166 c 0
 173 140 193 147 178 131 c 0
 172 124 170 122 170 110 c 0
 170 98 169 95 164 89 c 0
 146 71 166 47 149 31 c 0
 143 25 141 24 143 -59 c 0
 143 -63 142 -75 142 -84 c 2x0448
 141 -101 l 1
 156 -116 156 -116 156 -138 c 0x0428
 156 -159 156 -160 163 -165 c 0
 169 -170 172 -185 169 -191 c 0
 164 -200 183 -210 183 -221 c 0
 183 -234 205 -251 205 -251 c 0
 214 -258 211 -267 214 -273 c 0
 216 -276 260 -321 267 -326 c 0
 289 -343 277 -337 291 -351 c 0
 296 -356 298 -359 302 -364 c 1
 309 -364 l 2x0c18
 318 -364 322 -366 326 -372 c 0
 331 -379 336 -379 340 -386 c 0
 350 -401 358 -386 367 -398 c 0
 369 -401 371 -404 375 -408 c 1
 381 -408 l 2
 393 -408 395 -406 403 -408 c 0x4018
 413 -411 412 -421 418 -422 c 0
 422 -423 458 -421 461 -422 c 0x2018
 463 -423 467 -428 474 -435 c 1
 539 -435 l 2x1018
 607 -435 606 -435 611 -428 c 0
 615 -422 616 -422 641 -422 c 2
 662 -422 l 1x2018
 665 -419 667 -418 668 -415 c 0
 678 -395 699 -419 711 -400 c 0
 716 -392 718 -393 734 -393 c 1x8018
 759 -364 763 -364 771 -364 c 2
 777 -364 l 1
 794 -342 792 -350 796 -342 c 0
 800 -334 823 -319 826 -314 c 0
 829 -309 839 -303 839 -302 c 0
 839 -298 868 -279 868 -264 c 0
 868 -252 893 -237 895 -227 c 0
 897 -212 898 -213 906 -206 c 0
 915 -198 906 -198 912 -170 c 1
 923 -160 924 -158 924 -151 c 0
 923 -117 924 -115 932 -108 c 0
 939 -102 939 -100 938 -79 c 0
 934 -21 945 17 931 32 c 0
 913 51 935 70 915 90 c 0
 901 104 917 117 901 132 c 0
 889 144 905 141 881 166 c 0
 875 172 866 181 866 190 c 0
 866 199 792 271 776 282 c 1x0c18
 756 283 757 284 751 294 c 0
 749 298 744 303 740 307 c 2
 733 315 l 1
 727 315 l 2
 704 315 714 333 695 330 c 0
 678 328 674 328 671 334 c 0
 669 339 664 339 664 341 c 0x0218
754 -439 m 0
 744 -439 744 -441 742 -450 c 1x8048
 337 -450 l 1
 337 -447 l 2
 337 -440 333 -439 315 -438 c 1
 304 -426 303 -425 295 -426 c 0
 289 -427 285 -425 282 -420 c 0
 279 -415 248 -385 245 -383 c 0
 239 -380 232 -388 224 -376 c 0
 216 -364 198 -353 194 -341 c 0
 188 -323 187 -331 181 -320 c 0
 170 -298 155 -308 150 -273 c 1
 123 -245 148 -256 131 -239 c 0
 124 -232 124 -231 122 -216 c 1
 111 -205 109 -203 109 -196 c 0x1018
 109 -191 106 -184 102 -181 c 0
 96 -176 95 -174 95 -152 c 2
 95 -133 l 1x1028
 92 -128 90 -126 87 -124 c 0
 83 -121 79 -118 80 -59 c 0
 81 26 82 34 83 39 c 0
 84 44 88 48 91 48 c 0
 101 48 87 91 102 105 c 0
 115 118 106 122 117 134 c 0
 129 146 120 150 131 162 c 0
 144 176 136 184 145 190 c 0
 151 194 152 200 155 215 c 1
 174 233 l 2
 195 254 194 253 197 274 c 1
 212 287 216 288 225 298 c 2
 231 305 l 1
 237 305 242 306 248 306 c 1
 262 320 l 2
 262 320 282 338 282 339 c 0
 282 341 285 344 289 348 c 1
 295 348 300 349 306 349 c 1
 311 356 311 356 316 362 c 1
 334 363 334 363 339 369 c 0
 352 387 357 368 368 384 c 0
 381 402 382 380 398 400 c 0
 411 417 438 393 454 413 c 0
 456 416 459 418 460 419 c 0
 461 420 490 420 540 420 c 0x14c8
 627 420 620 420 626 412 c 0
 639 393 667 419 683 398 c 2
 688 392 l 1x0148
 694 392 700 391 706 391 c 1
 712 384 713 382 718 376 c 1
 750 380 730 363 753 363 c 0x0248
 775 363 763 349 781 349 c 0
 799 349 796 338 802 335 c 0
 805 333 828 311 828 309 c 0
 828 307 834 306 839 306 c 0
 847 306 851 304 855 298 c 0
 867 281 882 285 884 264 c 0
 886 239 922 230 927 203 c 0
 930 190 936 194 940 178 c 0
 945 155 951 168 955 148 c 0
 959 130 966 137 969 119 c 0
 973 96 986 118 985 69 c 0
 985 34 989 59 996 41 c 2
 998 36 l 1
 999 -10 l 2
 1000 -54 1000 -103 998 -115 c 0
 997 -120 988 -127 986 -132 c 0
 982 -143 991 -167 978 -181 c 0
 963 -197 977 -197 963 -211 c 0
 952 -222 962 -227 949 -239 c 0
 932 -255 957 -245 929 -272 c 1
 927 -289 927 -289 913 -302 c 0
 907 -308 890 -324 884 -346 c 1
 871 -359 l 2
 871 -359 851 -381 850 -381 c 0
 848 -382 843 -382 834 -382 c 1
 817 -400 l 2
 807 -411 801 -416 793 -425 c 1x0c48
 775 -425 775 -425 770 -432 c 0
 765 -438 763 -439 754 -439 c 0
EndSplineSet
EndChar

StartChar: X
Encoding: 88 88 23
Width: 1082
VWidth: 845
Flags: W
HStem: -450 21G<106 184 899.5 977> -450 21G<106 184 899.5 977>
VStem: 901 76<-450 -424.01>
LayerCount: 2
Fore
SplineSet
80 397 m 1xa0
 83 405 109 433 119 430 c 0
 120 430 208 340 208 339 c 0
 208 337 212 333 214 333 c 0
 215 333 251 296 265 285 c 0
 271 280 277 274 281 269 c 0
 290 257 494 55 494 53 c 0
 494 53 534 14 538 12 c 0
 550 6 573 43 584 48 c 0
 585 49 584 49 690 155 c 0
 745 210 793 259 797 264 c 0
 819 290 812 278 848 314 c 0
 860 326 874 338 874 338 c 0
 874 339 893 359 917 383 c 0
 964 430 964 430 972 428 c 0
 979 426 1000 402 1001 401 c 0
 1003 398 1002 395 1000 390 c 0
 996 381 944 334 944 333 c 0
 944 330 917 305 910 295 c 0
 904 286 900 283 892 277 c 0
 887 273 665 52 662 51 c 0
 661 51 651 39 620 8 c 0
 600 -13 583 -31 582 -33 c 0
 578 -40 581 -48 589 -54 c 0
 595 -59 602 -64 608 -72 c 0
 616 -82 723 -188 723 -191 c 0
 723 -191 858 -324 860 -325 c 0
 868 -331 871 -334 877 -342 c 0
 882 -349 953 -421 965 -431 c 0
 973 -438 977 -444 977 -448 c 2
 977 -450 l 1
 939 -450 l 1
 901 -450 l 1
 898 -444 897 -441 892 -436 c 0
 891 -435 799 -342 789 -336 c 0
 781 -330 777 -327 772 -319 c 0
 772 -318 651 -193 649 -192 c 0
 647 -191 625 -169 596 -140 c 0
 542 -86 545 -88 537 -92 c 0
 532 -94 439 -190 434 -192 c 0
 433 -193 342 -287 318 -309 c 0
 310 -316 310 -325 294 -336 c 0
 282 -344 198 -431 191 -436 c 0
 187 -439 186 -442 182 -450 c 1
 157 -450 131 -450 106 -450 c 1
 108 -441 109 -439 115 -434 c 0
 115 -434 202 -351 209 -338 c 0
 210 -337 232 -318 292 -258 c 0
 354 -196 360 -192 360 -191 c 0
 361 -187 500 -49 501 -47 c 0
 507 -37 505 -36 462 8 c 0
 459 11 205 267 195 274 c 0
 172 289 184 286 155 315 c 0
 144 326 135 337 135 337 c 0
 134 337 85 381 80 397 c 1xa0
EndSplineSet
EndChar

StartChar: Y
Encoding: 89 89 24
Width: 1090
VWidth: 834
Flags: W
HStem: -450 21G<80 155.5 947 1010> -450 21G<80 155.5 947 1010>
VStem: 80 75<-450 -407.605> 95 75<-449.08 -377.971> 123 61<-408.423 -345.557> 136 79<-344.308 -294.247> 648 47<148.954 189.828> 877 60<-332.812 -266.399> 905 61<-393.754 -326.663> 947 47<-449.891 -408.535>
LayerCount: 2
Fore
SplineSet
251 -111 m 0x86
 251 -96 265 -94 265 -81 c 0
 265 -64 274 -67 280 -48 c 0
 282 -41 292 -33 293 -29 c 0
 300 3 303 -19 309 7 c 0
 313 24 319 16 323 37 c 0
 324 43 328 48 331 48 c 0
 335 48 335 68 343 76 c 0
 354 87 348 97 357 105 c 0
 367 115 362 121 372 133 c 0
 383 146 376 151 387 163 c 0
 398 175 390 179 401 191 c 0
 411 203 405 208 414 218 c 0
 426 232 418 236 429 248 c 0
 441 261 430 266 443 280 c 0
 451 289 449 295 457 304 c 0
 470 318 463 328 475 334 c 0
 476 335 477 336 477 337 c 0
 477 354 493 367 493 373 c 0
 493 385 504 390 506 403 c 0
 509 425 518 418 530 407 c 1
 541 405 l 2
 555 403 557 404 563 411 c 0
 571 421 576 417 585 408 c 2
 593 401 l 1
 595 392 599 377 602 377 c 0
 608 377 606 359 617 347 c 0
 625 339 620 331 631 319 c 0
 641 308 633 301 646 291 c 0
 658 281 647 278 660 263 c 0
 669 253 662 247 673 235 c 0
 684 223 675 219 687 206 c 0
 689 204 695 198 695 188 c 0
 695 181 706 179 708 167 c 0
 714 137 716 164 724 130 c 0
 727 117 732 131 739 101 c 0
 740 98 743 93 750 86 c 1
 753 69 753 68 760 62 c 0
 769 54 762 46 773 35 c 0
 785 23 775 19 788 6 c 0
 799 -5 790 -14 802 -23 c 0
 814 -32 803 -42 817 -52 c 0
 822 -56 824 -59 824 -66 c 0
 824 -82 835 -71 838 -96 c 0
 839 -101 838 -102 850 -114 c 1
 853 -132 853 -132 860 -138 c 0
 871 -147 861 -152 873 -164 c 0
 886 -177 876 -189 888 -195 c 0
 899 -200 887 -208 903 -223 c 0
 918 -237 894 -230 921 -256 c 1
 924 -275 924 -274 930 -279 c 0
 935 -283 937 -287 937 -294 c 0x87
 937 -307 952 -309 952 -323 c 0
 952 -332 966 -332 966 -350 c 0x8280
 966 -368 980 -362 980 -381 c 0
 980 -393 994 -392 994 -407 c 0
 994 -426 1007 -414 1009 -443 c 2
 1010 -450 l 1
 947 -450 l 1
 947 -448 l 2x8240
 947 -439 933 -436 933 -421 c 0
 933 -416 932 -414 926 -409 c 0
 914 -399 926 -394 913 -381 c 0
 907 -375 905 -371 905 -365 c 0x8280
 905 -352 895 -355 891 -340 c 0
 887 -326 877 -326 877 -312 c 0
 877 -305 876 -300 870 -295 c 0
 857 -282 869 -279 856 -267 c 0
 843 -254 853 -252 841 -239 c 0
 834 -232 835 -232 833 -217 c 1
 822 -206 820 -204 820 -197 c 0
 820 -182 808 -188 804 -163 c 0
 802 -152 794 -155 791 -136 c 0
 789 -121 780 -128 777 -108 c 0
 775 -93 766 -97 763 -83 c 0
 758 -58 750 -76 747 -50 c 0
 746 -38 734 -35 734 -25 c 0
 734 -12 722 -11 720 6 c 0
 718 19 705 21 705 35 c 0
 705 43 694 50 692 58 c 0
 687 83 679 72 676 92 c 0
 674 105 666 99 662 120 c 0
 660 131 648 137 648 149 c 0
 648 157 638 159 635 174 c 0
 629 199 627 177 619 208 c 0
 617 217 608 218 606 233 c 0
 604 248 596 244 592 260 c 0
 587 282 578 271 575 291 c 0
 573 306 568 300 564 316 c 0
 562 325 551 345 540 338 c 0
 535 334 543 328 532 315 c 0
 521 301 528 293 518 282 c 0
 508 271 477 204 476 203 c 0
 465 190 471 186 462 175 c 0
 450 161 458 158 447 145 c 0
 437 133 442 127 432 116 c 0
 423 106 427 99 418 88 c 0
 409 78 413 69 406 61 c 0
 400 54 397 50 397 47 c 0
 397 35 385 28 384 22 c 0
 378 -7 374 11 368 -13 c 0
 364 -29 356 -25 354 -41 c 0
 353 -49 351 -56 347 -60 c 0
 342 -66 339 -77 334 -82 c 0
 322 -93 331 -97 318 -111 c 0
 308 -122 315 -128 304 -140 c 0
 293 -152 302 -156 290 -169 c 0
 281 -179 286 -187 279 -192 c 0
 277 -193 276 -195 276 -196 c 0
 276 -199 272 -200 271 -205 c 0
 267 -220 267 -220 263 -225 c 0
 250 -239 260 -239 247 -254 c 0
 237 -266 245 -269 233 -282 c 0
 218 -299 239 -288 215 -315 c 1
 215 -321 l 2x87
 215 -330 215 -330 199 -345 c 1
 197 -357 197 -361 191 -367 c 0
 187 -372 184 -377 184 -380 c 0x8a
 184 -392 170 -400 170 -407 c 0x92
 170 -413 166 -420 162 -425 c 0
 155 -432 156 -432 155 -450 c 1
 80 -450 l 1xa2
 86 -430 95 -434 95 -421 c 0x92
 95 -408 106 -410 108 -395 c 0
 111 -375 123 -380 123 -366 c 0x8a
 123 -351 136 -354 136 -336 c 0
 136 -317 149 -328 151 -309 c 0
 154 -288 163 -299 165 -280 c 0
 167 -262 177 -266 179 -256 c 0
 187 -222 189 -249 195 -220 c 0
 197 -209 211 -201 210 -192 c 0
 209 -180 220 -182 222 -166 c 0
 224 -150 234 -152 236 -142 c 0
 239 -129 239 -129 243 -124 c 0
 248 -119 251 -115 251 -111 c 0x86
EndSplineSet
EndChar

StartChar: Z
Encoding: 90 90 25
Width: 1080
VWidth: 833
Flags: W
HStem: -450 43<611.633 738.572> -450 15<472.993 611.998> -440 76<304.555 338.836> -439 47<742.048 753.551> -382 58<812.75 835.621> 330 63<346.739 420.4> 343 63<421 460.951 616.141 656> 357 62<421.266 632.49>
VStem: 82 60<-166.788 88.2853> 936 63<-133.265 39.7238>
LayerCount: 2
Fore
SplineSet
421 345 m 1x01c0
 408 334 408 334 408 333 c 0
 408 327 382 331 379 330 c 0
 371 328 370 316 354 316 c 0
 340 316 329 295 329 295 c 0
 324 286 323 285 314 284 c 0
 301 283 300 281 256 238 c 0
 216 198 215 198 214 191 c 0
 211 173 189 162 186 152 c 0
 182 138 183 137 179 133 c 0
 161 114 179 104 163 89 c 0
 147 74 164 43 149 32 c 0
 146 30 144 26 142 21 c 1
 142 -28 l 2
 142 -55 142 -81 142 -87 c 0
 139 -123 158 -91 156 -140 c 0
 155 -157 157 -160 163 -166 c 0
 183 -183 153 -188 181 -213 c 1
 185 -232 185 -231 198 -244 c 2
 211 -257 l 1
 213 -266 213 -272 214 -274 c 0
 218 -281 281 -337 283 -341 c 0
 285 -344 290 -350 295 -355 c 2
 304 -364 l 1x24c0
 309 -364 315 -366 320 -366 c 1
 329 -375 337 -384 346 -393 c 1
 359 -393 363 -393 369 -401 c 0
 382 -419 393 -396 412 -416 c 2
 418 -422 l 1
 437 -422 l 2
 460 -422 462 -422 468 -428 c 0
 475 -434 474 -435 538 -435 c 0x40c0
 607 -435 604 -436 612 -428 c 0
 628 -413 652 -432 667 -415 c 0
 673 -408 677 -407 690 -407 c 0x80c0
 703 -407 704 -407 711 -400 c 0
 716 -395 722 -392 728 -392 c 0
 732 -392 736 -390 739 -385 c 0
 743 -379 752 -366 776 -363 c 1
 785 -354 l 2
 803 -335 790 -341 812 -324 c 0
 813 -324 866 -277 866 -267 c 0
 866 -257 871 -253 874 -250 c 0
 877 -247 883 -241 887 -237 c 2
 894 -229 l 1
 896 -214 896 -213 902 -207 c 0
 918 -190 899 -180 916 -165 c 0
 934 -149 912 -126 930 -108 c 0
 946 -91 930 -77 935 -50 c 0
 936 -43 936 -37 936 -11 c 2
 936 21 l 1
 929 35 926 34 924 40 c 0
 920 54 928 74 915 88 c 0
 899 105 917 111 900 131 c 0
 887 147 903 141 880 165 c 0
 868 177 867 179 865 187 c 0
 864 190 863 194 862 196 c 0
 860 201 788 272 781 277 c 0
 766 287 763 275 749 295 c 0
 729 324 726 306 709 322 c 0
 692 338 676 321 671 334 c 0
 670 336 670 336 656 344 c 1
 640 343 l 2x1ac0
 619 342 617 344 609 351 c 0
 605 354 602 357 601 357 c 0
 596 358 478 358 476 357 c 0
 475 356 472 354 470 351 c 0
 464 344 459 343 438 344 c 2
 421 345 l 1x01c0
305 350 m 1
 316 362 318 364 327 364 c 0
 334 364 334 364 346 377 c 1
 362 378 363 378 369 385 c 0
 374 391 378 393 387 393 c 2
 391 393 l 1x24c0
 404 407 404 407 425 406 c 0x02c0
 445 405 446 406 453 413 c 0
 456 416 460 418 461 419 c 0
 465 421 613 420 616 419 c 0x01c0
 619 418 622 416 633 406 c 1
 651 406 l 2
 673 406 675 405 682 398 c 0
 688 393 692 391 697 391 c 0
 708 391 715 378 720 377 c 0
 734 374 734 374 740 369 c 0
 754 355 754 368 768 355 c 0
 782 342 795 351 797 339 c 0
 798 334 803 335 808 329 c 0
 809 328 828 308 835 306 c 0
 849 303 849 303 855 297 c 0
 858 294 865 287 871 283 c 2
 881 276 l 1
 882 270 883 266 883 263 c 0
 883 255 885 253 904 233 c 2
 923 214 l 1
 928 196 928 196 933 190 c 0
 941 181 936 176 947 162 c 0
 957 149 950 146 962 132 c 0
 971 122 964 118 976 104 c 0
 993 85 976 55 989 48 c 0
 1006 39 994 -25 999 -52 c 0
 1000 -56 997 -114 997 -115 c 0
 995 -122 993 -118 984 -134 c 1
 984 -153 l 2
 984 -173 983 -174 977 -180 c 0
 964 -192 974 -198 964 -208 c 0
 959 -213 956 -217 956 -220 c 0
 956 -236 944 -236 942 -250 c 0
 939 -269 930 -263 928 -279 c 0
 926 -298 906 -304 899 -318 c 0
 894 -328 890 -325 885 -341 c 0
 884 -345 855 -382 841 -382 c 0
 824 -382 801 -425 786 -425 c 0
 771 -425 769 -439 752 -439 c 0x1ac0
 746 -439 743 -446 742 -450 c 1
 539 -450 l 2x40c0
 362 -450 337 -450 337 -449 c 0
 337 -447 336 -440 325 -440 c 0
 317 -440 316 -439 304 -427 c 1
 295 -427 287 -427 282 -421 c 0
 281 -419 272 -410 263 -401 c 2
 246 -384 l 1
 228 -383 228 -382 224 -376 c 0
 216 -366 198 -353 195 -343 c 0
 189 -326 185 -330 180 -320 c 0
 179 -317 174 -311 166 -303 c 2
 154 -290 l 1
 153 -284 151 -280 151 -278 c 0
 151 -270 141 -269 138 -256 c 0
 136 -246 135 -244 131 -240 c 0
 120 -230 128 -223 116 -210 c 0
 103 -196 117 -198 102 -182 c 0
 85 -164 105 -141 87 -124 c 0
 85 -122 83 -119 82 -118 c 0
 79 -111 80 30 83 40 c 0
 84 44 85 47 88 48 c 0
 105 56 85 89 103 106 c 0
 116 118 106 121 118 135 c 0
 132 150 121 155 131 163 c 0
 137 167 138 171 141 187 c 1
 148 194 152 199 152 199 c 0
 152 199 153 204 155 214 c 1
 173 233 l 2
 195 255 195 256 195 262 c 0
 195 275 196 275 213 288 c 0
 218 292 224 297 226 299 c 0
 230 304 235 307 242 307 c 0
 247 307 253 310 253 312 c 0
 253 315 281 338 282 340 c 0
 286 347 290 350 300 350 c 2
 305 350 l 1
EndSplineSet
EndChar

StartChar: a
Encoding: 97 97 26
Width: 1082
VWidth: 845
Flags: W
HStem: -450 21G<105 185 898 976> -450 21G<105 185 898 976>
VStem: 424 69<32.5977 65.915>
LayerCount: 2
Fore
SplineSet
874 339 m 0xa0
 874 339 961 429 962 430 c 0
 967 432 970 431 983 419 c 0
 999 403 1000 403 1002 397 c 1
 999 388 999 388 974 363 c 0
 914 303 912 301 907 293 c 0
 902 285 898 282 887 275 c 0
 878 269 668 56 662 52 c 0
 661 51 582 -31 581 -32 c 0
 574 -43 585 -51 591 -56 c 0
 593 -58 726 -195 726 -195 c 0
 728 -196 853 -321 861 -327 c 0
 874 -337 871 -337 882 -349 c 0
 894 -362 963 -431 967 -434 c 0
 973 -439 974 -441 976 -450 c 1
 951 -450 925 -450 900 -450 c 1
 896 -442 895 -439 891 -436 c 0
 884 -431 800 -344 788 -336 c 0
 772 -325 772 -316 764 -309 c 0
 740 -287 649 -193 648 -192 c 0
 643 -190 550 -93 545 -91 c 0
 537 -87 540 -85 486 -140 c 0
 433 -193 429 -194 429 -195 c 0
 429 -198 315 -310 310 -319 c 0
 306 -327 302 -330 293 -336 c 0
 292 -337 189 -431 181 -450 c 1
 143 -450 l 1
 105 -450 l 1
 105 -448 l 2
 105 -444 109 -438 117 -431 c 0
 129 -421 200 -349 205 -342 c 0
 211 -334 214 -330 222 -324 c 0
 224 -323 359 -191 359 -191 c 0
 359 -188 466 -82 474 -72 c 0
 480 -64 487 -59 493 -54 c 0
 501 -48 504 -40 500 -33 c 0
 498 -29 425 45 424 48 c 0
 424 49 422 50 420 51 c 0
 417 52 195 273 190 277 c 0
 172 289 181 290 153 317 c 0
 143 327 134 337 134 337 c 0
 129 339 84 385 82 390 c 0
 78 399 80 402 94 416 c 0
 103 425 107 427 110 428 c 0
 118 430 118 430 165 383 c 0
 202 346 211 334 212 334 c 0
 217 332 248 299 261 288 c 0
 271 280 274 277 285 264 c 0
 291 256 492 56 493 53 c 0
 493 52 537 11 538 11 c 0
 546 9 588 52 588 53 c 0
 588 55 792 258 801 270 c 0
 810 282 816 281 847 313 c 0
 858 324 867 333 868 333 c 0
 870 333 874 337 874 339 c 0xa0
EndSplineSet
EndChar

StartChar: b
Encoding: 98 98 27
Width: 1089
VWidth: 836
Flags: W
HStem: -450 21G<80 154 947 1009> -450 21G<80 154 947 1009> 337 68<544.142 564.27>
VStem: 80 74<-450 -408.307> 94 60<-448.992 -396.378> 151 62<-350.942 -281.117> 265 74<-109.9 -37.9844> 690 74<18.9616 69> 747 62<-78.9989 -9.0045> 905 61<-393.689 -327.759> 947 62<-450 -409.812>
LayerCount: 2
Fore
SplineSet
136 -335 m 0xaa
 136 -319 151 -324 151 -309 c 0
 151 -291 162 -301 166 -277 c 2
 167 -270 l 1
 179 -259 179 -260 180 -252 c 0
 183 -232 191 -243 194 -223 c 0
 197 -205 213 -201 210 -191 c 0
 208 -182 221 -182 223 -166 c 0
 226 -145 234 -157 237 -137 c 0
 240 -116 249 -127 251 -111 c 0
 254 -87 265 -98 265 -78 c 0
 265 -62 274 -69 280 -50 c 0
 286 -31 291 -41 294 -23 c 0
 298 -1 303 -17 308 6 c 2
 310 14 l 1
 317 21 321 26 321 26 c 0
 321 26 322 45 330 48 c 0
 340 52 333 69 343 76 c 0
 349 80 350 85 353 101 c 1
 377 124 357 118 372 133 c 0
 384 145 377 155 386 162 c 0
 396 170 391 182 400 190 c 0
 412 201 405 209 414 218 c 0
 426 229 418 236 429 248 c 0
 443 262 431 269 443 278 c 0
 453 286 449 294 458 304 c 0
 470 317 464 331 474 333 c 0
 480 335 478 353 486 361 c 0
 496 370 491 379 500 389 c 0
 514 404 503 412 511 418 c 0
 520 424 527 406 531 405 c 0
 534 404 558 404 559 405 c 0
 560 405 562 409 564 412 c 0
 570 421 574 421 580 414 c 0
 612 372 580 398 607 371 c 1
 611 353 611 353 617 347 c 0
 622 342 624 330 624 330 c 0
 624 323 634 321 637 308 c 0
 643 284 649 291 651 282 c 0
 658 248 661 272 666 249 c 0
 671 225 677 241 681 218 c 0
 683 204 691 206 694 193 c 0
 699 169 705 182 708 166 c 0
 713 142 723 147 723 134 c 0
 723 129 726 125 730 120 c 0
 742 108 733 104 745 92 c 0
 758 80 746 75 759 62 c 0
 764 57 764 56 764 52 c 0xa7
 763 43 777 32 779 24 c 0
 785 -6 791 13 794 -9 c 0
 796 -24 809 -24 809 -41 c 0
 809 -51 824 -51 824 -66 c 0
 824 -82 835 -74 838 -95 c 0
 840 -112 849 -103 852 -123 c 0
 853 -131 853 -131 864 -141 c 1
 867 -160 867 -161 874 -167 c 0
 885 -176 876 -190 888 -195 c 0
 898 -199 890 -215 902 -223 c 0
 917 -233 893 -231 921 -257 c 1
 924 -273 925 -276 931 -280 c 0
 935 -283 937 -288 937 -294 c 0
 937 -307 947 -306 951 -320 c 0
 957 -343 966 -330 966 -350 c 0xa2c0
 966 -370 977 -357 980 -379 c 0
 983 -401 992 -385 995 -411 c 0
 997 -428 1009 -419 1009 -443 c 2
 1009 -450 l 1
 947 -450 l 1
 947 -448 l 2xa220
 947 -445 945 -442 940 -436 c 0
 929 -424 938 -421 927 -411 c 0
 913 -398 925 -392 913 -382 c 0
 909 -378 905 -372 905 -366 c 0
 905 -355 894 -353 891 -342 c 0
 886 -322 879 -332 877 -312 c 0
 875 -291 865 -301 862 -280 c 0
 860 -261 852 -275 848 -249 c 0
 847 -245 845 -243 836 -233 c 1
 835 -227 833 -222 832 -216 c 1
 808 -191 830 -199 813 -182 c 0
 806 -175 805 -164 805 -164 c 0
 805 -153 795 -159 791 -135 c 0
 789 -125 779 -127 776 -108 c 0
 774 -94 766 -99 763 -81 c 0
 761 -66 747 -68 747 -50 c 0xa2c0
 747 -37 738 -45 734 -21 c 0
 732 -12 723 -13 720 6 c 0
 718 17 709 15 706 34 c 0
 704 44 690 54 690 69 c 0
 690 69 686 74 679 81 c 1
 678 87 677 92 676 98 c 1
 654 122 670 117 657 131 c 0
 644 145 654 148 642 160 c 0
 631 171 638 176 628 188 c 0
 617 201 624 205 613 218 c 0
 602 231 611 233 600 245 c 0
 586 260 597 264 584 275 c 0
 572 285 580 292 570 304 c 0
 568 306 555 337 553 337 c 0
 552 337 547 343 544 343 c 0
 535 343 543 330 532 317 c 0
 519 302 530 297 518 284 c 0
 510 276 512 270 504 261 c 0
 490 246 501 245 489 232 c 0
 479 221 486 215 475 203 c 0
 464 191 472 185 462 175 c 0
 449 161 458 159 447 147 c 0
 435 134 442 128 433 118 c 0
 421 105 429 101 419 90 c 0
 406 77 416 73 405 61 c 0
 399 55 396 51 396 47 c 0
 396 35 385 29 384 23 c 0
 377 -10 372 9 369 -10 c 0
 366 -30 357 -19 354 -43 c 0
 352 -59 339 -64 339 -74 c 0
 339 -81 330 -75 325 -98 c 0
 322 -111 314 -108 312 -122 c 0
 308 -143 297 -139 297 -152 c 0
 297 -166 286 -162 282 -183 c 0
 280 -194 274 -193 274 -196 c 0
 274 -197 269 -203 269 -206 c 0
 269 -223 254 -226 254 -239 c 0
 254 -249 242 -255 241 -265 c 0
 238 -287 226 -281 226 -294 c 0
 226 -308 213 -307 213 -322 c 0xa7
 213 -342 201 -333 198 -351 c 0
 195 -373 186 -365 184 -378 c 0
 180 -403 171 -391 169 -410 c 0
 166 -432 154 -419 154 -443 c 2
 154 -450 l 1
 80 -450 l 1xb2
 85 -428 94 -438 94 -425 c 0
 94 -406 107 -412 109 -394 c 0
 112 -371 119 -388 123 -363 c 2
 124 -356 l 1
 133 -347 136 -345 136 -335 c 0xaa
EndSplineSet
EndChar

StartChar: c
Encoding: 99 99 28
Width: 1069
VWidth: 829
Flags: W
HStem: -450 57<301.573 372.459 697.022 765.921> 372 48<399.979 622.17>
VStem: 83 49<-157.734 47.8064> 97 49<48.0499 131.906> 126 34<110.912 153.729> 936 49<-165.511 -59.6944 -58.3531 57.9055>
LayerCount: 2
Fore
SplineSet
695 338 m 0xcc
 695 338 682 340 656 357 c 1
 623 357 l 1
 605 366 606 369 600 371 c 0
 594 373 480 371 476 372 c 0
 472 373 465 371 459 366 c 0
 435 347 420 368 402 352 c 0
 395 346 372 340 368 334 c 0
 364 328 357 334 344 322 c 0
 334 313 316 317 304 294 c 0
 300 286 298 285 288 283 c 0
 260 278 219 224 219 223 c 0
 210 188 195 202 188 173 c 0
 185 161 178 159 176 151 c 0
 168 120 160 137 160 110 c 0xcc
 160 78 147 105 146 66 c 0xd4
 145 39 145 39 140 33 c 0
 124 16 136 -32 132 -81 c 0xe4
 130 -98 130 -100 137 -108 c 0
 145 -116 146 -119 146 -141 c 2
 146 -158 l 1xd4
 155 -170 155 -167 158 -175 c 0
 164 -190 152 -194 165 -208 c 0
 177 -220 168 -224 180 -236 c 0
 197 -254 173 -245 202 -273 c 0
 231 -301 202 -287 226 -312 c 0
 240 -326 251 -331 258 -342 c 0
 270 -361 281 -364 295 -367 c 1
 307 -378 l 2
 318 -389 323 -393 327 -393 c 0
 340 -393 346 -405 352 -406 c 0
 382 -412 364 -417 388 -423 c 0
 391 -424 395 -426 397 -427 c 0
 425 -447 450 -419 458 -450 c 1
 323 -450 l 1
 321 -442 311 -430 298 -427 c 0
 269 -421 289 -407 245 -396 c 1
 213 -364 l 2
 179 -330 178 -330 179 -323 c 0
 181 -307 158 -303 154 -284 c 0
 148 -255 126 -265 126 -233 c 0xcc
 126 -221 125 -219 118 -211 c 0
 113 -205 110 -198 112 -195 c 0
 113 -193 111 -191 104 -183 c 0
 87 -164 107 -144 89 -125 c 0
 83 -118 83 -116 83 -95 c 0xe4
 83 -58 78 -65 81 -52 c 0
 86 -31 77 45 90 48 c 0
 96 49 97 54 97 75 c 0xd4
 97 120 108 95 114 124 c 0
 116 135 125 139 126 143 c 0
 127 151 124 163 128 171 c 0
 132 180 153 191 155 206 c 0
 158 228 180 225 185 253 c 0
 186 258 187 259 191 264 c 0
 194 267 198 272 200 275 c 0
 205 282 218 290 231 303 c 0
 245 317 248 319 256 321 c 0
 273 325 269 331 278 335 c 0
 292 342 271 342 308 352 c 1
 316 360 l 2
 344 389 342 372 358 387 c 0
 363 392 366 393 378 393 c 0
 389 393 391 394 399 400 c 0
 420 417 433 396 456 414 c 0
 459 417 464 419 466 420 c 0
 471 421 594 421 601 420 c 0
 605 419 608 417 612 414 c 0
 636 395 645 418 671 398 c 2
 678 393 l 1
 687 393 l 2
 712 393 708 383 727 377 c 0
 752 369 744 357 771 348 c 0
 788 342 782 339 788 335 c 0
 790 334 793 331 796 329 c 0
 811 315 817 325 835 304 c 0
 848 289 876 274 884 250 c 0
 888 239 890 234 901 224 c 2
 910 216 l 1
 915 196 915 196 928 183 c 0
 960 150 929 157 949 134 c 0
 958 124 952 120 963 106 c 0
 978 87 967 69 971 58 c 0
 972 56 973 53 973 52 c 0
 973 44 975 58 985 36 c 1
 985 -4 l 2
 985 -44 985 -45 989 -59 c 1
 986 -74 986 -77 986 -95 c 0
 986 -115 985 -117 979 -124 c 0
 961 -144 981 -162 964 -182 c 0
 961 -185 960 -187 960 -188 c 0
 960 -190 954 -191 956 -195 c 0
 961 -207 943 -204 943 -232 c 0
 943 -263 915 -262 915 -280 c 0
 915 -288 909 -293 900 -302 c 2
 889 -314 l 1
 890 -327 890 -332 884 -336 c 0
 882 -337 868 -350 852 -366 c 2
 823 -395 l 1
 809 -398 804 -399 790 -414 c 2
 781 -423 l 1
 753 -432 750 -436 744 -450 c 1
 677 -450 l 1
 610 -450 l 1
 619 -418 644 -447 671 -427 c 0
 677 -422 691 -421 699 -413 c 0
 704 -408 716 -408 726 -399 c 0
 731 -395 738 -392 742 -392 c 0
 752 -392 761 -371 780 -365 c 0
 807 -357 799 -344 828 -323 c 0
 841 -314 852 -301 852 -294 c 0
 852 -277 878 -270 881 -251 c 0
 885 -229 890 -244 895 -219 c 0
 898 -206 901 -216 910 -194 c 1
 907 -185 904 -178 914 -166 c 0
 933 -144 910 -129 929 -108 c 0
 945 -90 928 -73 934 -50 c 0
 935 -44 936 -39 936 -11 c 0
 936 25 935 23 927 33 c 0
 912 50 931 70 913 90 c 0
 908 96 907 100 907 111 c 0
 907 133 898 128 892 146 c 0
 884 172 888 147 876 185 c 1
 868 192 l 2
 857 202 853 208 850 217 c 0
 849 221 848 226 847 227 c 0
 846 230 815 260 804 270 c 0
 783 289 771 277 760 298 c 0
 758 302 755 309 737 315 c 0
 728 318 695 338 695 338 c 0xcc
EndSplineSet
EndChar

StartChar: d
Encoding: 100 100 29
Width: 1097
VWidth: 854
Flags: W
HStem: -450 21G<105 183 915 991> -450 21G<105 183 915 991>
VStem: 603 69<32.3207 66.5631> 915 76<-450 -423.033>
LayerCount: 2
Fore
SplineSet
974 426 m 0xb0
 982 436 984 435 996 422 c 0
 1001 416 1007 410 1010 408 c 0
 1024 398 1018 392 991 365 c 0
 974 347 958 333 958 333 c 0
 957 330 929 303 923 294 c 0
 918 286 912 281 904 276 c 0
 901 274 672 48 672 47 c 0
 670 43 594 -30 593 -37 c 0
 591 -49 611 -58 619 -69 c 0
 620 -70 740 -194 740 -194 c 0
 740 -194 890 -340 890 -341 c 0
 891 -342 966 -421 984 -435 c 0
 989 -439 989 -443 991 -450 c 1
 915 -450 l 1
 915 -444 915 -444 903 -432 c 0
 902 -431 809 -339 806 -337 c 0
 788 -325 807 -335 761 -290 c 0
 662 -193 666 -193 665 -192 c 0
 660 -189 558 -86 554 -84 c 0
 553 -83 549 -83 547 -83 c 2
 544 -83 l 1
 490 -137 l 2
 408 -219 311 -314 308 -320 c 0
 305 -327 303 -329 293 -336 c 0
 287 -340 184 -439 182 -450 c 1
 143 -450 l 2
 122 -450 105 -450 105 -450 c 0
 105 -447 106 -442 116 -433 c 0
 149 -403 216 -329 224 -324 c 0
 230 -320 351 -197 356 -195 c 0
 357 -195 366 -183 417 -132 c 0
 448 -101 475 -74 477 -71 c 0
 483 -61 499 -52 502 -47 c 0
 504 -44 504 -35 502 -32 c 0
 501 -31 426 45 426 46 c 0
 426 47 424 49 422 50 c 0
 419 52 196 274 193 276 c 0
 175 287 182 290 154 317 c 0
 145 325 139 332 139 333 c 0
 139 333 123 348 108 363 c 0
 75 396 75 397 89 410 c 0
 94 415 99 421 102 424 c 0
 108 431 112 432 118 429 c 0
 123 427 208 341 208 338 c 0
 208 337 274 278 279 272 c 0
 281 269 497 49 498 48 c 0
 503 45 539 9 542 7 c 0
 559 -2 586 42 600 49 c 0
 602 50 603 51 603 52 c 0
 603 55 809 258 817 270 c 0
 826 284 824 275 862 313 c 0
 876 327 889 338 889 338 c 0
 889 339 973 424 974 426 c 0xb0
EndSplineSet
EndChar

StartChar: e
Encoding: 101 101 30
Width: 1092
VWidth: 840
Flags: W
HStem: -450 21G<80 157 951 1012> -450 21G<80 157 951 1012> 345 63<537.413 562.899> 400 20G<568 584.5>
VStem: 96 74<-448.678 -377.65> 124 75<-393.777 -329.637> 195 75<-250.954 -193.821> 224 75<-191.815 -120> 238 75<-166.083 -116.415> 252 75<-112.861 -78.003> 252 61<-148.997 -79.8451> 338 46<22.9121 56.5847> 352 61<57.3656 97.7224> 366 61<86.2315 149.996> 381 60<113.109 163.132> 395 75<164.822 198.815> 409 61<187.324 212.812> 410 74<200.188 251.997> 423 61<216.555 263.27> 438 61<228.646 288.844> 466 61<283.013 344.537> 608 61<230.231 262.949> 622 75<164.422 229.169> 665 75<83.8307 127.812> 693 61<53.5956 82.8147> 765 75<-94.8139 -49.3293> 807 76<-206.861 -157.186> 836 61<-235.04 -181.212> 879 89<-351.084 -305.849> 921 62<-401.719 -358.738> 922 75<-414.769 -385.281> 936 61<-449.031 -402.369> 951 60<-450 -415.646>
LayerCount: 2
Fore
SplineSet
352 93 m 0xa008
 352 103 352 103 366 113 c 1
 366 120 l 2xa004
 366 145 382 129 381 151 c 0xa002
 381 159 383 162 389 166 c 0
 395 170 395 170 395 179 c 2
 395 187 l 1xa001
 403 194 403 195 409 199 c 1xa00080
 409 205 410 210 410 216 c 1xa00040
 424 228 423 229 423 235 c 0xa00020
 423 259 440 245 438 266 c 0xa00010
 437 275 438 279 444 283 c 0
 456 291 448 298 458 306 c 0
 467 313 466 314 466 321 c 0
 466 345 480 327 480 349 c 0
 480 359 481 359 495 371 c 1
 495 377 496 382 496 388 c 1
 502 393 502 394 509 400 c 1x900008
 509 407 l 2
 509 427 522 422 528 414 c 0
 532 408 532 408 545 408 c 0x200008
 574 408 558 417 578 420 c 1
 591 406 592 407 597 403 c 1
 599 384 598 383 605 379 c 0
 611 375 612 373 612 364 c 0
 612 344 629 354 626 338 c 0
 624 328 629 326 638 319 c 0
 645 314 633 300 650 292 c 0
 657 289 658 287 656 279 c 0
 652 256 669 274 669 249 c 2
 669 242 l 1x10000c
 676 236 676 235 683 230 c 1
 684 212 683 211 690 207 c 0
 696 203 697 201 697 193 c 0x100002
 697 174 715 181 712 164 c 0
 709 146 726 158 726 135 c 2
 726 128 l 1
 731 124 736 119 740 115 c 1
 740 108 l 2x100001
 740 85 755 100 754 80 c 0
 753 60 773 66 768 53 c 0
 764 42 781 33 782 30 c 0
 785 22 778 16 791 8 c 0
 807 -2 789 -12 804 -21 c 0
 820 -31 802 -43 820 -50 c 0
 842 -58 814 -68 833 -79 c 0
 839 -83 840 -84 840 -93 c 0x100000c0
 840 -116 854 -97 854 -121 c 2
 854 -129 l 1
 862 -136 873 -140 868 -157 c 1
 872 -161 875 -163 878 -165 c 0
 882 -167 883 -170 883 -179 c 0x10000020
 883 -204 898 -183 897 -208 c 0x10000010
 897 -227 914 -215 912 -236 c 0
 910 -255 927 -245 925 -264 c 0
 923 -285 942 -273 940 -293 c 0
 938 -312 951 -298 955 -320 c 0
 959 -340 968 -326 968 -349 c 2
 968 -357 l 1x10000008
 972 -361 973 -361 983 -370 c 1x10000004
 983 -388 983 -387 990 -392 c 0
 996 -396 997 -399 997 -408 c 2x10000002
 997 -415 l 1x10000001
 1013 -429 1013 -429 1011 -450 c 1
 951 -450 l 1
 951 -448 l 2x9000000080
 951 -436 934 -439 936 -421 c 2
 936 -415 l 1x90000001
 930 -410 931 -410 922 -402 c 1x90000002
 922 -396 921 -391 921 -385 c 1x90000004
 907 -374 906 -374 908 -358 c 1
 894 -345 894 -345 891 -334 c 0
 888 -322 878 -331 879 -309 c 0x90000008
 879 -299 880 -301 871 -294 c 0
 855 -282 874 -276 859 -267 c 0
 851 -262 851 -262 850 -242 c 1
 837 -233 836 -232 836 -221 c 0x90000010
 836 -203 817 -209 822 -196 c 0
 828 -180 807 -186 807 -164 c 2
 807 -157 l 1x90000020
 802 -153 802 -152 794 -145 c 1
 793 -127 793 -127 789 -124 c 0
 770 -113 789 -106 773 -95 c 0
 767 -91 765 -89 765 -80 c 0
 765 -58 743 -70 749 -52 c 0
 750 -49 750 -46 750 -44 c 0
 750 -34 736 -42 736 -21 c 0
 736 -1 722 -16 722 7 c 0
 722 23 705 19 708 36 c 0
 709 42 704 48 699 51 c 0
 694 53 693 56 693 65 c 2
 693 71 l 1x900000c0
 684 78 685 79 680 83 c 1
 679 101 679 101 673 105 c 0
 667 109 665 113 665 122 c 2
 665 128 l 1x900001
 658 134 658 135 652 140 c 1
 651 158 651 157 642 164 c 0
 631 173 644 182 630 191 c 0
 624 195 622 198 622 207 c 0x900002
 622 225 608 214 608 236 c 0
 608 255 595 241 594 264 c 0
 593 281 574 278 577 287 c 0
 580 299 580 301 575 304 c 0
 561 313 567 322 563 330 c 0
 561 334 549 345 547 345 c 0
 536 345 547 331 535 321 c 0
 528 315 528 316 527 295 c 1xa0000c
 516 284 515 285 514 278 c 0
 510 256 499 270 499 252 c 0xa00010
 499 242 499 242 484 228 c 1
 484 213 l 1xa00040
 480 209 475 204 470 200 c 1xa00080
 470 194 l 2xa001
 470 170 454 182 456 164 c 0
 459 145 441 157 441 135 c 0xa002
 441 113 428 130 427 105 c 2
 427 98 l 1xa004
 419 92 419 91 413 86 c 1
 413 79 l 2xa008
 413 60 402 65 400 57 c 0
 398 48 398 48 398 47 c 0
 400 43 400 43 384 28 c 1
 384 13 385 10 378 6 c 0
 361 -3 378 -13 364 -22 c 0
 362 -23 361 -24 356 -28 c 1
 356 -49 356 -49 349 -54 c 0
 337 -62 348 -73 334 -80 c 0
 328 -83 327 -84 327 -92 c 0xa050
 327 -101 326 -105 322 -107 c 0
 319 -109 317 -110 313 -113 c 1xa020
 313 -121 l 2xa080
 313 -145 299 -128 299 -150 c 0xa1
 299 -174 282 -160 285 -178 c 0
 287 -188 281 -191 277 -193 c 0
 270 -196 270 -196 270 -208 c 0xa2
 270 -217 270 -220 265 -222 c 0
 247 -230 265 -243 249 -251 c 0
 231 -259 252 -270 235 -279 c 0
 217 -289 238 -299 220 -308 c 0
 212 -312 212 -314 216 -329 c 1
 206 -343 199 -331 199 -350 c 0xa4
 199 -360 198 -362 193 -364 c 0
 175 -371 193 -386 177 -394 c 0
 171 -397 170 -399 170 -408 c 0
 170 -433 154 -411 156 -441 c 2
 157 -450 l 1
 80 -450 l 1
 85 -421 96 -444 96 -419 c 0xa8
 96 -398 112 -412 110 -392 c 0
 108 -372 124 -385 124 -364 c 0xa4
 124 -354 126 -351 131 -349 c 0
 141 -344 140 -342 135 -328 c 1
 145 -315 155 -324 153 -307 c 0
 150 -286 167 -300 167 -278 c 0
 167 -255 182 -271 181 -249 c 0
 180 -225 195 -245 195 -222 c 0xa2
 195 -198 211 -211 210 -193 c 0
 208 -167 225 -187 224 -163 c 0xa1
 223 -142 238 -157 238 -135 c 0xa080
 238 -125 238 -125 252 -116 c 1xa020
 252 -108 l 2
 252 -82 269 -99 267 -77 c 0
 265 -55 280 -65 280 -49 c 0
 280 -40 283 -38 295 -30 c 1
 296 -11 295 -9 303 -5 c 0
 308 -2 309 -1 309 6 c 0
 309 30 327 19 324 36 c 0
 321 54 338 42 338 65 c 0xa050
 338 88 352 71 352 93 c 0xa008
EndSplineSet
EndChar

StartChar: f
Encoding: 102 102 31
Width: 1071
VWidth: 832
Flags: W
HStem: -424 33<747.31 764.5> 374 47<399.079 668.381>
VStem: 85 49<-98.7656 -58.1868 -57.7649 47.6704> 100 48<-170.891 -115.327 59 114.307> 115 48<84.4594 140.307> 128 49<115.693 192.081> 157 61<-299 -285 190.516 215> 853 62<-308.05 -272 212 228.764> 853 35<-317.024 -296.924> 896 61<92.585 180.641> 924 47<42.4074 135.557> 937 49<-100.986 -57.1875 -56.8118 41.4491>
LayerCount: 2
Fore
SplineSet
80 -58 m 1xe2
 82 -53 84 -47 86 -42 c 1
 85 -0 l 2xe2
 85 45 85 45 91 48 c 0
 94 49 94 49 101 59 c 1
 100 77 l 2xd0
 99 99 99 100 115 115 c 1xc8
 115 130 114 131 121 136 c 0
 137 147 124 157 128 170 c 0xc4
 132 182 157 190 157 209 c 2
 157 215 l 1
 170 227 l 2
 182 239 186 242 185 249 c 0
 184 255 186 259 192 264 c 0
 203 274 201 281 216 290 c 0
 233 301 240 319 260 323 c 0
 264 324 267 325 271 328 c 0
 294 347 286 347 297 350 c 0
 308 353 309 354 321 366 c 2
 333 377 l 1
 352 382 352 383 357 387 c 0
 364 393 368 394 380 394 c 0
 413 394 383 409 430 408 c 0
 466 407 448 416 467 421 c 0
 480 424 604 422 605 422 c 0
 608 421 611 419 614 416 c 0
 634 397 653 419 671 402 c 0
 688 387 705 401 714 388 c 0
 716 385 722 381 725 381 c 0
 750 381 739 358 780 350 c 1
 788 342 l 2
 803 327 805 325 811 324 c 0
 831 320 833 307 855 291 c 0
 880 273 864 278 879 266 c 0
 888 259 887 257 886 244 c 1
 896 234 l 2xc240
 906 224 909 221 914 217 c 1
 914 211 915 207 915 201 c 1xc1
 923 192 l 2
 927 188 933 182 936 180 c 0
 956 164 931 150 950 137 c 0
 956 133 957 131 957 122 c 0xc040
 956 97 977 128 971 67 c 2
 971 60 l 1xc020
 984 40 983 51 986 42 c 0
 987 39 986 25 986 -3 c 2
 986 -44 l 1
 988 -48 989 -53 991 -57 c 1
 989 -61 988 -65 986 -69 c 1
 986 -93 l 1
 986 -116 l 1xc010
 982 -120 979 -123 976 -125 c 0
 962 -134 985 -165 964 -181 c 0
 946 -195 968 -197 950 -209 c 0
 930 -222 955 -236 938 -250 c 0
 936 -252 929 -258 924 -263 c 2
 915 -272 l 1
 915 -277 915 -283 915 -288 c 1xc120
 885 -315 885 -315 888 -321 c 0xc080
 891 -328 894 -331 882 -337 c 0
 878 -339 872 -344 856 -360 c 0
 823 -393 823 -393 809 -396 c 0
 799 -398 786 -424 769 -424 c 0
 765 -424 747 -435 742 -450 c 1
 609 -450 l 1
 617 -415 649 -446 671 -426 c 0
 681 -417 687 -424 697 -413 c 0
 708 -401 715 -410 725 -399 c 0
 730 -394 736 -391 742 -391 c 0
 746 -391 750 -389 763 -376 c 2
 775 -364 l 1
 781 -363 785 -362 787 -362 c 0
 789 -362 796 -358 796 -357 c 0
 796 -355 807 -351 811 -342 c 0
 818 -329 832 -321 839 -314 c 0
 843 -309 846 -307 853 -301 c 1
 853 -294 l 2xc1
 853 -284 854 -281 859 -278 c 0
 865 -274 871 -266 876 -263 c 0
 887 -256 876 -242 887 -236 c 0
 890 -234 892 -233 896 -230 c 1
 896 -222 l 2xc040
 896 -200 900 -219 913 -194 c 1
 900 -157 926 -174 924 -147 c 0xc020
 921 -113 925 -111 931 -107 c 0
 934 -105 937 -102 938 -101 c 0
 938 -101 940 -82 934 -57 c 1
 941 -35 937 28 937 29 c 0xc010
 935 34 934 30 924 42 c 1
 924 63 l 2xc020
 924 87 924 87 916 93 c 0
 898 107 923 121 903 135 c 0
 897 139 896 142 896 150 c 0xc040
 896 171 881 157 881 179 c 2
 881 186 l 1
 875 191 872 194 863 203 c 2
 853 212 l 1
 853 217 852 224 852 229 c 1
 828 253 l 2
 804 277 795 286 781 288 c 0
 765 290 777 292 757 310 c 0
 748 318 747 318 730 321 c 1
 726 325 722 330 718 334 c 1
 712 335 706 337 700 338 c 1
 677 359 679 343 669 355 c 0
 656 372 630 351 611 370 c 0
 608 373 605 376 604 376 c 0
 603 376 470 376 466 374 c 0
 465 373 462 371 459 369 c 0
 439 351 425 373 402 354 c 0
 393 347 385 349 375 341 c 0
 368 335 354 336 344 324 c 0
 339 318 319 321 305 298 c 0
 301 290 300 289 290 287 c 0
 270 282 221 230 221 229 c 0
 214 218 232 223 205 199 c 0
 190 185 190 183 191 178 c 0
 192 170 189 167 178 158 c 1
 178 152 177 147 177 141 c 1xc5
 161 126 161 125 163 114 c 0xc8
 168 91 152 94 148 84 c 0
 148 83 148 48 148 48 c 0xd0
 151 41 136 32 135 28 c 0
 135 27 134 10 134 -9 c 2
 134 -44 l 1
 139 -56 140 -58 137 -65 c 0
 136 -68 135 -73 134 -84 c 2xe0
 133 -99 l 1
 149 -114 149 -115 148 -135 c 0xd0
 147 -156 147 -157 155 -164 c 2
 163 -171 l 1
 163 -179 l 2xc8
 163 -187 162 -188 159 -194 c 1
 163 -204 172 -206 178 -214 c 1
 170 -237 197 -233 190 -257 c 1
 196 -263 199 -266 209 -275 c 2
 220 -285 l 1
 220 -290 218 -294 218 -299 c 1
 228 -308 l 2
 248 -328 253 -323 261 -340 c 0
 270 -358 290 -362 298 -364 c 1
 310 -377 l 2
 336 -403 329 -383 346 -398 c 0
 358 -409 363 -402 373 -412 c 0
 387 -425 384 -413 404 -428 c 0
 421 -441 462 -423 462 -449 c 0
 462 -450 451 -450 396 -450 c 2
 330 -450 l 1
 319 -428 306 -425 296 -422 c 0
 284 -419 274 -398 258 -395 c 0
 239 -392 208 -346 189 -336 c 0
 165 -323 198 -325 178 -306 c 0
 174 -302 168 -297 164 -294 c 0
 157 -288 156 -286 157 -278 c 0
 158 -271 157 -272 142 -258 c 2
 129 -245 l 1
 123 -219 140 -222 121 -208 c 0
 104 -195 126 -195 107 -180 c 0
 89 -166 104 -141 99 -130 c 0
 98 -128 93 -122 85 -115 c 1
 85 -69 l 1
 83 -65 82 -62 80 -58 c 1xe2
EndSplineSet
EndChar

StartChar: g
Encoding: 103 103 32
Width: 1102
VWidth: 859
Flags: W
HStem: -450 31<113.026 145.913> -80 89<523.264 578.625>
VStem: 177 75<-393.625 -351.219>
LayerCount: 2
Fore
SplineSet
85 408 m 0
 99 415 111 446 122 432 c 0
 126 426 213 340 213 339 c 0
 213 337 222 333 224 329 c 0
 229 320 275 283 280 274 c 0
 280 273 485 68 487 66 c 0
 496 60 496 53 503 49 c 0
 503 49 533 22 542 9 c 1
 551 9 l 2
 569 9 560 17 572 23 c 0
 578 26 579 34 586 37 c 0
 593 40 592 46 599 49 c 0
 606 53 606 61 614 66 c 0
 616 67 640 92 643 94 c 0
 644 95 698 150 700 151 c 0
 706 155 707 162 714 166 c 0
 716 167 739 191 743 194 c 0
 750 199 797 250 798 250 c 0
 803 250 829 287 843 295 c 0
 845 296 868 320 871 323 c 0
 872 324 974 426 978 431 c 0
 990 447 1000 416 1016 408 c 0
 1024 404 1023 398 1015 391 c 0
 1014 390 961 337 960 337 c 0
 957 335 955 333 954 331 c 0
 951 323 925 304 923 298 c 0
 920 290 898 276 895 271 c 0
 894 270 867 242 867 242 c 0
 867 241 824 200 824 200 c 0
 824 200 755 132 749 125 c 0
 724 99 668 45 668 44 c 0
 668 43 603 -22 602 -23 c 0
 592 -29 591 -43 601 -48 c 0
 614 -54 625 -75 630 -78 c 0
 632 -79 772 -220 773 -221 c 0
 774 -221 816 -264 816 -264 c 0
 818 -265 866 -313 866 -314 c 0
 869 -319 888 -329 895 -342 c 0
 899 -351 905 -350 909 -356 c 0
 910 -357 965 -411 966 -413 c 0
 976 -427 992 -429 996 -450 c 1
 921 -450 l 1
 921 -447 l 2
 921 -443 919 -439 915 -437 c 0
 909 -433 816 -338 814 -337 c 0
 801 -331 790 -310 785 -308 c 0
 779 -305 702 -223 701 -223 c 0
 693 -220 693 -213 686 -209 c 0
 676 -204 679 -197 671 -193 c 0
 662 -189 664 -184 657 -180 c 0
 654 -178 601 -123 600 -123 c 0
 591 -118 594 -113 586 -109 c 0
 579 -105 577 -97 571 -94 c 0
 561 -88 565 -80 551 -80 c 0
 535 -80 542 -89 531 -94 c 0
 528 -95 446 -179 445 -180 c 0
 439 -183 439 -189 432 -192 c 0
 424 -196 425 -201 419 -206 c 0
 412 -212 332 -293 330 -294 c 0
 327 -296 325 -298 325 -299 c 0
 325 -304 314 -307 310 -316 c 0
 304 -329 286 -336 281 -344 c 0
 279 -347 254 -369 252 -372 c 0
 252 -373 210 -414 209 -416 c 0
 203 -427 184 -432 180 -450 c 1
 106 -450 l 1
 107 -442 107 -438 112 -435 c 0
 117 -433 130 -419 131 -419 c 0
 132 -419 137 -410 143 -406 c 0
 148 -403 168 -379 172 -377 c 0
 175 -375 177 -374 177 -373 c 0
 177 -369 205 -347 207 -342 c 0
 212 -330 232 -319 236 -313 c 0
 241 -305 246 -306 250 -299 c 0
 254 -292 261 -291 265 -284 c 0
 269 -277 274 -278 279 -270 c 0
 284 -262 288 -264 293 -256 c 0
 297 -249 303 -248 307 -241 c 0
 311 -234 317 -235 322 -227 c 0
 328 -218 331 -221 336 -213 c 0
 339 -207 360 -192 363 -186 c 0
 370 -174 373 -180 379 -170 c 0
 385 -161 388 -164 393 -156 c 0
 397 -149 403 -148 407 -141 c 0
 411 -134 417 -134 421 -127 c 0
 425 -120 431 -121 436 -113 c 0
 441 -105 445 -107 450 -99 c 0
 455 -91 461 -90 463 -86 c 0
 467 -79 474 -78 478 -70 c 0
 480 -64 496 -50 501 -48 c 0
 505 -46 507 -42 507 -36 c 0
 507 -21 498 -27 492 -15 c 0
 489 -9 483 -9 478 -1 c 0
 476 2 437 38 434 43 c 0
 428 53 426 49 421 57 c 0
 420 59 394 82 392 85 c 0
 390 88 350 126 349 128 c 0
 349 129 202 276 201 276 c 0
 185 286 175 304 173 305 c 0
 162 313 144 335 141 337 c 0
 140 338 80 396 80 400 c 0
 80 404 81 406 85 408 c 0
EndSplineSet
EndChar

StartChar: h
Encoding: 104 104 33
Width: 1066
VWidth: 831
Flags: W
HStem: -450 21G<94.5 129.5 930 986> -450 21G<94.5 129.5 930 986> 403 20G<515 520>
VStem: 80 49<-450 -430.28> 96 48<-448.533 -382.876> 124 49<-381.723 -327.081> 181 35<-289.437 -265.185> 210 63<-180.906 -154.876> 239 34<-153.722 -125.508> 252 50<-126.811 -87.1882> 295 49<-56.3589 -1.18822> 308 51<-13.8118 25.7685> 352 49<80.2308 111.723> 380 50<129.364 169.812> 380 37<112.648 157.875> 394 50<160.188 214.891> 423 49<215.277 243> 423 36<197.902 225.769> 437 50<256 303.891> 493 79<360.507 400.812> 508 49<389.188 422.859> 578 50<245.233 285.359> 649 51<102.188 139.814> 678 36<53.216 103.406> 707 49<-11.8118 25.7692> 721 50<-58.882 -2.27835> 749 50<-97.7224 -35.9794> 764 50<-126.764 -85.2776> 777 51<-145 -117.278> 849 50<-313.891 -259.188> 862 51<-328.676 -272.693> 920 50<-448.856 -402.188>
LayerCount: 2
Fore
SplineSet
380 160 m 1xa0040401
 384 164 389 168 394 172 c 1
 394 180 l 2xa0010401
 394 201 411 192 409 209 c 0
 407 225 423 218 423 238 c 2xa0008401
 423 245 l 1xa0004401
 439 260 438 260 437 269 c 0
 434 286 445 278 451 297 c 2
 453 304 l 1
 464 312 467 315 466 323 c 0
 465 336 474 334 476 338 c 0
 476 339 477 341 478 342 c 0
 479 344 480 346 480 351 c 0
 480 360 480 360 493 372 c 1xa0003401
 493 378 495 384 495 389 c 1
 499 393 504 397 508 401 c 1
 508 407 l 2
 508 417 510 420 520 423 c 0
 520 423 557 431 557 409 c 0xa0000c01
 557 388 572 399 572 376 c 0
 572 370 572 371 585 360 c 1
 586 342 587 337 594 334 c 0
 608 328 590 321 608 307 c 0
 620 297 611 294 622 284 c 0
 629 278 629 276 628 258 c 1
 633 253 637 250 642 245 c 1
 642 239 644 233 644 227 c 1
 651 222 650 222 656 217 c 1
 656 211 658 205 658 199 c 1
 664 194 664 194 671 188 c 1
 671 172 l 1
 677 166 678 166 686 160 c 1
 686 142 685 141 693 136 c 0
 699 132 700 130 700 121 c 2
 700 114 l 1xa0001601
 705 110 710 106 714 102 c 1
 714 94 l 2xa0000501
 714 73 730 83 728 64 c 0
 728 60 728 58 730 56 c 0
 735 49 734 49 737 48 c 0
 742 46 743 45 743 36 c 0
 743 16 758 27 756 7 c 2
 756 1 l 1xa0000481
 761 -3 766 -8 771 -12 c 1
 771 -21 l 2xa0000441
 771 -41 782 -30 786 -46 c 0
 791 -67 801 -54 799 -77 c 2
 799 -85 l 1xa0000421
 806 -91 806 -92 814 -98 c 1
 814 -106 l 1
 814 -114 l 1xa0000411
 816 -115 823 -122 828 -127 c 1
 828 -134 l 2
 828 -157 844 -142 842 -164 c 2
 842 -171 l 1
 846 -174 848 -176 852 -179 c 0
 865 -187 846 -193 864 -206 c 0
 881 -219 859 -222 878 -235 c 0
 886 -240 886 -241 884 -256 c 1
 889 -260 894 -266 899 -270 c 1
 899 -278 l 2xa000040d
 899 -301 915 -284 913 -307 c 2
 913 -314 l 1
 917 -320 931 -322 933 -329 c 1
 926 -343 926 -343 935 -349 c 0
 941 -353 942 -356 942 -364 c 0
 942 -383 958 -373 956 -393 c 2
 956 -399 l 1
 960 -403 965 -408 970 -412 c 1
 969 -429 970 -428 977 -433 c 0
 982 -437 986 -444 986 -448 c 2
 986 -450 l 1
 961 -450 l 1
 936 -450 l 1
 924 -425 918 -438 920 -421 c 2
 920 -415 l 1
 916 -411 911 -406 906 -402 c 1
 907 -386 906 -385 898 -380 c 0
 880 -368 903 -366 884 -350 c 0
 865 -335 890 -347 862 -321 c 1xa0000403
 863 -300 864 -300 856 -294 c 0
 848 -288 848 -287 849 -272 c 1
 844 -268 839 -263 834 -259 c 1
 835 -243 835 -242 829 -238 c 0
 822 -233 820 -232 820 -223 c 0
 820 -214 820 -213 813 -208 c 0
 801 -199 809 -197 807 -191 c 0
 797 -166 789 -189 792 -158 c 1
 787 -153 787 -153 778 -145 c 1
 777 -137 l 1
 777 -129 l 1xa000040d
 771 -124 772 -123 764 -117 c 1xa0000411
 764 -111 762 -105 762 -99 c 1
 748 -88 748 -87 749 -78 c 0xa0000421
 750 -58 722 -69 732 -51 c 0
 742 -32 720 -44 721 -21 c 2
 721 -15 l 1xa0000441
 715 -10 714 -8 707 -2 c 1xa0000481
 707 4 705 10 705 16 c 1
 698 21 699 21 693 26 c 1
 692 44 691 48 684 51 c 0
 679 53 678 55 678 64 c 2
 678 71 l 1xa0000501
 664 84 663 85 664 93 c 0
 666 109 649 100 649 122 c 2
 649 129 l 1
 643 134 640 136 636 140 c 1
 635 158 634 159 627 164 c 0
 613 174 628 180 614 191 c 0
 599 203 616 206 600 220 c 0
 584 234 601 236 585 249 c 0
 579 254 578 258 578 265 c 0
 578 279 569 272 559 286 c 1
 561 292 563 297 563 299 c 0
 563 305 549 306 550 322 c 0
 550 331 540 345 530 340 c 0
 528 339 525 337 524 337 c 0
 524 337 516 336 516 323 c 0
 516 301 497 311 504 291 c 0
 510 273 487 285 487 263 c 2
 487 256 l 1xa0002601
 483 252 478 247 474 243 c 1
 474 237 472 232 472 226 c 1xa0008401
 466 221 466 221 459 215 c 1
 459 208 l 2xa0004401
 459 201 457 197 453 194 c 0
 450 192 448 190 444 186 c 1
 444 170 l 1xa0010401
 440 166 435 162 430 158 c 1
 430 150 l 2xa0040401
 430 130 419 137 417 129 c 0xa0020401
 417 128 416 126 415 112 c 1
 407 106 408 106 401 99 c 1xa0080401
 402 86 402 84 394 78 c 0
 388 73 387 72 387 64 c 0
 387 41 374 62 373 33 c 2
 372 26 l 1
 365 21 365 20 359 14 c 1
 359 -1 l 1xa0110401
 354 -5 349 -10 344 -14 c 1
 344 -22 l 2xa0200401
 344 -50 323 -22 334 -58 c 1
 323 -73 316 -60 316 -79 c 2
 316 -87 l 1
 312 -91 307 -96 302 -100 c 1xa0400401
 303 -116 302 -117 294 -122 c 0
 277 -133 297 -141 280 -151 c 0
 274 -155 273 -155 273 -165 c 2
 273 -173 l 1xa1000401
 269 -177 266 -179 263 -181 c 0
 251 -188 265 -201 254 -207 c 0
 251 -209 248 -211 244 -214 c 1
 245 -231 245 -233 237 -237 c 0
 222 -245 238 -258 224 -265 c 0
 217 -269 216 -269 216 -279 c 2
 216 -288 l 1
 212 -291 210 -293 207 -295 c 0
 194 -303 210 -316 196 -326 c 0
 183 -335 196 -342 179 -352 c 0
 174 -355 173 -356 173 -365 c 0xa6000401
 173 -389 159 -370 159 -392 c 0
 159 -401 158 -405 154 -407 c 0
 151 -409 148 -411 144 -414 c 1
 144 -430 l 1xa8000401
 138 -436 130 -440 129 -450 c 1
 104 -450 l 2
 85 -450 80 -450 80 -449 c 0xb0000401
 80 -439 91 -432 96 -428 c 1xa8000401
 95 -411 95 -410 104 -404 c 0
 110 -400 110 -401 111 -382 c 1
 118 -376 117 -376 124 -370 c 1
 123 -357 123 -355 131 -349 c 0
 154 -334 114 -333 142 -320 c 0
 153 -315 154 -313 153 -306 c 0
 151 -286 169 -297 167 -278 c 0
 165 -256 181 -269 181 -249 c 0xa6000401
 180 -227 197 -239 195 -220 c 0
 193 -200 215 -205 210 -191 c 0xa1000401
 208 -185 210 -180 219 -175 c 0
 223 -172 224 -173 225 -154 c 1
 233 -148 232 -147 239 -141 c 1xa0800401
 239 -136 238 -132 238 -127 c 1
 243 -123 247 -117 252 -113 c 1xa0400401
 251 -96 251 -97 260 -90 c 0
 276 -78 256 -69 272 -58 c 0
 291 -45 261 -57 295 -28 c 1xa0200401
 294 -12 293 -11 308 -0 c 1xa0100401
 308 6 310 11 310 17 c 1
 317 23 316 23 324 30 c 1
 323 43 322 46 328 49 c 0
 346 60 329 70 344 80 c 0
 351 85 352 85 352 93 c 0xa0280401
 352 115 369 106 366 122 c 0
 363 140 380 131 380 152 c 2
 380 160 l 1xa0040401
EndSplineSet
EndChar

StartChar: i
Encoding: 105 105 34
Width: 1082
VWidth: 837
Flags: W
HStem: -450 59<668.001 753.997> -450 45<366.554 470.627 612.018 740.38> -450 17<468.73 605.938> 287 78<284.544 339.892 743.395 798.938> 348 60<393.599 463.814 465.109 473.677 545.907 662> 362 61<474.099 661.688>
VStem: 84 61<-98.7812 40.8594> 113 46<-192.117 -122.452> 127 61<108.558 157> 141 74<162.062 216.875> 155 62<171.125 217> 867 60<-293.729 -236.606 165.504 221.518> 896 60<108.189 177.997> 924 46<49.489 135.08> 937 62<-100 48.816>
LayerCount: 2
Fore
SplineSet
787 278 m 0x8010
 782 278 783 288 767 288 c 0
 751 288 757 298 748 305 c 0
 744 308 740 312 734 319 c 1
 715 321 715 321 709 329 c 0
 698 345 684 325 667 343 c 2
 662 348 l 1
 642 348 l 2x8810
 619 348 616 349 611 356 c 0
 606 363 606 362 543 362 c 0x0410
 485 362 476 363 474 359 c 0
 467 349 467 348 421 347 c 1
 410 336 408 335 391 335 c 2
 380 335 l 1
 375 330 370 325 365 320 c 1
 357 319 353 318 351 318 c 0
 348 317 332 302 329 296 c 0
 326 290 322 287 316 287 c 0
 294 287 247 224 217 201 c 1x1030
 217 195 215 189 215 183 c 1x1040
 208 176 205 174 197 166 c 2
 188 157 l 1x1080
 188 140 187 140 179 134 c 0
 161 121 186 103 164 90 c 0
 153 83 161 51 158 41 c 0
 157 38 152 35 145 28 c 1
 145 4 145 -20 145 -44 c 1
 146 -48 149 -53 150 -57 c 1
 146 -69 146 -71 145 -85 c 2x12
 144 -99 l 1
 160 -113 160 -113 159 -137 c 0
 158 -157 158 -158 166 -163 c 0
 170 -166 179 -174 170 -193 c 1
 174 -205 194 -209 187 -228 c 1
 196 -236 l 2
 201 -241 207 -246 209 -248 c 0
 215 -252 216 -255 216 -264 c 2
 216 -272 l 1
 227 -281 259 -314 271 -323 c 0
 294 -340 279 -338 292 -348 c 0
 295 -350 299 -354 301 -356 c 0
 304 -360 309 -362 314 -362 c 0
 332 -362 335 -388 358 -391 c 2x91
 366 -392 l 1
 378 -405 378 -405 393 -405 c 0x41
 407 -405 410 -406 414 -412 c 0
 426 -429 457 -410 470 -426 c 0
 477 -434 473 -433 542 -433 c 0x21
 584 -433 605 -433 606 -432 c 0
 607 -431 610 -429 613 -426 c 0
 630 -409 655 -430 668 -413 c 0
 673 -406 676 -405 690 -405 c 0x41
 706 -405 706 -405 711 -399 c 0
 715 -393 719 -391 727 -391 c 0
 733 -391 736 -390 739 -385 c 0
 743 -379 749 -377 754 -370 c 0
 765 -354 768 -372 783 -354 c 0
 787 -348 792 -349 795 -343 c 0
 800 -331 822 -318 825 -314 c 0
 828 -310 867 -273 867 -272 c 0x8110
 870 -265 861 -258 874 -249 c 0
 881 -244 884 -237 889 -235 c 0
 904 -229 887 -214 903 -206 c 0
 908 -203 908 -203 912 -194 c 1
 905 -173 908 -171 924 -158 c 1
 924 -137 l 2x8004
 924 -113 924 -110 930 -107 c 0
 933 -105 935 -103 939 -100 c 1
 938 -84 l 2
 937 -57 935 -61 937 -51 c 0
 939 -43 939 25 937 29 c 0x8002
 936 30 934 34 932 35 c 0
 925 39 924 38 924 63 c 0x8004
 924 87 924 87 917 92 c 0
 899 104 919 125 904 134 c 0
 897 138 896 140 896 149 c 0x8008
 896 158 895 159 889 164 c 0
 882 169 880 174 874 178 c 0
 869 181 867 185 867 194 c 2
 867 201 l 1
 860 207 788 278 787 278 c 0x8010
127 159 m 1x2080
 132 163 137 167 141 171 c 1
 141 179 l 2x2040
 141 201 154 184 155 209 c 2
 156 217 l 1
 169 226 186 246 192 251 c 0
 197 255 198 256 199 277 c 0
 199 277 233 306 237 307 c 0
 239 308 242 308 244 308 c 0
 254 308 269 330 277 334 c 0
 283 337 283 352 301 352 c 0
 313 352 312 365 329 365 c 0x3020
 343 365 336 378 357 380 c 0
 376 382 364 392 386 394 c 2
 393 395 l 1
 406 409 405 409 429 409 c 0
 450 409 451 410 455 415 c 0
 458 419 460 420 464 422 c 1
 535 423 l 2x0420
 622 424 622 424 627 416 c 0
 637 402 666 412 677 408 c 0
 679 407 687 399 687 397 c 0
 687 396 693 394 698 394 c 0
 717 394 708 380 726 380 c 0
 743 380 739 366 754 366 c 0
 776 366 762 354 784 352 c 0
 798 351 802 339 802 339 c 0
 802 338 809 334 813 329 c 0
 817 324 823 322 827 315 c 0
 836 301 844 317 855 302 c 0
 868 284 885 289 885 266 c 2
 885 257 l 1
 899 243 l 2
 907 235 914 229 914 228 c 0
 914 223 927 226 927 209 c 0x0830
 926 188 942 201 942 179 c 0
 942 157 956 174 956 151 c 0x0808
 956 128 970 147 970 121 c 0x0804
 970 112 970 113 978 108 c 0
 996 97 973 59 992 49 c 0
 999 45 999 46 999 -0 c 0
 999 -42 999 -42 1002 -57 c 1
 992 -105 1009 -114 990 -124 c 0
 974 -132 1000 -165 975 -181 c 0
 962 -189 979 -200 963 -208 c 0
 946 -217 966 -228 948 -237 c 0
 942 -240 942 -241 942 -251 c 0
 942 -275 928 -255 928 -278 c 0
 928 -297 918 -292 914 -299 c 0
 909 -308 902 -307 898 -317 c 0
 893 -329 886 -325 886 -338 c 0
 886 -349 875 -351 870 -359 c 0
 866 -365 860 -366 855 -373 c 0
 851 -379 848 -380 841 -380 c 0
 833 -380 831 -381 828 -386 c 0
 826 -390 801 -412 798 -416 c 0
 794 -422 792 -423 785 -423 c 0
 767 -423 773 -437 754 -437 c 0
 744 -437 744 -439 741 -450 c 1x8802
 343 -450 l 1
 334 -424 324 -446 312 -430 c 0
 308 -425 305 -423 300 -423 c 0
 294 -423 287 -420 284 -416 c 0
 280 -411 252 -382 249 -381 c 0
 248 -380 246 -380 244 -380 c 0
 236 -380 234 -379 220 -365 c 0
 213 -358 204 -350 202 -348 c 0
 193 -340 201 -336 191 -325 c 0
 184 -318 182 -311 176 -307 c 0
 170 -303 167 -297 161 -293 c 0
 146 -284 164 -275 148 -265 c 0
 132 -255 149 -246 135 -237 c 0
 127 -232 126 -232 127 -214 c 1x2082
 116 -203 117 -207 114 -202 c 0
 110 -197 115 -195 113 -191 c 0x21
 112 -190 112 -188 112 -187 c 0
 112 -184 110 -182 104 -178 c 0
 87 -167 112 -136 90 -121 c 0
 76 -112 90 -88 80 -58 c 1
 81 -53 83 -47 84 -42 c 1
 84 -1 l 2x22
 84 45 84 44 91 48 c 0
 111 58 86 93 106 108 c 0
 122 120 104 126 120 136 c 0
 126 140 127 143 127 152 c 2
 127 159 l 1x2080
EndSplineSet
EndChar

StartChar: j
Encoding: 106 106 35
Width: 1102
VWidth: 859
Flags: W
HStem: -450 21G<106 181 942.5 997> -450 21G<106 181 942.5 997> -80 89<545 578.851>
VStem: 106 75<-450 -423.429> 508 87<-59.6566 -8.94247>
LayerCount: 2
Fore
SplineSet
917 -439 m 0xb8
 915 -439 828 -351 827 -351 c 0
 826 -351 820 -343 814 -339 c 0
 790 -322 789 -311 789 -311 c 0
 785 -311 663 -183 661 -183 c 0
 660 -183 565 -88 563 -85 c 0
 560 -81 557 -80 551 -80 c 2
 545 -80 l 1
 538 -87 l 2
 534 -91 531 -95 530 -95 c 0
 529 -95 524 -103 518 -107 c 0
 517 -107 462 -164 461 -164 c 0
 458 -166 435 -191 433 -192 c 0
 428 -194 427 -195 427 -197 c 0
 427 -200 313 -310 310 -316 c 0
 304 -328 286 -337 282 -343 c 0
 278 -349 270 -353 268 -357 c 0
 266 -360 261 -366 259 -366 c 0
 258 -366 251 -376 246 -380 c 0
 244 -381 192 -434 189 -436 c 0
 185 -438 181 -443 181 -447 c 2
 181 -450 l 1
 106 -450 l 1
 107 -441 108 -438 114 -434 c 0
 115 -433 205 -347 208 -341 c 0
 214 -329 231 -320 236 -313 c 0
 237 -312 324 -227 324 -225 c 0
 324 -223 334 -217 337 -212 c 0
 340 -208 359 -193 365 -185 c 0
 368 -181 370 -178 371 -178 c 0
 371 -178 477 -75 480 -68 c 0
 487 -53 508 -51 508 -35 c 2
 508 -30 l 1
 506 -28 310 167 310 167 c 0
 310 168 285 193 284 193 c 0
 283 193 278 200 272 205 c 0
 269 207 246 231 244 233 c 0
 241 235 205 274 200 277 c 0
 178 291 180 300 174 304 c 0
 170 307 146 331 146 332 c 0
 146 332 138 339 115 362 c 0
 101 376 88 388 86 390 c 0
 81 394 75 401 85 408 c 0
 102 420 110 439 120 435 c 0
 120 435 117 436 170 383 c 0
 210 343 210 344 211 342 c 0
 216 332 220 336 224 329 c 0
 224 329 259 294 261 293 c 0
 274 286 284 268 289 264 c 0
 290 263 358 195 360 194 c 0
 362 193 415 137 416 137 c 0
 417 136 488 65 489 64 c 0
 497 59 497 51 504 48 c 0
 537 17 l 0
 537 16 539 14 543 9 c 1
 551 9 l 2
 559 9 560 9 565 16 c 0
 571 24 603 51 603 52 c 0
 603 55 816 265 822 276 c 0
 827 285 832 284 864 315 c 0
 919 368 978 430 983 432 c 0
 991 435 995 430 997 427 c 0
 1001 422 1010 412 1018 406 c 0
 1026 400 1026 401 992 368 c 0
 967 344 956 334 956 333 c 0
 956 329 927 305 924 299 c 0
 921 293 911 282 906 279 c 0
 902 277 686 62 682 56 c 0
 679 51 671 50 670 47 c 0
 669 43 604 -21 603 -22 c 0
 598 -26 595 -30 595 -36 c 0
 595 -50 614 -51 624 -71 c 0
 626 -74 629 -77 630 -78 c 0
 637 -83 745 -194 746 -195 c 0
 748 -196 871 -318 876 -321 c 0
 888 -327 896 -346 902 -350 c 0
 909 -355 977 -427 989 -436 c 0
 996 -441 997 -450 997 -450 c 0
 997 -450 980 -450 959 -450 c 0
 926 -450 922 -449 922 -448 c 0
 922 -446 918 -439 917 -439 c 0xb8
EndSplineSet
EndChar

StartChar: k
Encoding: 107 107 36
Width: 1066
VWidth: 831
Flags: W
HStem: -450 21G<80 131.5 936.5 971.5> -450 21G<80 131.5 936.5 971.5>
VStem: 80 66<-449.353 -419.874> 153 51<-328.676 -272.693> 167 50<-313.262 -259.188> 224 50<-178.86 -145.369> 238 51<-145 -117.231> 252 50<-126.859 -85.2776> 295 50<-59.1531 -2.27763> 323 38<2.5524 25.7685> 352 36<56.3289 103.342> 366 51<101.188 139.905> 408 51<187.278 226.769> 422 51<217.231 244> 494 79<360.507 399.813> 509 50<389.187 417.906> 594 49<215.277 243> 607 36<197.418 225.769> 622 50<159.188 214.891> 636 50<112.831 169.812> 665 49<65.0513 111.723> 679 49<36.8256 98.9062> 707 51<-13.8118 25.7685> 722 49<-57.3518 -1.18822> 764 50<-126.811 -87.1882> 793 34<-153.722 -136.958> 893 49<-381.723 -325.809> 922 48<-448.533 -382.876> 937 49<-450 -430.28>
LayerCount: 2
Fore
SplineSet
494 376 m 0xa006
 494 399 509 388 509 409 c 0
 509 433 551 423 556 418 c 0
 558 416 558 414 559 400 c 1xa001
 563 396 567 393 571 389 c 1
 571 383 573 378 573 372 c 1
 586 360 586 360 586 351 c 0
 586 346 587 344 588 342 c 0
 593 335 593 335 595 334 c 0
 608 328 592 320 608 308 c 2
 613 304 l 1
 617 290 618 290 623 285 c 0
 641 268 616 270 636 251 c 2xa00210
 643 245 l 1xa00040
 643 238 l 2xa00080
 643 218 659 224 657 208 c 0
 656 202 658 199 663 196 c 0
 672 190 672 187 672 180 c 2
 672 172 l 1xa00020
 677 168 682 163 686 159 c 1
 686 152 l 2xa00010
 686 131 703 140 700 122 c 0
 697 106 714 115 714 93 c 0xa00008
 714 73 729 87 728 64 c 0xa00004
 727 47 744 54 742 36 c 2
 742 30 l 1
 750 23 749 23 756 17 c 1
 756 11 758 6 758 -0 c 1xa00002
 773 -11 772 -12 771 -28 c 1xa00001
 785 -39 785 -40 786 -45 c 0
 792 -67 803 -55 800 -74 c 0
 796 -97 815 -83 814 -106 c 2
 814 -113 l 1xa0000080
 819 -117 823 -123 828 -127 c 1
 828 -132 827 -136 827 -141 c 1
 834 -147 833 -148 841 -154 c 1
 842 -173 843 -172 847 -175 c 0
 869 -188 844 -192 863 -205 c 0
 881 -217 860 -221 877 -233 c 0
 897 -248 872 -247 893 -263 c 0
 911 -276 886 -278 907 -292 c 0
 924 -304 901 -309 924 -320 c 0
 952 -333 912 -334 935 -349 c 0
 943 -355 943 -357 942 -370 c 1xa0000060
 949 -376 948 -376 955 -382 c 1
 956 -401 956 -400 962 -404 c 0
 971 -410 971 -411 970 -428 c 1xa0000010
 975 -432 986 -439 986 -449 c 0
 986 -450 981 -450 962 -450 c 2
 937 -450 l 1xa0000008
 936 -440 928 -436 922 -430 c 1
 922 -414 l 1xa0000010
 918 -411 915 -409 912 -407 c 0
 908 -405 907 -401 907 -392 c 0
 907 -370 893 -389 893 -365 c 0
 893 -345 881 -357 878 -340 c 0
 873 -315 862 -333 864 -310 c 0
 865 -301 864 -298 859 -295 c 0
 856 -293 854 -291 850 -288 c 1
 850 -280 l 2
 850 -256 834 -273 836 -250 c 0
 837 -243 835 -240 829 -237 c 0
 821 -233 821 -231 822 -214 c 1
 818 -211 815 -209 812 -207 c 0
 801 -201 815 -188 803 -181 c 0
 800 -179 797 -177 793 -173 c 1
 793 -165 l 2xa0000060
 793 -142 777 -157 779 -136 c 0
 781 -117 763 -130 764 -106 c 2
 764 -100 l 1xa0000080
 759 -96 754 -91 750 -87 c 1
 750 -79 l 2
 750 -60 743 -73 732 -58 c 1
 736 -44 736 -41 730 -37 c 0
 721 -32 722 -29 722 -22 c 2
 722 -14 l 1xa00001
 717 -10 712 -5 707 -1 c 1
 707 14 l 1
 700 20 701 21 694 26 c 1
 693 45 693 47 686 51 c 0xa00012
 680 54 679 56 679 64 c 0xa00004
 679 84 663 73 665 93 c 2
 665 99 l 1
 658 106 658 106 651 112 c 1
 650 130 649 131 643 135 c 0xa00048
 636 140 636 141 636 150 c 2
 636 157 l 1xa00010
 631 161 626 166 622 170 c 1
 622 185 l 1xa00020
 618 189 616 192 613 194 c 0
 609 197 607 201 607 208 c 2
 607 215 l 1xa00040
 600 221 601 221 594 226 c 1
 594 232 592 237 592 243 c 1
 588 247 583 252 579 256 c 1
 579 263 l 2
 579 285 556 273 562 291 c 0
 569 311 550 301 550 323 c 0
 550 336 542 337 542 337 c 0
 540 337 533 342 531 341 c 0
 506 328 525 320 509 306 c 0
 505 303 503 300 503 299 c 0
 503 297 505 292 507 286 c 1
 497 272 488 279 488 265 c 0
 488 246 473 251 473 234 c 0xa00580
 473 217 459 224 459 206 c 0xa008
 459 188 443 193 445 178 c 0
 446 172 444 168 439 164 c 0
 432 159 431 158 430 140 c 1
 428 138 423 134 417 129 c 1
 417 122 l 2xa010
 417 100 400 109 402 93 c 0
 403 85 402 84 388 71 c 1
 388 64 l 2xa020
 388 40 376 61 374 34 c 2
 373 26 l 1
 367 21 368 20 361 15 c 1xa040
 361 9 359 4 359 -2 c 1
 353 -8 351 -9 345 -15 c 1xa080
 346 -31 346 -30 338 -36 c 0
 318 -51 352 -53 327 -65 c 0
 318 -70 316 -70 317 -78 c 0
 318 -87 318 -88 304 -99 c 1
 304 -105 302 -111 302 -117 c 1xa1
 296 -122 296 -122 289 -128 c 1
 289 -137 l 1xa2
 288 -145 l 1
 279 -153 279 -153 274 -158 c 1
 276 -173 275 -173 266 -180 c 0
 249 -193 268 -197 253 -208 c 0
 246 -213 246 -214 246 -223 c 0
 246 -245 230 -229 231 -252 c 2
 232 -259 l 1
 227 -263 222 -268 217 -272 c 1xac
 218 -287 218 -288 210 -294 c 0
 202 -300 203 -300 204 -321 c 1
 176 -347 201 -335 182 -350 c 0
 163 -366 185 -368 168 -380 c 0
 160 -385 159 -386 160 -402 c 1
 155 -406 150 -411 146 -415 c 1
 152 -435 133 -436 130 -450 c 1
 105 -450 l 1
 80 -450 l 1
 80 -448 l 2
 80 -434 97 -438 96 -419 c 2
 96 -412 l 1
 101 -408 106 -403 110 -399 c 1
 109 -386 109 -383 117 -377 c 0
 123 -372 124 -371 124 -364 c 0
 124 -337 149 -360 133 -329 c 1
 135 -322 149 -320 153 -314 c 1xb0
 152 -298 152 -298 159 -293 c 0
 167 -287 167 -287 167 -278 c 2
 167 -270 l 1
 172 -266 177 -260 182 -256 c 1
 180 -241 180 -240 188 -235 c 0
 207 -222 185 -219 202 -206 c 0
 220 -192 201 -187 214 -179 c 0
 218 -176 220 -174 224 -171 c 1xac
 223 -157 223 -154 231 -149 c 0
 237 -145 238 -144 238 -134 c 2
 238 -127 l 1xa2
 241 -124 244 -121 252 -114 c 1
 252 -106 l 1
 252 -98 l 1xa1
 260 -92 260 -91 267 -85 c 1
 264 -45 274 -73 280 -46 c 0
 284 -30 295 -40 295 -21 c 2
 295 -13 l 1xa080
 300 -9 305 -3 310 1 c 1
 307 35 323 12 323 36 c 0xa040
 323 55 331 45 334 52 c 0
 334 53 335 55 336 56 c 0
 341 63 332 71 344 79 c 0
 351 84 352 85 352 94 c 2
 352 101 l 1xa020
 356 105 361 110 366 114 c 1
 366 121 l 2xa010
 366 130 367 132 373 136 c 0
 381 141 380 142 380 160 c 1
 388 166 389 166 395 172 c 1
 395 187 l 1
 401 193 401 194 408 199 c 1xa008
 408 205 410 211 410 217 c 1
 416 222 415 222 422 227 c 1
 422 233 424 238 424 244 c 1
 429 249 433 253 438 258 c 1
 435 295 443 268 451 298 c 0
 455 311 466 306 466 322 c 0
 466 345 478 324 480 351 c 2
 481 360 l 1
 494 371 494 370 494 376 c 0xa006
EndSplineSet
EndChar

StartChar: l
Encoding: 108 108 37
Width: 1081
VWidth: 836
Flags: W
HStem: -450 59<346.049 412.375 666.545 733> -450 30<379.333 468.813 606.462 702.757> -450 17<473.058 612.156> -423 61<282.742 306 759 792> 320 61<332.142 396.75 703.32 733> 335 60<347.109 402> 335 46<687.833 732.951> 348 61<620.187 676.787> 362 60<448.37 616.495> 362 47<411.664 459.861>
VStem: 83 60<-128.541 39.8579> 110 60<106.094 163.508> 124 61<-248.993 -178.698 128.365 177.396> 153 60<-292.075 -236.299> 867 60<-292.097 -235.668> 895 60<109.03 170.86> 895 46<-248.461 -207.631 135.985 178.204> 909 61<-234.977 -171.141> 924 60<-183.907 -100.14> 938 60<-127.814 40.7664>
LayerCount: 2
Fore
SplineSet
895 142 m 1x1001
 895 158 l 1
 885 167 878 175 872 179 c 0
 868 182 866 187 866 195 c 0
 866 200 866 200 864 202 c 0
 857 208 791 275 787 277 c 0
 784 279 781 282 780 283 c 0
 768 296 758 279 752 297 c 0
 750 302 733 319 733 319 c 0
 732 319 728 320 724 320 c 0x1801
 706 320 710 333 703 335 c 0x0201
 696 337 674 329 666 342 c 0
 662 348 663 348 639 348 c 2
 617 348 l 1x0101
 606 358 609 360 603 362 c 0
 601 363 476 362 475 362 c 0x0081
 474 362 472 359 470 356 c 0
 457 336 422 358 413 342 c 0
 411 339 409 337 402 334 c 1
 390 335 l 2x0401
 377 336 374 336 373 333 c 0
 368 320 359 320 354 320 c 2
 347 320 l 1
 340 312 335 306 332 305 c 0
 323 301 332 287 314 288 c 2
 306 289 l 1
 268 259 223 208 222 207 c 0
 201 191 225 191 206 177 c 0
 200 172 197 167 191 163 c 0
 185 159 185 159 185 151 c 0x0809
 185 130 172 136 170 128 c 0x0810
 168 120 176 96 161 90 c 0
 152 86 159 47 155 40 c 0
 153 37 144 32 143 30 c 0
 141 26 144 -61 143 -64 c 0x0820
 142 -68 141 -77 141 -85 c 2
 141 -100 l 1
 145 -103 146 -104 150 -107 c 0
 167 -119 145 -151 163 -163 c 0
 181 -175 160 -197 175 -205 c 0
 178 -207 181 -209 185 -212 c 1
 185 -221 l 2x0808
 185 -231 184 -230 192 -235 c 0
 197 -238 199 -245 206 -249 c 0
 212 -253 213 -254 213 -264 c 0
 213 -280 220 -273 227 -284 c 0
 228 -285 262 -320 262 -320 c 0
 274 -325 287 -347 289 -348 c 0
 292 -349 295 -353 303 -362 c 1
 310 -362 l 2x1804
 319 -362 324 -363 327 -369 c 0
 346 -390 l 0
 347 -391 351 -391 355 -391 c 0x8004
 364 -391 366 -392 369 -397 c 0
 380 -416 400 -395 411 -411 c 0
 413 -414 414 -415 418 -420 c 1
 438 -420 l 2x4004
 462 -419 465 -420 469 -426 c 0
 471 -429 472 -431 473 -432 c 0
 474 -433 490 -433 540 -433 c 2x2004
 606 -432 l 1
 616 -419 616 -419 640 -420 c 0x4004
 662 -421 662 -420 667 -412 c 0
 678 -395 702 -415 710 -399 c 0
 713 -392 716 -391 725 -391 c 2
 733 -391 l 2x8004
 759 -363 l 0
 760 -362 764 -362 768 -362 c 0
 785 -362 778 -355 789 -349 c 0
 795 -346 802 -328 817 -320 c 0
 821 -318 857 -279 859 -278 c 0
 861 -277 862 -276 867 -272 c 1x1006
 866 -255 866 -253 874 -248 c 0
 880 -245 883 -237 889 -234 c 0
 894 -232 895 -230 895 -221 c 0x100080
 895 -201 904 -210 909 -198 c 0x100040
 912 -189 903 -170 915 -164 c 0
 918 -162 921 -160 924 -157 c 1x100020
 923 -137 l 2
 922 -114 923 -110 929 -107 c 0
 932 -105 935 -103 938 -100 c 1
 938 -86 l 2x100010
 938 -75 938 -71 935 -57 c 1
 941 -30 937 28 937 29 c 0
 936 32 926 36 924 41 c 0x100020
 922 47 924 82 922 86 c 0
 919 91 913 90 910 100 c 0
 906 112 915 129 904 133 c 0
 901 134 899 138 895 142 c 1x1001
384 395 m 0x0404
 395 395 395 399 395 400 c 0
 395 402 401 407 403 408 c 0
 405 409 414 409 427 409 c 2
 448 409 l 1x0044
 456 420 457 421 460 422 c 0
 464 423 616 424 620 422 c 0x0084
 624 420 628 410 631 409 c 0x0104
 634 408 673 410 677 408 c 0
 680 407 682 402 687 395 c 1x0404
 705 394 708 393 711 387 c 0
 714 381 716 381 724 381 c 0x0804
 748 381 733 366 753 366 c 0
 778 365 761 352 782 352 c 0
 800 352 796 339 805 335 c 0
 807 334 825 318 827 315 c 0
 830 310 832 308 837 309 c 0
 851 312 855 298 863 294 c 0
 865 293 870 288 875 284 c 2
 883 276 l 1
 884 256 884 255 890 251 c 0
 894 248 915 224 919 222 c 0
 935 214 917 205 935 193 c 0
 940 190 941 188 941 179 c 2
 941 171 l 1x020480
 944 168 947 166 950 164 c 0
 954 162 955 159 955 151 c 0x0201
 955 131 972 140 969 122 c 0
 968 116 971 111 976 109 c 0
 997 98 971 58 991 49 c 0
 998 46 998 46 998 -1 c 0x020010
 998 -43 998 -43 1001 -57 c 1
 992 -97 1006 -112 992 -121 c 0
 990 -122 989 -124 984 -128 c 1
 984 -143 984 -156 984 -171 c 1x020020
 982 -174 981 -177 978 -179 c 0
 975 -181 973 -182 970 -184 c 1x020040
 969 -204 969 -204 962 -208 c 0
 946 -216 964 -229 948 -236 c 0
 942 -239 941 -241 941 -250 c 0x020080
 941 -275 927 -254 927 -278 c 0
 927 -288 926 -291 920 -294 c 0
 910 -300 898 -319 886 -329 c 1
 884 -344 884 -347 877 -351 c 0
 875 -352 855 -372 855 -372 c 0
 851 -379 849 -380 841 -380 c 0
 820 -381 832 -387 819 -394 c 0
 817 -395 792 -422 792 -422 c 0
 791 -423 787 -423 783 -423 c 0
 761 -423 779 -435 753 -437 c 2
 744 -437 l 1
 741 -444 741 -445 740 -450 c 1
 339 -450 l 1
 339 -448 l 2
 339 -429 323 -446 310 -429 c 2
 306 -423 l 1
 286 -422 285 -422 281 -415 c 0
 279 -412 256 -391 248 -380 c 1
 242 -380 237 -379 231 -379 c 1
 205 -349 197 -350 195 -339 c 0
 192 -319 188 -329 182 -315 c 0
 180 -311 160 -294 160 -294 c 0
 153 -291 153 -289 153 -279 c 0x3206
 153 -254 138 -276 138 -249 c 0
 138 -226 124 -247 124 -221 c 0x3208
 124 -212 123 -212 117 -208 c 0
 100 -198 120 -188 103 -179 c 0
 95 -175 94 -173 95 -149 c 2
 96 -129 l 1
 88 -119 86 -123 83 -118 c 0x3220
 78 -109 81 42 82 45 c 0
 85 53 87 41 96 59 c 1
 95 76 l 2
 94 97 95 102 100 106 c 0
 103 108 106 110 110 114 c 1
 110 122 l 2x3210
 110 145 124 128 124 150 c 0x3208
 124 172 140 161 138 179 c 0
 136 199 153 187 153 208 c 0
 153 217 154 219 159 222 c 0
 164 225 186 249 189 251 c 0
 195 255 196 257 196 267 c 2
 196 276 l 1
 200 280 225 301 225 301 c 0
 230 307 232 309 240 309 c 0
 255 309 250 316 261 323 c 0
 267 327 267 331 274 335 c 0x3204
 285 341 279 352 298 352 c 0
 317 352 303 366 327 366 c 0
 347 366 332 381 356 381 c 0x0804
 375 381 360 395 384 395 c 0x0404
EndSplineSet
EndChar

StartChar: m
Encoding: 109 109 38
Width: 1087
VWidth: 850
Flags: W
HStem: -450 21G<105 181 905 982> -450 21G<105 181 905 982> 385 49<91 113.706>
VStem: 105 76<-450 -422.511> 905 77<-450 -423.834>
LayerCount: 2
Fore
SplineSet
88 410 m 0xb8
 96 415 111 434 118 434 c 0
 121 434 124 432 127 428 c 0
 132 421 211 343 213 339 c 0
 215 335 273 286 281 274 c 0
 287 265 499 55 499 52 c 0
 499 52 506 47 531 21 c 0
 543 8 547 12 564 30 c 0
 572 38 587 52 587 52 c 0
 588 55 801 266 807 276 c 0
 817 292 812 279 847 314 c 0
 858 326 872 338 872 338 c 0
 872 339 893 360 918 385 c 0
 967 434 966 433 974 431 c 0
 980 429 986 421 998 411 c 0
 1006 405 1008 401 1007 398 c 0
 1005 392 942 334 942 333 c 0
 941 329 914 306 907 295 c 0
 902 287 900 284 892 279 c 0
 889 277 656 48 655 46 c 0
 653 41 585 -25 582 -29 c 0
 571 -45 600 -51 609 -69 c 0
 609 -70 730 -194 732 -195 c 0
 737 -197 853 -317 862 -323 c 0
 869 -327 875 -333 879 -339 c 0
 880 -340 943 -408 974 -436 c 0
 979 -441 980 -442 982 -450 c 1
 905 -450 l 1
 905 -448 l 2
 905 -440 799 -338 791 -333 c 0
 783 -327 780 -325 777 -318 c 0
 773 -310 661 -201 659 -196 c 0
 658 -195 613 -152 557 -95 c 0
 547 -85 544 -84 538 -88 c 0
 533 -91 437 -189 431 -192 c 0
 428 -193 427 -195 427 -196 c 0
 427 -198 326 -300 317 -307 c 0
 312 -311 304 -329 292 -335 c 0
 286 -338 194 -432 189 -436 c 0
 186 -438 181 -445 181 -448 c 2
 181 -450 l 1
 105 -450 l 1
 107 -441 108 -439 114 -434 c 0
 116 -433 207 -344 209 -339 c 0
 214 -326 209 -340 257 -292 c 0
 359 -189 358 -192 359 -191 c 0
 361 -185 475 -76 480 -66 c 0
 489 -49 507 -51 507 -36 c 2
 507 -31 l 1
 469 7 l 2
 431 44 428 51 427 51 c 0
 421 54 209 269 194 280 c 0
 171 296 188 289 165 311 c 0
 150 325 142 337 141 337 c 0
 140 337 92 385 91 385 c 2
 80 396 l 1
 81 405 82 406 88 410 c 0xb8
EndSplineSet
EndChar

StartChar: n
Encoding: 110 110 39
Width: 1093
VWidth: 840
Flags: W
HStem: -450 21G<80 134.5 951 1013> -450 21G<80 134.5 951 1013>
VStem: 80 78<-449.99 -407.403> 96 61<-448.951 -401.602> 153 75<-328.307 -278.914> 211 60<-220.996 -179.912> 224 76<-178.224 -131.323> 239 75<-141.815 -113.281> 253 47<-149.443 -131.323> 267 61<-112.585 -67> 310 61<-23.7692 33.8147> 353 75<86.2308 113.719> 367 62<97.2805 125.812> 381 61<114.188 144.952> 424 61<216.231 239.446> 578 80<274.095 301.445> 608 49<236.182 277.923> 624 61<179.951 243.891> 638 61<150.777 213.891> 667 60<93.9583 162.27> 681 61<63.9501 135.994> 695 60<52.8653 107.093> 738 61<-40.8608 20.3984> 795 61<-139.769 -105.185> 809 60<-193.031 -130.185> 838 61<-248.937 -207.094> 852 61<-277.847 -216.369> 924 60<-414.875 -365.958> 938 60<-420.953 -379.046>
LayerCount: 2
Fore
SplineSet
481 351 m 0x8002
 481 370 495 360 495 377 c 0
 495 386 495 386 509 399 c 1
 509 407 l 2
 509 433 526 415 527 414 c 0
 532 408 535 408 561 408 c 1
 576 424 575 424 585 414 c 0
 588 411 590 409 598 403 c 1
 598 397 599 391 599 385 c 1
 605 380 606 379 612 374 c 1
 613 355 613 355 620 351 c 0
 634 342 620 332 632 324 c 0
 652 312 631 303 651 293 c 0
 658 290 660 287 658 282 c 0x8003
 657 280 657 276 657 274 c 0x800080
 657 264 673 264 670 250 c 0
 667 235 685 242 685 221 c 0x800040
 685 202 699 214 699 192 c 0x800020
 699 173 713 187 713 165 c 0
 713 144 728 158 727 136 c 0x800010
 726 116 742 130 742 106 c 0x800008
 742 99 742 98 747 95 c 0
 754 91 755 86 755 81 c 0x800004
 756 55 772 71 769 52 c 0
 767 34 787 40 784 22 c 0
 781 4 799 16 799 -8 c 0x800002
 799 -29 813 -11 813 -36 c 0
 813 -54 819 -42 830 -57 c 1
 826 -72 825 -72 833 -77 c 0
 850 -88 832 -98 846 -105 c 0
 855 -109 855 -110 856 -130 c 1x800001
 862 -134 863 -135 869 -140 c 1x80000080
 870 -160 871 -160 877 -163 c 0
 893 -172 874 -185 892 -194 c 0
 898 -197 898 -196 899 -216 c 1x80000040
 913 -224 913 -224 913 -236 c 0
 913 -245 913 -244 919 -248 c 0
 936 -258 917 -268 933 -277 c 0
 950 -286 931 -296 947 -305 c 0
 960 -312 954 -326 959 -329 c 0
 983 -343 957 -351 977 -363 c 0
 983 -367 984 -369 984 -378 c 0x80000030
 984 -401 998 -380 998 -407 c 2
 998 -415 l 1
 1003 -419 1005 -420 1007 -421 c 0
 1013 -425 1013 -427 1013 -450 c 1
 953 -450 l 1
 949 -426 937 -444 938 -422 c 0x80000008
 939 -400 924 -416 924 -393 c 0
 924 -370 906 -386 909 -365 c 0
 911 -347 897 -359 894 -336 c 0
 893 -329 893 -329 881 -320 c 1
 881 -310 l 2
 880 -280 866 -306 866 -279 c 0
 866 -254 852 -276 852 -249 c 0x80000030
 852 -226 838 -247 838 -222 c 2
 838 -214 l 1x80000040
 835 -211 832 -209 829 -207 c 0
 816 -200 832 -187 817 -180 c 0
 810 -177 809 -175 809 -166 c 0x80000080
 809 -156 808 -155 803 -152 c 0
 796 -148 795 -145 795 -136 c 0
 795 -113 781 -132 781 -108 c 2
 781 -100 l 1
 778 -97 775 -95 772 -93 c 0
 760 -87 773 -72 760 -66 c 0
 758 -65 756 -64 755 -64 c 0x800005
 749 -64 750 -59 752 -41 c 1
 748 -38 746 -37 743 -35 c 0
 739 -33 738 -29 738 -21 c 0x800002
 738 0 723 -16 723 6 c 0
 723 28 709 13 709 36 c 0
 709 58 695 42 695 65 c 0x800004
 695 87 681 69 681 93 c 0x800008
 681 114 667 99 667 121 c 0x800010
 667 141 650 132 652 150 c 0
 654 167 638 157 638 178 c 0x800020
 638 200 624 183 624 207 c 2
 624 214 l 1x800040
 609 228 608 228 608 237 c 2
 608 244 l 1x800080
 594 255 594 255 594 265 c 0
 594 281 578 277 578 286 c 0
 578 288 579 290 580 302 c 1
 567 312 565 313 566 322 c 0
 567 327 563 334 559 337 c 0
 557 338 554 340 552 342 c 0
 540 352 542 338 542 329 c 0
 543 316 526 323 528 304 c 0
 530 286 519 293 515 276 c 0
 513 268 511 265 500 257 c 1
 500 251 499 246 499 240 c 1
 486 228 485 228 485 222 c 0x8003
 485 199 471 211 471 194 c 0
 471 170 456 183 456 164 c 0
 456 156 456 152 444 145 c 0
 442 144 443 142 442 126 c 1x8004
 438 122 433 118 429 114 c 1x8008
 429 108 428 103 428 97 c 1x8010
 421 91 421 91 415 86 c 1
 414 67 414 67 405 61 c 0
 392 52 406 44 392 34 c 0
 386 30 385 29 385 21 c 0
 385 11 385 10 371 1 c 1x8020
 370 -19 371 -19 362 -24 c 0
 348 -32 365 -41 350 -55 c 0
 331 -73 358 -63 328 -85 c 1
 328 -93 l 2x8040
 328 -104 328 -104 315 -113 c 1
 315 -119 314 -125 314 -131 c 1x81
 306 -138 305 -138 300 -142 c 1
 300 -150 l 2x82
 300 -174 283 -162 286 -179 c 0
 289 -199 270 -184 271 -208 c 0x84
 272 -228 257 -215 257 -235 c 0
 257 -260 241 -245 243 -265 c 0
 244 -272 242 -276 237 -279 c 0
 234 -281 233 -281 228 -286 c 1x88
 229 -300 230 -302 221 -308 c 0
 213 -313 212 -314 218 -329 c 1
 209 -343 198 -333 199 -352 c 2
 200 -359 l 1
 194 -364 191 -368 189 -369 c 0
 187 -370 186 -370 185 -388 c 1
 177 -395 178 -395 171 -401 c 1
 173 -414 173 -417 164 -423 c 0
 157 -428 156 -430 157 -440 c 0x90
 158 -444 158 -448 158 -449 c 0
 158 -450 150 -450 119 -450 c 0
 98 -450 80 -450 80 -450 c 0xa0
 80 -435 96 -438 96 -420 c 0x90
 96 -399 110 -415 110 -393 c 2
 110 -385 l 1
 118 -378 117 -377 124 -372 c 1
 124 -354 125 -354 133 -349 c 0
 151 -338 123 -329 144 -321 c 0
 152 -318 153 -316 153 -307 c 0x88
 153 -285 170 -298 168 -278 c 0
 166 -259 184 -269 182 -250 c 0
 180 -231 198 -241 196 -222 c 0
 194 -200 211 -215 211 -191 c 0x84
 211 -168 224 -186 224 -165 c 0x82
 224 -140 241 -157 239 -136 c 0x81
 238 -128 239 -125 246 -121 c 0
 253 -117 253 -116 253 -107 c 0x8080
 253 -81 266 -105 267 -77 c 2x8040
 268 -67 l 1
 280 -56 280 -56 281 -47 c 0
 284 -29 297 -41 296 -21 c 0
 295 0 310 -13 310 7 c 0x8020
 310 30 324 14 324 35 c 0
 324 60 338 38 338 64 c 0
 338 85 354 73 353 93 c 0x8010
 352 113 367 101 367 121 c 0x8008
 367 129 368 133 372 135 c 0
 375 137 378 138 381 141 c 1x8004
 382 161 382 161 390 165 c 0
 403 172 388 182 403 193 c 0
 410 198 410 198 411 216 c 1
 418 221 417 222 424 228 c 1
 424 234 l 2
 424 252 434 248 437 255 c 0
 438 257 438 264 439 276 c 1
 443 279 446 284 450 287 c 1
 453 302 454 304 461 308 c 0
 474 315 461 329 474 335 c 0
 478 337 481 338 481 351 c 0x8002
EndSplineSet
EndChar

StartChar: o
Encoding: 111 111 40
Width: 1067
VWidth: 834
Flags: W
HStem: -450 61<344 383.945 658.835 742.661> -450 33<386.285 463.664 597.143 657.295> -450 21<464.094 608.094> -435 74<303 337.875> 295 60<755.372 785.354> 352 46<371.188 447.571> 366 61<413.297 660.075>
VStem: 81 61<-104.355 51.7685> 122 46<100.382 155.638> 856 74<153.938 204.952> 870 74<148.555 200.487> 925 61<-131.968 40.6888>
LayerCount: 2
Fore
SplineSet
870 170 m 0x4020
 870 186 856 180 856 198 c 0
 856 201 856 204 855 205 c 0
 853 208 795 265 788 271 c 0
 760 293 775 295 762 295 c 0x4840
 754 295 739 302 725 324 c 1
 719 325 713 325 707 326 c 1
 694 338 694 338 681 338 c 0
 666 338 665 339 660 345 c 0
 654 352 652 352 631 352 c 0x0440
 611 352 609 353 604 359 c 0
 601 362 599 364 595 366 c 1
 532 366 l 1
 470 366 l 1x0240
 457 352 456 352 432 352 c 2
 413 352 l 1
 400 338 400 338 383 338 c 2
 371 338 l 1
 367 334 364 330 360 326 c 1
 341 324 339 324 339 321 c 0
 339 317 328 309 322 302 c 0
 312 290 302 303 295 289 c 0
 290 279 270 267 266 261 c 0
 263 257 225 222 225 221 c 0
 225 220 220 215 212 207 c 1
 210 191 209 188 204 185 c 0
 190 176 203 165 190 156 c 0
 177 147 188 136 176 128 c 0
 171 125 168 120 168 114 c 0x04c0
 168 98 157 101 155 93 c 0
 153 86 157 61 154 52 c 0
 152 47 151 46 144 43 c 0
 137 40 144 3 142 -74 c 0
 141 -101 141 -103 148 -109 c 0
 166 -124 145 -147 163 -166 c 0
 165 -168 170 -174 170 -184 c 0
 170 -192 181 -194 183 -206 c 0
 187 -230 193 -216 197 -231 c 0
 198 -234 198 -237 198 -239 c 0
 198 -251 209 -244 213 -268 c 0
 215 -279 276 -329 283 -341 c 0
 285 -344 289 -349 294 -354 c 2
 303 -361 l 1
 309 -361 l 2x15
 317 -361 320 -363 324 -368 c 0
 326 -370 331 -376 336 -381 c 2
 344 -389 l 1
 350 -389 l 2x81
 371 -389 362 -406 385 -403 c 0
 413 -399 403 -420 426 -417 c 0x41
 439 -415 457 -416 464 -424 c 0
 466 -427 469 -428 470 -429 c 0
 472 -430 594 -430 597 -429 c 0x21
 600 -427 606 -418 612 -417 c 0
 626 -413 643 -424 658 -410 c 0
 676 -393 682 -413 701 -395 c 0
 706 -390 712 -388 717 -388 c 0
 731 -388 737 -363 758 -360 c 0
 780 -356 774 -340 799 -322 c 0
 806 -317 816 -308 831 -293 c 2
 852 -271 l 1
 855 -255 856 -256 861 -250 c 0
 875 -235 862 -237 875 -222 c 0
 888 -208 879 -204 887 -198 c 0
 889 -197 890 -195 890 -194 c 0
 890 -192 894 -187 895 -182 c 0
 900 -155 912 -175 910 -136 c 0
 909 -102 920 -114 924 -99 c 0
 925 -97 925 -88 925 -78 c 0x4110
 925 -61 924 -59 921 -48 c 1
 927 -16 924 37 924 38 c 0
 922 47 916 42 913 50 c 0
 909 60 912 88 911 90 c 0
 910 93 906 98 899 105 c 1
 897 122 897 122 891 127 c 0
 886 131 884 135 884 143 c 2
 884 148 l 1
 871 160 870 161 870 170 c 0x4020
323 -435 m 0x1010
 314 -435 313 -434 302 -422 c 1
 296 -422 l 2
 287 -422 287 -422 244 -379 c 0
 221 -356 201 -336 200 -335 c 0
 179 -320 186 -321 166 -301 c 0
 137 -272 164 -283 145 -266 c 2
 140 -261 l 1
 137 -243 137 -244 131 -238 c 0
 116 -224 132 -225 117 -210 c 0
 101 -194 119 -180 103 -167 c 0
 85 -152 106 -125 89 -111 c 0
 87 -109 84 -107 83 -105 c 0
 78 -93 80 33 81 36 c 0x1110
 82 40 92 48 94 54 c 0
 98 69 88 91 102 102 c 0
 120 117 98 127 116 144 c 0
 121 149 122 151 122 153 c 0
 122 165 125 167 136 178 c 1
 138 195 138 195 150 206 c 1
 152 223 152 223 171 242 c 0
 181 252 189 259 189 259 c 0
 190 259 193 273 214 285 c 0
 219 288 284 355 285 355 c 0x1880
 293 359 298 351 307 363 c 0
 318 378 325 363 335 377 c 0
 339 383 342 384 349 384 c 0
 368 384 359 398 376 398 c 0x0480
 384 398 387 400 391 405 c 0
 404 424 435 402 447 419 c 0
 450 423 453 425 458 427 c 1
 534 427 l 2
 619 427 613 427 620 419 c 0
 633 403 660 422 675 405 c 0
 680 399 682 398 699 396 c 1
 702 392 706 389 709 385 c 1
 715 384 721 383 727 382 c 1
 738 370 738 370 755 368 c 1
 763 360 767 355 774 355 c 0
 780 355 784 353 788 348 c 0
 794 341 805 331 806 328 c 0
 806 327 853 284 856 282 c 0
 870 274 875 260 881 255 c 0
 887 250 903 233 909 227 c 0
 914 223 916 219 916 213 c 0
 916 198 930 202 930 185 c 0x0ac0
 930 170 944 173 944 157 c 0x0a20
 944 139 960 149 958 123 c 0
 956 93 975 106 972 81 c 0
 972 81 970 56 974 50 c 0
 979 42 979 42 981 41 c 0
 989 36 986 -75 986 -76 c 0
 985 -101 985 -105 979 -110 c 0
 960 -126 983 -146 963 -167 c 0
 950 -181 961 -188 956 -195 c 0
 952 -200 961 -197 951 -208 c 0
 934 -227 950 -223 935 -238 c 0
 923 -249 933 -254 921 -266 c 0
 906 -282 925 -275 901 -299 c 0
 884 -316 884 -321 866 -335 c 0
 861 -339 791 -409 786 -415 c 0
 780 -423 771 -417 760 -427 c 0
 742 -444 741 -421 726 -450 c 1x8a10
 339 -450 l 1x2010
 339 -448 l 2
 339 -448 339 -435 323 -435 c 0x1010
EndSplineSet
EndChar

StartChar: p
Encoding: 112 112 41
Width: 1074
VWidth: 849
Flags: W
HStem: -450 21G<101 177 898 975> -450 21G<101 177 898 975>
VStem: 101 76<-450 -424.269>
LayerCount: 2
Fore
SplineSet
947 432 m 0xa0
 955 444 962 438 979 422 c 2
 994 407 l 1
 994 403 l 2
 994 399 992 396 986 392 c 0
 977 386 886 293 882 287 c 0
 878 281 877 280 866 272 c 0
 860 268 845 252 826 233 c 0
 777 183 777 184 770 176 c 1
 770 171 l 2
 770 164 768 159 763 155 c 0
 756 150 654 46 650 44 c 0
 649 44 579 -30 579 -30 c 0
 576 -41 594 -39 603 -57 c 0
 605 -60 739 -197 741 -198 c 0
 741 -198 772 -222 772 -238 c 0
 772 -242 776 -246 785 -255 c 0
 801 -270 843 -314 854 -322 c 0
 863 -328 868 -334 871 -340 c 0
 873 -344 954 -425 965 -434 c 0
 970 -438 972 -440 975 -450 c 1
 899 -450 l 1
 897 -444 897 -442 892 -438 c 0
 885 -432 793 -339 788 -335 c 0
 769 -321 771 -317 753 -299 c 0
 742 -288 741 -287 739 -278 c 0
 736 -263 668 -205 668 -199 c 0
 668 -198 662 -194 603 -135 c 0
 571 -103 543 -76 542 -75 c 0
 535 -71 538 -69 474 -133 c 0
 407 -200 407 -198 407 -199 c 0
 405 -205 335 -267 335 -279 c 0
 335 -285 332 -291 325 -297 c 0
 309 -311 308 -320 291 -333 c 0
 283 -339 189 -433 188 -434 c 0
 181 -440 177 -445 177 -448 c 2
 177 -450 l 1
 101 -450 l 1
 103 -442 102 -440 111 -433 c 0
 122 -424 200 -346 203 -341 c 0
 208 -333 212 -328 220 -323 c 0
 227 -318 300 -248 301 -242 c 0
 303 -230 304 -229 309 -223 c 0
 324 -205 338 -197 339 -194 c 0
 341 -189 466 -67 472 -57 c 0
 483 -38 501 -40 496 -30 c 0
 494 -27 429 38 429 41 c 0
 429 42 424 44 367 101 c 0
 336 132 310 157 309 157 c 0
 303 160 305 174 301 180 c 0
 297 186 219 263 212 268 c 0
 193 281 197 286 175 308 c 0
 172 311 158 326 158 326 c 0
 154 329 97 385 86 395 c 0
 77 403 78 403 95 421 c 0
 110 436 112 438 119 437 c 0
 128 435 232 324 233 323 c 0
 237 321 269 288 278 283 c 0
 298 271 280 279 316 243 c 0
 334 225 337 221 337 214 c 0
 337 208 337 207 418 126 c 0
 495 50 501 42 502 41 c 0
 504 40 512 33 519 25 c 2
 533 11 l 1
 536 11 l 2
 547 11 564 36 573 41 c 0
 575 42 577 44 577 45 c 0
 577 47 735 203 736 206 c 0
 737 207 737 210 737 213 c 0
 737 229 771 249 780 265 c 0
 788 279 788 272 820 303 c 0
 830 312 846 328 846 328 c 0
 846 329 944 428 947 432 c 0xa0
EndSplineSet
EndChar

StartChar: q
Encoding: 113 113 42
Width: 1082
VWidth: 841
Flags: W
HStem: -450 21G<80 152 940 1002> -450 21G<80 152 940 1002>
VStem: 220 46<-208.869 -167.262> 234 60<-181.509 -111.35> 248 60<-152.828 -88.2344> 275 62<-87.3078 -37.5545> 291 59<-62.8906 8.44546> 361 60<93.6937 155.865> 375 60<115.445 184.311> 389 60<142.991 212.265> 403 74<183.648 256.179> 430 61<234.601 290.891> 473 60<320.498 351.998> 487 104<352.806 410.966> 501 76<368 410.966> 559 59<305.001 351.92> 573 60<276.141 305> 615 33<231.34 250.719> 629 60<142.793 227.003> 643 60<138.508 199.249> 728 60<-51.033 8.49089> 784 46<-138.815 -82.25> 941 61<-450 -394.262>
LayerCount: 2
Fore
SplineSet
487 378 m 0x800402
 487 402 501 391 501 410 c 0
 501 431 514 430 520 419 c 0
 521 416 524 414 525 413 c 0
 528 411 551 411 553 413 c 0
 556 416 557 424 563 426 c 0
 565 427 577 431 577 410 c 0x800202
 577 391 591 402 591 379 c 0x800402
 591 367 605 371 605 351 c 0
 605 337 618 345 618 327 c 0x800102
 618 309 633 318 633 296 c 0x800082
 633 278 648 292 648 269 c 2
 648 260 l 1x800042
 674 241 650 241 668 228 c 0
 681 218 668 211 682 200 c 0
 687 196 689 192 689 185 c 0x800022
 689 170 703 173 703 157 c 0
 703 149 704 149 716 138 c 1
 718 121 718 120 724 115 c 0
 730 110 730 108 732 93 c 1
 744 82 744 82 746 65 c 1
 754 57 760 52 758 46 c 0
 755 35 771 36 773 15 c 2
 774 9 l 1
 785 -2 788 -4 788 -16 c 0x80001a
 788 -24 797 -22 802 -38 c 0
 808 -57 812 -44 815 -67 c 0
 817 -89 825 -68 830 -100 c 0
 830 -103 832 -105 836 -109 c 0
 849 -121 838 -125 850 -137 c 0
 856 -143 857 -144 859 -160 c 1
 869 -171 872 -174 872 -182 c 0
 872 -194 886 -197 886 -209 c 0
 886 -223 896 -215 900 -240 c 0
 902 -250 911 -247 914 -267 c 0
 916 -280 925 -275 928 -295 c 0
 929 -305 939 -307 942 -318 c 0
 949 -340 952 -321 956 -351 c 0
 957 -362 971 -364 971 -381 c 0
 971 -389 981 -387 984 -406 c 0
 987 -424 997 -412 1002 -450 c 1
 941 -450 l 1
 939 -430 938 -427 931 -421 c 0
 920 -412 930 -404 918 -393 c 0
 905 -381 917 -378 903 -365 c 0
 890 -352 902 -345 889 -336 c 0
 884 -332 881 -328 881 -321 c 0
 881 -305 871 -314 868 -294 c 0
 866 -278 854 -280 854 -263 c 0
 854 -258 852 -256 842 -247 c 1
 839 -228 839 -228 833 -224 c 0
 821 -216 831 -202 818 -195 c 0
 806 -189 819 -178 804 -167 c 0
 802 -166 798 -163 798 -151 c 0
 798 -139 784 -142 784 -124 c 0x800006
 784 -112 771 -111 770 -100 c 0
 766 -70 758 -94 755 -66 c 0
 753 -50 740 -60 741 -41 c 0
 742 -22 728 -30 728 -14 c 0
 728 5 714 -3 714 15 c 0
 714 23 712 24 700 35 c 1
 701 50 700 51 687 63 c 1
 685 79 684 82 679 85 c 0
 665 94 679 105 664 114 c 0
 652 122 664 133 650 142 c 0
 647 144 643 147 643 159 c 0x80001a
 643 173 629 164 629 186 c 0x800022
 629 201 615 195 615 214 c 0x800042
 615 231 603 220 601 241 c 0
 599 262 591 244 586 269 c 2
 585 276 l 1
 581 279 577 283 573 286 c 1x800082
 573 292 572 299 572 305 c 0
 572 305 570 307 559 316 c 1
 559 324 560 332 553 338 c 0
 545 344 546 352 538 352 c 0
 534 352 533 349 533 340 c 0x800902
 533 317 523 331 520 320 c 0
 519 317 519 311 518 302 c 1
 511 296 511 296 506 291 c 1
 506 284 l 2
 506 260 491 275 491 257 c 0x801002
 491 248 491 247 477 234 c 1x802002
 477 221 477 217 470 212 c 0
 455 201 470 192 456 184 c 0
 451 181 449 177 449 171 c 0x804002
 449 151 435 158 435 144 c 0x808002
 435 122 421 131 421 116 c 0
 421 104 417 102 414 100 c 0
 407 95 407 95 405 77 c 1
 401 73 397 70 393 66 c 1
 392 52 390 44 384 44 c 0
 375 44 382 23 371 15 c 0
 358 6 369 -5 357 -13 c 0
 351 -17 350 -21 350 -30 c 2
 350 -37 l 1x830002
 338 -49 337 -50 337 -61 c 0x840002
 337 -89 325 -75 322 -97 c 0
 319 -118 308 -109 308 -125 c 0x880002
 308 -141 294 -138 294 -152 c 0x900002
 294 -170 280 -166 280 -180 c 0
 280 -187 278 -192 274 -194 c 0
 269 -196 266 -201 266 -208 c 0
 266 -227 255 -216 251 -240 c 2
 250 -247 l 1
 239 -257 239 -258 238 -265 c 0
 237 -275 236 -274 224 -286 c 1
 223 -299 222 -304 217 -308 c 0
 204 -319 218 -329 203 -337 c 0
 198 -340 197 -343 194 -359 c 1
 182 -369 183 -369 182 -377 c 0
 179 -398 169 -389 167 -405 c 0
 164 -427 155 -415 152 -441 c 2
 151 -450 l 1
 80 -450 l 1
 80 -447 l 2
 80 -433 92 -433 93 -422 c 0
 96 -401 105 -405 106 -398 c 0
 113 -364 119 -383 121 -365 c 0
 122 -355 125 -352 134 -344 c 1
 134 -339 l 2
 134 -318 147 -322 149 -309 c 0
 152 -288 161 -294 163 -281 c 0
 164 -270 166 -270 176 -259 c 1
 177 -253 179 -247 180 -241 c 1
 190 -232 190 -231 191 -227 c 0
 193 -215 194 -213 199 -208 c 0
 213 -194 201 -192 213 -181 c 0
 218 -176 220 -172 220 -168 c 0xa00002
 220 -152 234 -152 234 -139 c 0x900002
 234 -125 248 -122 248 -112 c 0x880002
 248 -98 260 -93 261 -88 c 0
 264 -73 264 -73 275 -63 c 1
 275 -56 l 2x840002
 275 -30 291 -52 291 -19 c 0
 291 -4 291 -3 304 9 c 1
 306 24 306 26 312 31 c 0
 327 43 312 47 327 60 c 0
 340 72 325 73 340 87 c 2
 346 93 l 1
 348 108 347 110 354 116 c 0
 359 120 361 123 361 129 c 0x830002
 361 144 375 142 375 158 c 0x808002
 375 174 389 170 389 185 c 0x804002
 389 202 403 197 403 213 c 0x802002
 403 231 415 223 417 242 c 0
 418 251 420 253 430 260 c 1
 430 268 l 2x801002
 430 293 442 273 445 298 c 0
 447 321 458 303 460 328 c 0
 462 348 473 337 473 351 c 0x800802
 473 373 487 367 487 378 c 0x800402
EndSplineSet
EndChar

StartChar: r
Encoding: 114 114 43
Width: 1057
VWidth: 830
Flags: W
HStem: -450 61<309.626 371.167> -450 20<392.895 455.438 598.167 664.632> -450 2<481.862 482.138 570.908 571.092> 352 47<339.162 401.494> 366 33<614.016 680.37> 380 47<398.546 660.492>
VStem: 90 41<-158.068 43.9068> 153 34<176.79 208.455> 910 49<51.3426 143.646> 924 49<-165.137 -48.6454>
LayerCount: 2
Fore
SplineSet
571 -448 m 0x23
 572 -448 574 -450 571 -450 c 0
 568 -450 570 -448 571 -448 c 0x23
482 -448 m 0
 484 -448 486 -450 482 -450 c 0
 478 -450 480 -448 482 -448 c 0
285 -361 m 0
 300 -361 314 -389 325 -389 c 0x9380
 340 -389 344 -401 353 -403 c 0
 379 -409 366 -414 385 -418 c 0
 410 -423 385 -430 423 -430 c 0x4380
 449 -430 456 -432 463 -450 c 1x2380
 328 -450 l 1
 325 -443 311 -425 298 -423 c 0
 279 -420 257 -384 245 -381 c 0
 233 -378 233 -378 221 -367 c 0
 199 -346 199 -346 197 -341 c 0
 192 -325 169 -301 163 -296 c 0
 149 -285 162 -283 148 -268 c 0
 133 -252 148 -254 134 -239 c 2
 128 -233 l 1
 127 -228 126 -222 125 -217 c 1
 114 -206 113 -203 114 -198 c 0
 115 -192 110 -199 112 -187 c 0
 114 -169 102 -169 99 -159 c 0
 93 -139 106 -127 93 -113 c 0
 75 -94 91 -83 80 -47 c 1
 88 -16 78 35 88 41 c 0
 89 42 90 43 90 44 c 0
 90 45 91 47 92 48 c 0
 106 60 89 86 105 102 c 0
 123 119 101 126 119 145 c 0
 131 158 118 157 133 173 c 0
 146 187 133 186 146 200 c 0
 152 206 153 210 153 215 c 0
 153 221 154 223 186 254 c 2
 193 262 l 1
 192 279 192 278 200 284 c 0
 214 294 228 315 242 315 c 0
 245 315 259 325 259 327 c 0
 259 328 265 334 272 341 c 0
 306 375 284 340 316 371 c 0
 341 396 335 378 351 392 c 0
 358 398 362 399 373 399 c 0x9380
 394 399 391 408 402 412 c 0
 404 413 412 413 422 413 c 0
 440 413 442 414 449 420 c 0
 457 427 458 427 527 427 c 0x0780
 602 427 600 428 608 420 c 0
 631 399 635 431 671 399 c 1
 681 399 l 2
 707 399 705 388 715 385 c 0
 719 384 719 384 731 381 c 1
 739 372 l 2
 751 359 751 359 771 353 c 1
 784 341 l 2
 802 324 795 326 800 323 c 0
 815 315 814 315 827 311 c 1
 840 298 l 2
 848 290 863 277 863 277 c 0
 864 275 864 269 863 260 c 0
 863 260 898 228 901 222 c 0
 906 212 899 210 911 198 c 0
 923 186 911 185 924 171 c 0x0b40
 937 157 925 157 938 143 c 0
 956 124 934 121 952 102 c 0
 960 94 960 92 959 73 c 2
 959 57 l 1x0b80
 965 44 966 42 969 41 c 0
 980 37 967 -13 977 -48 c 1
 973 -62 973 -61 973 -79 c 0
 973 -101 972 -104 965 -112 c 0
 947 -131 970 -147 951 -167 c 0
 937 -181 948 -187 943 -194 c 0
 938 -200 949 -196 937 -209 c 0
 923 -225 935 -225 924 -237 c 0
 909 -253 920 -255 909 -265 c 0
 904 -270 902 -273 901 -279 c 0
 898 -303 883 -288 856 -346 c 1
 842 -361 l 2
 804 -399 830 -358 788 -400 c 0
 769 -419 769 -419 759 -422 c 0
 752 -424 736 -433 728 -450 c 1x2b40
 659 -450 l 2
 610 -450 590 -450 590 -449 c 0
 590 -449 595 -438 615 -430 c 1
 631 -430 l 2
 649 -430 651 -430 660 -423 c 0
 670 -416 673 -419 688 -409 c 0
 698 -402 701 -405 716 -395 c 0
 728 -387 733 -392 752 -372 c 2
 760 -363 l 1
 805 -350 786 -340 814 -322 c 0
 829 -312 823 -307 830 -296 c 0
 838 -283 864 -264 866 -252 c 0
 869 -235 881 -234 881 -222 c 0
 881 -210 899 -200 897 -194 c 0
 894 -187 892 -176 902 -166 c 0
 920 -147 900 -128 915 -111 c 0
 919 -106 921 -103 924 -98 c 1
 924 -78 l 2x4340
 924 -62 923 -58 920 -48 c 1
 926 -18 923 38 923 39 c 0
 921 45 916 44 912 51 c 0
 908 58 911 85 910 92 c 0
 909 100 893 97 896 123 c 0
 897 133 898 134 884 148 c 1
 883 163 883 163 870 176 c 1
 869 184 868 190 867 192 c 0
 860 205 827 225 827 241 c 0
 827 259 795 271 786 287 c 0
 777 302 777 283 748 313 c 2
 737 324 l 1
 698 332 733 329 700 338 c 0
 688 341 692 347 673 352 c 0x5380
 650 358 670 366 633 366 c 0x0b80
 614 366 612 366 604 373 c 0
 597 380 597 380 527 380 c 0x0780
 455 380 460 381 452 373 c 0
 436 357 413 376 396 359 c 0
 392 355 384 352 380 352 c 0x1380
 371 352 364 338 352 338 c 0
 347 338 345 336 336 327 c 1
 326 326 315 324 315 321 c 0
 315 321 310 315 304 309 c 2
 293 298 l 1
 276 295 275 295 271 289 c 0
 258 270 229 257 229 242 c 0
 229 235 227 230 224 228 c 0
 220 225 189 195 188 192 c 0
 187 191 187 189 187 187 c 0
 187 168 173 171 173 159 c 0
 173 142 163 143 160 137 c 0
 156 130 165 110 153 101 c 0
 135 87 156 54 136 44 c 0
 131 42 131 41 131 3 c 0
 131 -30 131 -31 134 -48 c 0
 134 -49 124 -95 138 -109 c 0
 156 -127 134 -146 153 -166 c 0
 162 -175 161 -182 158 -197 c 1
 161 -201 163 -203 168 -209 c 0
 181 -223 168 -223 181 -236 c 0
 193 -248 186 -251 190 -258 c 0
 195 -267 231 -292 231 -310 c 0
 231 -321 244 -316 259 -340 c 0
 265 -351 278 -361 285 -361 c 0
EndSplineSet
EndChar

StartChar: s
Encoding: 115 115 44
Width: 1088
VWidth: 857
Flags: W
HStem: -450 21G<101 176 911.5 960.5> -450 21G<101 176 911.5 960.5>
VStem: 101 75<-450 -424.229> 913 74<-449 -424.661>
LayerCount: 2
Fore
SplineSet
511 -30 m 1xb0
 483 -1 444 36 444 39 c 0
 444 44 436 44 431 51 c 0
 427 57 418 62 418 63 c 0
 418 64 214 268 211 270 c 0
 203 275 162 320 162 321 c 0
 162 323 159 326 157 326 c 0
 155 326 94 389 87 394 c 0
 82 397 80 400 80 403 c 0
 80 406 100 425 106 433 c 0
 110 437 113 439 118 438 c 0
 125 437 233 324 234 323 c 0
 240 319 265 291 276 284 c 0
 299 268 286 271 305 253 c 0
 354 206 513 43 516 41 c 0
 527 34 537 13 549 19 c 0
 578 46 l 0
 579 48 785 255 788 257 c 0
 792 260 797 274 814 284 c 0
 823 289 966 438 968 439 c 0
 972 441 977 440 980 436 c 0
 985 430 1007 409 1008 406 c 0
 1009 401 1008 398 1002 394 c 0
 994 389 935 328 933 327 c 0
 924 323 928 321 919 313 c 0
 894 290 899 286 875 269 c 0
 873 267 790 184 789 183 c 0
 786 181 784 178 784 178 c 0
 784 174 646 42 645 40 c 0
 643 36 578 -27 577 -31 c 0
 575 -40 595 -42 602 -57 c 0
 604 -61 607 -65 615 -72 c 0
 618 -74 855 -315 865 -321 c 0
 873 -326 881 -333 884 -338 c 0
 892 -354 987 -436 987 -449 c 0
 987 -449 971 -450 950 -450 c 2
 913 -450 l 1
 910 -442 909 -440 904 -436 c 0
 902 -434 802 -336 801 -335 c 0
 772 -313 804 -336 749 -281 c 0
 672 -204 670 -203 668 -200 c 0
 665 -195 665 -198 649 -182 c 0
 648 -181 556 -86 551 -84 c 0
 548 -82 541 -82 538 -84 c 0
 535 -86 429 -193 424 -195 c 0
 423 -195 417 -204 364 -257 c 0
 334 -287 307 -314 305 -317 c 0
 302 -322 299 -325 287 -335 c 0
 277 -343 193 -429 186 -435 c 0
 181 -439 176 -445 176 -448 c 2
 176 -450 l 1
 101 -450 l 1
 103 -443 104 -440 112 -433 c 0
 122 -426 201 -345 204 -340 c 0
 208 -333 214 -328 221 -323 c 0
 223 -322 354 -193 354 -193 c 0
 354 -190 482 -64 485 -59 c 0
 491 -47 504 -41 511 -37 c 1
 511 -34 511 -33 511 -30 c 1xb0
EndSplineSet
EndChar

StartChar: t
Encoding: 116 116 45
Width: 1082
VWidth: 839
Flags: W
HStem: -450 21G<80 152 938.5 1002> -450 21G<80 152 938.5 1002>
VStem: 291 60<-45.8125 -6.55451> 361 60<95.6916 156.996> 375 60<116.775 185.223> 389 60<143.506 206.49> 487 104<350.872 410.993> 559 74<316 339.979> 629 47<171.646 218.922> 713 61<-21.1693 33.8125> 798 32<-154 -98> 940 62<-450 -395.623>
LayerCount: 2
Fore
SplineSet
473 352 m 2xa470
 473 372 487 367 487 380 c 0
 487 401 499 390 501 412 c 0
 503 431 516 428 523 417 c 0
 526 412 529 411 537 412 c 0
 540 413 545 413 547 413 c 0
 560 413 560 428 571 424 c 0
 583 419 570 407 583 397 c 0
 588 393 591 388 591 381 c 2
 591 375 l 1xa670
 604 363 605 362 605 353 c 0
 605 337 621 340 618 327 c 0
 615 313 633 315 633 297 c 0xa170
 633 278 650 291 648 268 c 2
 648 261 l 1
 652 257 656 254 660 250 c 1
 661 244 662 239 663 233 c 1
 673 223 676 221 676 210 c 0
 676 206 677 203 683 198 c 0
 696 185 681 185 696 171 c 2
 702 166 l 1
 704 149 704 149 716 138 c 1
 718 120 l 1
 722 117 726 113 730 110 c 1
 733 92 733 92 744 82 c 1
 747 64 746 64 752 59 c 0
 766 45 751 45 767 30 c 0
 772 26 774 21 774 14 c 0
 774 2 788 4 788 -13 c 0
 788 -25 798 -23 803 -39 c 0
 808 -55 813 -48 815 -67 c 0
 817 -85 830 -82 830 -98 c 0
 830 -112 840 -103 844 -128 c 0
 846 -139 854 -133 858 -156 c 0
 859 -165 872 -168 872 -181 c 0
 872 -182 875 -195 881 -198 c 0
 889 -203 882 -213 893 -223 c 0
 905 -234 894 -239 907 -251 c 0
 919 -262 908 -265 922 -280 c 0
 934 -293 923 -296 936 -308 c 0
 943 -314 942 -324 949 -331 c 0
 959 -341 951 -351 964 -364 c 0
 976 -375 964 -378 978 -393 c 0
 989 -405 978 -406 991 -420 c 0
 999 -429 1001 -439 1002 -450 c 1
 940 -450 l 1
 937 -409 929 -432 925 -410 c 0
 921 -384 912 -400 910 -379 c 0
 908 -362 896 -366 896 -349 c 0
 896 -338 877 -333 880 -323 c 0
 883 -314 868 -308 868 -294 c 0
 868 -283 854 -280 854 -266 c 0
 854 -261 852 -257 846 -252 c 0
 834 -240 846 -237 833 -225 c 0
 827 -220 826 -217 826 -212 c 0
 826 -212 825 -197 817 -194 c 0
 808 -190 816 -180 804 -168 c 0
 800 -164 798 -159 798 -154 c 0
 798 -148 796 -146 790 -140 c 0
 776 -126 792 -126 777 -112 c 0
 762 -98 777 -97 763 -84 c 0
 757 -79 756 -75 756 -70 c 0
 756 -51 740 -62 740 -41 c 2
 740 -33 l 1
 736 -30 733 -25 729 -22 c 1
 726 -4 726 -4 720 1 c 0
 715 5 713 10 713 18 c 2
 713 22 l 1
 709 26 704 30 700 34 c 1
 700 67 685 49 685 74 c 2
 685 79 l 1
 673 90 672 90 671 100 c 0
 669 119 657 109 657 128 c 0
 657 145 643 137 643 157 c 0
 643 173 629 165 629 186 c 2
 629 191 l 1xa0f0
 615 204 615 205 615 214 c 2
 615 219 l 1
 611 223 605 228 601 232 c 1
 600 248 600 248 593 254 c 0
 581 265 591 269 579 279 c 0
 564 291 583 295 565 311 c 2
 559 316 l 1
 560 330 560 330 545 348 c 0
 545 348 535 358 533 339 c 0
 531 314 523 339 520 313 c 0
 517 286 504 303 506 282 c 0
 508 263 494 279 491 254 c 0
 488 233 479 248 477 227 c 0
 475 207 463 216 463 199 c 0
 463 182 449 187 449 171 c 0xa570
 449 153 435 160 435 141 c 0xa870
 435 126 421 130 421 114 c 0
 421 96 407 102 407 87 c 0
 407 69 395 78 393 57 c 0
 392 50 390 47 386 45 c 0
 384 44 382 43 381 42 c 0
 380 41 378 27 378 23 c 0
 378 17 366 21 364 -0 c 2
 364 -6 l 1
 351 -18 351 -19 351 -27 c 0
 351 -48 339 -36 337 -60 c 0
 334 -95 326 -71 322 -98 c 0
 319 -116 311 -107 309 -124 c 0
 307 -145 296 -133 294 -152 c 0
 293 -162 293 -162 281 -173 c 1
 279 -187 279 -192 274 -194 c 0
 261 -199 273 -210 259 -223 c 0
 246 -236 256 -243 245 -252 c 0
 233 -261 243 -268 230 -280 c 0
 217 -292 230 -296 217 -308 c 0
 212 -313 212 -312 210 -330 c 1
 182 -353 204 -349 189 -363 c 0
 184 -367 182 -373 182 -378 c 0
 182 -395 173 -381 167 -410 c 0
 164 -427 156 -413 152 -442 c 2
 151 -450 l 1
 80 -450 l 1
 80 -448 l 2
 80 -434 92 -430 93 -422 c 0
 97 -399 106 -406 108 -393 c 0
 111 -374 119 -377 121 -366 c 0
 125 -343 133 -355 135 -334 c 2
 136 -326 l 1
 148 -315 150 -314 150 -309 c 0
 150 -294 164 -290 164 -281 c 0
 164 -266 178 -261 178 -253 c 0
 178 -239 190 -233 191 -226 c 0
 193 -214 194 -213 199 -208 c 0
 214 -194 201 -190 213 -179 c 0
 225 -168 215 -164 227 -152 c 0
 241 -138 229 -135 242 -123 c 0
 256 -111 242 -110 257 -94 c 0
 260 -91 262 -87 262 -86 c 0
 262 -76 266 -71 275 -62 c 1
 275 -57 275 -51 275 -46 c 1
 279 -42 282 -38 285 -37 c 0
 290 -35 291 -31 291 -19 c 0
 291 12 302 -1 304 14 c 0
 307 40 321 34 319 46 c 0
 317 58 330 59 332 71 c 0
 333 82 334 83 346 94 c 1
 350 131 361 109 361 130 c 0xb070
 361 146 375 142 375 157 c 0xa870
 375 173 389 172 389 183 c 0
 389 193 391 196 403 207 c 1
 403 211 l 2
 403 221 405 223 417 235 c 1
 417 239 l 2
 417 246 419 252 424 256 c 0
 439 267 420 273 438 285 c 0
 445 290 445 291 445 296 c 0
 445 314 465 318 460 327 c 0
 457 332 464 339 473 347 c 1
 473 352 l 2xa470
EndSplineSet
EndChar

StartChar: u
Encoding: 117 117 46
Width: 1057
VWidth: 830
Flags: W
HStem: -450 61<686.396 747.772> -450 20<391.425 458.833> -450 2<485.908 486.092 574.862 575.138> 352 47<607.295 717.717> 380 47<464 662.007>
VStem: 84 49<-100.901 -48.6454> 98 49<-193.393 -101.284 51.3426 143.646> 194 36<243.496 265.043> 870 34<177.302 208.455> 925 48<-166.066 47.9524>
LayerCount: 2
Fore
SplineSet
575 -448 m 0x21c0
 577 -448 579 -450 575 -450 c 0
 571 -450 573 -448 575 -448 c 0x21c0
486 -448 m 0
 487 -448 489 -450 486 -450 c 0
 483 -450 485 -448 486 -448 c 0
84 -79 m 0x25c0
 84 -61 84 -62 80 -48 c 1
 90 -13 78 37 88 41 c 0
 91 42 94 49 98 57 c 1
 98 73 l 2x23c0
 97 92 97 94 105 102 c 0
 123 121 101 124 119 143 c 0
 132 157 120 157 133 171 c 0
 146 185 134 185 146 198 c 0
 158 210 151 212 156 222 c 0
 156 222 169 237 194 260 c 1
 193 278 193 278 199 282 c 0
 202 284 210 291 217 298 c 2
 230 311 l 1
 256 318 261 327 261 327 c 0
 261 328 266 334 273 341 c 2
 286 353 l 1
 306 359 306 359 318 372 c 2
 326 381 l 1
 345 386 345 386 351 391 c 0
 358 397 363 399 376 399 c 2
 386 399 l 1x35c0
 401 412 402 413 425 413 c 0
 457 413 440 419 458 425 c 2
 464 427 l 1
 530 427 l 2x0dc0
 604 427 600 428 608 420 c 0
 615 414 617 413 635 413 c 0
 655 413 656 413 663 407 c 0
 671 400 673 399 684 399 c 0
 707 399 704 389 715 386 c 0
 745 378 742 362 757 358 c 0
 772 354 771 355 785 341 c 0
 792 334 798 328 798 327 c 0
 798 325 812 315 815 315 c 0
 829 315 842 294 857 284 c 0
 865 278 865 279 864 262 c 1
 871 254 l 2
 895 231 904 223 904 215 c 0
 904 199 915 207 918 184 c 0
 920 171 930 177 932 157 c 0
 934 141 947 148 945 121 c 0
 944 100 954 105 958 95 c 0
 962 87 955 57 965 48 c 0
 966 47 967 45 967 44 c 0
 967 42 972 42 973 37 c 0
 976 28 971 -22 977 -47 c 1
 966 -83 982 -94 964 -113 c 0
 948 -130 971 -148 951 -169 c 0
 937 -184 949 -189 944 -194 c 0
 940 -198 950 -198 937 -212 c 2
 932 -217 l 1
 931 -222 930 -228 929 -233 c 1
 917 -245 917 -246 916 -251 c 0
 913 -273 904 -265 902 -279 c 0
 899 -300 893 -288 864 -331 c 0
 859 -338 862 -343 853 -351 c 0
 850 -353 842 -361 836 -367 c 0
 824 -378 824 -378 812 -381 c 0
 800 -384 778 -420 759 -423 c 0
 748 -425 732 -441 729 -450 c 1x95c0
 594 -450 l 1x25c0
 608 -413 644 -441 659 -424 c 0
 668 -414 674 -422 687 -410 c 0
 697 -401 702 -408 714 -397 c 0
 716 -395 722 -389 732 -389 c 0
 743 -389 757 -361 772 -361 c 0
 789 -361 797 -334 815 -322 c 0
 823 -317 826 -314 826 -310 c 0
 826 -288 865 -269 868 -251 c 0
 871 -233 880 -237 882 -225 c 0
 883 -215 884 -214 889 -209 c 0
 892 -206 894 -204 899 -197 c 1
 896 -182 895 -175 904 -166 c 0
 923 -146 901 -127 919 -109 c 0
 922 -106 924 -102 925 -100 c 0
 925 -99 929 -74 923 -48 c 1
 929 -16 925 39 925 40 c 0
 925 42 923 43 921 44 c 0
 901 54 922 87 904 101 c 0
 889 112 907 129 891 142 c 0
 889 144 884 148 884 159 c 0
 884 171 870 168 870 187 c 0
 870 189 870 191 869 192 c 0
 868 195 837 225 833 228 c 0
 830 230 828 235 828 242 c 0
 828 257 798 271 786 288 c 0
 782 294 782 294 764 298 c 1
 753 309 l 2
 747 315 742 321 742 321 c 0
 742 324 731 326 721 327 c 1
 712 336 710 338 705 338 c 0
 693 338 686 352 677 352 c 0x95c0
 673 352 665 355 661 359 c 0
 644 376 621 357 605 373 c 0
 597 381 602 380 530 380 c 0
 460 380 460 380 453 373 c 0
 432 354 417 376 396 358 c 0
 386 350 378 353 367 343 c 0
 358 335 351 339 341 331 c 0
 336 327 336 327 320 324 c 1
 309 313 l 2
 280 283 280 302 271 287 c 0
 261 270 230 259 230 241 c 0
 230 221 191 208 188 183 c 2
 187 176 l 1
 174 163 174 163 173 148 c 1
 159 134 160 133 161 123 c 0
 164 97 148 100 147 92 c 0x0bc0
 146 85 149 58 145 51 c 0
 141 44 136 45 134 39 c 0
 134 38 131 -18 137 -48 c 1
 135 -56 133 -58 133 -78 c 2
 133 -98 l 1x0dc0
 141 -115 145 -112 147 -119 c 0
 151 -132 141 -151 155 -166 c 0
 160 -171 165 -181 160 -194 c 0
 158 -200 176 -210 176 -222 c 0
 176 -234 188 -235 191 -252 c 0
 194 -268 225 -283 232 -307 c 0
 237 -326 247 -317 260 -339 c 0
 270 -356 282 -359 297 -363 c 1
 305 -372 l 2
 324 -392 329 -387 341 -395 c 0
 349 -401 392 -420 397 -423 c 0
 406 -430 408 -430 426 -430 c 2
 442 -430 l 1
 462 -438 467 -449 467 -449 c 0
 467 -450 447 -450 398 -450 c 2x4bc0
 329 -450 l 1
 321 -433 306 -424 298 -422 c 0
 273 -414 257 -379 241 -379 c 0
 236 -379 229 -375 215 -361 c 2
 201 -346 l 1
 174 -288 159 -302 156 -279 c 0
 154 -263 145 -270 142 -251 c 0
 141 -246 139 -243 133 -237 c 0
 122 -225 134 -225 120 -209 c 0
 108 -196 119 -200 114 -194 c 0
 109 -187 120 -181 106 -167 c 0
 91 -152 101 -128 99 -120 c 0
 98 -117 87 -107 85 -101 c 0
 84 -99 84 -90 84 -79 c 0x25c0
EndSplineSet
EndChar

StartChar: v
Encoding: 118 118 47
Width: 1088
VWidth: 856
Flags: W
HStem: -450 21G<101 176 911 987> -450 21G<101 176 911 987>
VStem: 101 75<-450 -423.848> 162 62<310.097 340.206>
LayerCount: 2
Fore
SplineSet
842 311 m 0x90
 843 311 857 325 858 325 c 0
 859 325 867 338 873 342 c 0
 875 344 897 367 900 369 c 0
 901 370 941 410 942 411 c 0
 946 414 963 433 965 435 c 0
 970 442 977 441 983 433 c 0
 988 425 1008 406 1008 403 c 0
 1008 394 992 390 980 373 c 0
 976 368 972 367 967 360 c 0
 961 351 926 323 926 322 c 0
 925 316 900 295 897 289 c 0
 891 279 873 269 868 262 c 0
 867 261 756 149 755 148 c 0
 753 145 657 51 656 50 c 0
 651 42 647 47 643 38 c 0
 642 36 583 -24 582 -25 c 0
 565 -42 593 -39 602 -58 c 0
 605 -65 624 -82 625 -82 c 0
 626 -82 632 -91 638 -96 c 0
 639 -96 694 -152 694 -152 c 0
 699 -156 737 -197 738 -197 c 0
 739 -198 863 -320 865 -321 c 0
 870 -324 880 -334 883 -339 c 0
 890 -352 982 -437 983 -438 c 0
 984 -439 987 -449 987 -450 c 0
 987 -450 971 -450 950 -450 c 2
 912 -450 l 1
 910 -442 910 -441 906 -438 c 0
 898 -431 806 -338 803 -336 c 0
 791 -327 786 -323 783 -318 c 0
 776 -306 671 -204 668 -199 c 0
 668 -199 630 -163 612 -144 c 0
 606 -137 564 -97 551 -83 c 1
 544 -83 l 2
 536 -83 534 -85 530 -91 c 0
 529 -93 503 -116 501 -119 c 0
 500 -121 446 -174 446 -175 c 0
 445 -177 426 -195 426 -195 c 0
 418 -197 422 -199 413 -207 c 0
 412 -208 309 -310 305 -317 c 0
 303 -320 264 -355 262 -358 c 0
 258 -363 250 -369 250 -370 c 0
 250 -371 190 -431 184 -436 c 0
 179 -440 176 -445 176 -448 c 2
 176 -450 l 1
 101 -450 l 1xa0
 103 -443 103 -439 108 -435 c 0
 109 -434 199 -348 203 -340 c 0
 206 -334 215 -327 222 -322 c 0
 225 -320 483 -65 486 -58 c 0
 493 -42 517 -40 511 -31 c 0
 504 -21 445 35 444 39 c 0
 443 43 435 44 431 50 c 0
 431 50 362 119 361 120 c 0
 360 121 320 161 318 163 c 0
 317 164 263 217 262 219 c 0
 262 220 214 267 213 268 c 0
 202 275 176 306 170 311 c 0
 165 315 162 319 162 321 c 0
 162 325 154 325 149 332 c 0
 149 332 122 359 121 360 c 0
 121 360 91 391 85 394 c 0
 74 400 83 410 91 418 c 0
 106 433 107 437 111 439 c 0
 118 442 122 436 124 433 c 0
 125 432 223 333 224 332 c 0
 224 331 270 285 274 283 c 0
 287 276 291 264 304 252 c 0
 317 240 451 105 457 100 c 0
 463 96 463 92 469 88 c 0
 475 84 524 29 528 29 c 0
 528 29 544 6 555 24 c 0
 558 29 577 43 582 50 c 0
 587 57 610 78 610 78 c 0
 610 81 792 257 795 265 c 0
 800 277 818 285 823 292 c 0
 828 298 833 299 838 306 c 0
 840 309 842 311 842 311 c 0x90
EndSplineSet
EndChar

StartChar: w
Encoding: 119 119 48
Width: 1053
VWidth: 829
Flags: W
HStem: -450 21G<80 129 919 955> -450 21G<80 129 919 955> 406 20G<541 550>
VStem: 80 49<-450 -406.25> 94 49<-449.953 -377.655> 304 78<29.0466 61.0742> 416 50<220.555 260.492> 487 79<363.51 413.528> 530 50<311.542 357.862> 586 50<198.524 262.766> 600 50<170.677 254.75> 614 50<147.785 226.719> 656 50<57.019 118.537> 725 53<-99.2281 1.51227> 754 50<-152.981 -68.8294> 852 67<-350.979 -294.696> 923 50<-449 -406.699>
LayerCount: 2
Fore
SplineSet
416 242 m 0xae0180
 416 249 418 250 428 261 c 1
 426 278 426 279 436 285 c 0
 452 295 439 303 452 313 c 0
 460 319 460 325 460 335 c 1
 472 346 472 346 474 363 c 1
 485 374 487 377 487 384 c 0
 487 399 499 394 501 414 c 0
 503 436 541 426 541 426 c 0
 559 420 543 410 559 396 c 0
 562 394 566 390 566 378 c 0xaf0180
 566 368 580 370 580 351 c 2
 580 347 l 1
 588 339 596 332 593 327 c 0
 588 318 608 314 608 296 c 0
 608 281 628 287 624 270 c 0
 623 267 623 264 623 263 c 0
 623 258 636 254 636 239 c 0xa6c180
 636 227 650 230 650 211 c 0xa62180
 650 199 664 201 664 183 c 0xa61180
 664 171 678 173 678 156 c 0
 678 143 692 145 692 128 c 0
 692 116 706 115 706 102 c 0
 706 87 717 91 720 73 c 0
 723 55 735 56 733 45 c 0
 731 35 746 34 748 18 c 0
 752 -6 763 9 761 -19 c 0
 759 -48 779 -30 778 -55 c 2
 778 -63 l 1xa60d80
 789 -75 789 -75 790 -81 c 0
 794 -101 804 -98 804 -109 c 0
 804 -122 815 -122 818 -139 c 0
 820 -154 829 -149 832 -167 c 0
 834 -181 848 -184 846 -194 c 0
 844 -201 858 -209 860 -221 c 0
 864 -241 871 -236 874 -248 c 0
 881 -276 884 -258 888 -278 c 0
 892 -296 898 -289 902 -306 c 0
 906 -327 919 -316 919 -336 c 0
 919 -352 927 -348 930 -362 c 0
 934 -379 945 -382 945 -394 c 0
 945 -400 959 -409 959 -422 c 0
 959 -427 973 -438 973 -449 c 0
 973 -449 962 -450 948 -450 c 2
 923 -450 l 1
 915 -427 912 -437 909 -423 c 0
 905 -403 898 -410 895 -394 c 0
 891 -374 884 -383 881 -366 c 0
 878 -349 872 -354 866 -339 c 0
 860 -324 852 -324 852 -310 c 0
 852 -294 841 -293 839 -284 c 0
 835 -263 825 -265 825 -254 c 0
 825 -241 812 -241 810 -225 c 0
 808 -208 796 -208 798 -199 c 0
 800 -189 782 -180 782 -166 c 0
 782 -156 768 -154 768 -139 c 0
 768 -129 754 -125 754 -112 c 0xa60380
 754 -98 743 -105 740 -82 c 0
 738 -68 716 -61 723 -44 c 0
 724 -41 725 -37 725 -36 c 0
 725 -30 712 -27 712 -10 c 0
 712 -2 698 1 698 17 c 0
 698 22 696 25 686 34 c 1
 685 65 670 52 670 73 c 0
 670 86 656 84 656 101 c 0xa60d80
 656 107 654 109 643 119 c 1
 641 135 641 136 629 147 c 1
 627 164 628 164 620 171 c 0
 616 175 614 179 614 186 c 0xa61180
 614 198 600 196 600 213 c 0xa62180
 600 226 586 225 586 242 c 0
 586 254 575 252 571 266 c 0
 567 281 556 277 558 293 c 0
 560 312 540 312 545 322 c 0
 549 330 530 340 530 351 c 0
 530 356 529 358 527 358 c 0
 519 358 533 352 514 338 c 0
 511 336 507 330 508 316 c 1
 495 303 493 303 494 294 c 0
 496 280 486 284 481 267 c 0
 476 251 466 255 466 241 c 0
 466 233 465 232 452 220 c 1
 452 215 l 2
 452 205 450 203 438 192 c 1
 438 187 l 2
 438 168 424 171 424 158 c 0
 424 141 410 142 410 130 c 0
 410 111 398 120 395 98 c 2
 394 91 l 1
 383 81 382 79 382 73 c 0
 382 56 364 53 367 39 c 0
 369 31 356 33 354 15 c 0
 352 -6 342 7 340 -13 c 0
 337 -38 321 -19 330 -50 c 1
 320 -76 314 -68 312 -81 c 0
 309 -103 300 -95 298 -109 c 0
 295 -132 283 -124 283 -139 c 0
 283 -152 271 -154 270 -163 c 0
 266 -189 261 -176 256 -192 c 0
 255 -195 254 -198 254 -199 c 0
 255 -209 241 -209 241 -225 c 0
 241 -239 231 -230 226 -255 c 0
 223 -272 218 -255 212 -284 c 0
 209 -299 201 -288 199 -311 c 2
 198 -320 l 1
 175 -344 190 -340 179 -349 c 0
 172 -354 172 -358 169 -373 c 1
 143 -400 166 -391 151 -406 c 0
 146 -411 143 -416 143 -421 c 0xaec180
 143 -433 129 -436 129 -447 c 2
 129 -450 l 1
 80 -450 l 1
 80 -448 l 2xb60180
 80 -435 94 -427 94 -421 c 0
 94 -407 105 -406 108 -390 c 0
 112 -373 118 -380 123 -360 c 0
 124 -355 128 -351 134 -343 c 1
 134 -338 135 -332 135 -327 c 1
 164 -297 141 -311 157 -291 c 0
 166 -280 161 -275 171 -263 c 0
 181 -250 175 -247 185 -235 c 0
 197 -221 189 -219 198 -209 c 0
 206 -200 208 -196 207 -194 c 0
 203 -186 217 -182 221 -163 c 0
 224 -150 231 -154 235 -135 c 0
 238 -122 245 -125 249 -107 c 0
 251 -97 260 -91 261 -86 c 0
 267 -60 276 -67 273 -53 c 0
 269 -35 292 -46 290 -19 c 0
 288 7 304 3 304 16 c 0
 304 31 322 39 319 45 c 0
 315 53 330 64 331 68 c 0
 334 82 335 82 340 88 c 0
 353 103 340 102 354 117 c 2
 360 123 l 1
 362 138 361 138 368 145 c 0
 380 158 371 161 381 171 c 0
 393 182 385 191 395 200 c 0
 407 210 397 218 409 229 c 0
 414 233 416 238 416 242 c 0xae0180
EndSplineSet
EndChar

StartChar: x
Encoding: 120 120 49
Width: 1067
VWidth: 834
Flags: W
HStem: -450 61<324.339 409.89 658.299 723> -450 47<337.726 465.084> -450 21<457.386 609.613> -435 74<729.125 764> 296 60<731.25 785.214> 338 46<676.422 706.813> 366 61<407.096 624.682>
VStem: 81 61<-165.017 -48.5091 -47.2601 40.8614> 123 74<149.554 200.487> 137 74<154.623 204.952> 869 46<-277.324 -261.462> 885 60<100.187 177.491> 897 60<-214.353 -157.326 95.4125 157.826> 911 46<-195.55 -117.391> 925 62<-104.833 94.4757>
LayerCount: 2
Fore
SplineSet
635 352 m 2x0410
 611 352 610 352 597 366 c 1
 535 366 l 1
 472 366 l 1x0210
 468 364 466 362 463 359 c 0
 458 353 456 352 436 352 c 0
 415 352 413 352 407 345 c 0
 402 339 401 338 386 338 c 0
 373 338 373 338 360 326 c 1
 354 325 348 325 342 324 c 1
 318 287 302 301 295 287 c 0
 292 282 289 279 279 271 c 0
 272 265 214 208 212 205 c 0
 211 204 211 201 211 198 c 0x0450
 211 180 197 186 197 170 c 0x0480
 197 161 196 161 183 149 c 1
 183 143 l 2
 183 122 171 135 169 112 c 2
 168 105 l 1
 154 92 155 92 156 81 c 0
 156 81 160 49 149 45 c 0
 142 42 142 42 142 2 c 0
 142 -30 143 -32 146 -48 c 1
 143 -59 142 -61 142 -78 c 0
 142 -100 143 -101 149 -108 c 0
 168 -129 145 -145 163 -164 c 0
 173 -175 170 -181 175 -189 c 0
 176 -191 177 -193 177 -194 c 0
 177 -198 182 -195 184 -206 c 0
 188 -229 195 -218 198 -234 c 0
 203 -258 209 -244 213 -264 c 2
 215 -271 l 1
 236 -293 l 2
 280 -337 276 -323 284 -339 c 0
 285 -341 293 -357 309 -360 c 0
 330 -363 336 -388 350 -388 c 0
 367 -388 364 -405 386 -403 c 0x45
 397 -402 402 -404 409 -410 c 0
 428 -428 446 -406 463 -423 c 0
 466 -426 469 -428 470 -429 c 0
 473 -430 595 -430 597 -429 c 0x21
 600 -427 605 -420 611 -418 c 0
 632 -412 644 -425 659 -410 c 0
 678 -390 685 -415 700 -397 c 0
 705 -391 709 -389 717 -389 c 2
 723 -389 l 1x81
 731 -381 l 2
 736 -376 741 -370 743 -368 c 0
 747 -363 750 -361 758 -361 c 2
 764 -361 l 1
 773 -354 l 2
 788 -341 785 -334 801 -323 c 0
 804 -321 853 -275 854 -268 c 0
 858 -244 869 -251 869 -239 c 0x1120
 869 -224 881 -220 882 -215 c 0
 885 -201 885 -200 888 -197 c 0
 892 -193 897 -187 897 -184 c 0x1008
 897 -168 909 -164 911 -157 c 0x1004
 915 -144 905 -120 919 -109 c 0
 926 -103 926 -101 925 -74 c 0x1002
 923 3 930 40 923 43 c 0
 899 54 924 87 906 100 c 0
 901 104 899 107 899 114 c 0
 899 130 885 125 885 142 c 0
 885 160 873 149 871 170 c 0
 868 193 859 174 856 201 c 2
 855 207 l 1
 847 215 842 220 842 221 c 0
 842 223 832 229 829 234 c 0
 794 268 l 0
 774 280 773 296 760 296 c 0x1810
 753 296 749 298 745 302 c 0
 739 309 728 317 728 321 c 0
 728 324 726 324 707 326 c 1
 703 330 700 334 696 338 c 1
 684 338 l 2
 667 338 667 338 654 352 c 1
 635 352 l 2x0410
137 185 m 0x8040
 137 202 151 198 151 213 c 0
 151 227 187 254 193 264 c 0
 201 278 203 273 234 303 c 0
 261 329 l 0
 261 329 280 355 293 355 c 0
 300 355 304 360 312 368 c 1
 329 370 329 370 340 382 c 1
 346 383 352 384 358 385 c 1
 361 389 365 392 368 396 c 1
 385 398 387 399 392 405 c 0
 407 422 435 404 447 419 c 0
 453 427 454 427 536 427 c 2
 609 427 l 1x8240
 625 420 618 417 625 414 c 0
 635 409 665 420 676 405 c 0
 685 392 694 405 704 391 c 0
 708 385 711 384 718 384 c 0x0440
 736 384 727 370 747 370 c 0
 765 370 756 356 774 356 c 0
 782 356 785 355 789 349 c 0
 794 343 852 285 853 285 c 0
 876 272 876 259 878 259 c 0
 878 259 886 252 896 242 c 0
 915 223 915 223 917 206 c 1
 929 195 929 195 931 178 c 1
 942 167 945 165 945 153 c 0x0850
 945 141 960 152 958 121 c 0
 957 100 967 104 971 95 c 0
 976 84 964 61 979 45 c 0
 986 38 986 37 987 -47 c 0x0802
 987 -63 985 -102 984 -105 c 0
 982 -109 975 -114 973 -117 c 0
 969 -125 978 -155 964 -167 c 0
 958 -172 957 -173 957 -185 c 0x0808
 956 -204 957 -204 950 -210 c 0
 935 -225 951 -224 936 -238 c 0
 930 -244 930 -243 927 -261 c 1
 916 -271 915 -272 915 -278 c 0
 915 -294 895 -304 886 -318 c 0
 883 -322 877 -328 867 -335 c 0
 866 -336 781 -420 779 -421 c 0
 778 -422 774 -422 771 -422 c 2
 765 -422 l 1
 754 -434 753 -435 744 -435 c 0x1820
 728 -435 728 -448 728 -448 c 2
 728 -450 l 1x2020
 341 -450 l 1
 326 -421 325 -444 307 -427 c 0
 296 -417 287 -423 281 -415 c 0
 276 -409 206 -339 201 -335 c 0
 183 -321 183 -317 166 -299 c 0
 142 -275 161 -282 146 -266 c 0
 134 -254 144 -249 132 -238 c 0
 117 -223 133 -227 116 -208 c 0
 106 -197 115 -200 111 -195 c 0
 106 -188 117 -181 104 -167 c 0
 84 -146 107 -126 88 -110 c 0
 79 -102 80 -78 81 -5 c 0x8120
 82 38 81 38 86 41 c 0
 105 52 85 85 102 101 c 0
 119 117 100 130 116 143 c 0
 121 147 123 151 123 157 c 0x8080
 123 173 137 170 137 185 c 0x8040
EndSplineSet
EndChar

StartChar: y
Encoding: 121 121 50
Width: 1097
VWidth: 863
Flags: W
HStem: -450 21G<94 171 925 1004> -450 21G<94 171 925 1004>
VStem: 94 77<-450 -422.647>
LayerCount: 2
Fore
SplineSet
104 436 m 0xa0
 114 449 120 442 126 434 c 0
 132 426 219 341 219 339 c 0
 219 336 273 292 282 279 c 0
 291 265 505 55 505 52 c 0
 505 52 522 37 526 33 c 0
 549 11 548 11 571 33 c 0
 575 37 592 52 592 52 c 0
 592 55 805 265 814 278 c 0
 827 296 827 290 856 318 c 0
 862 324 878 338 878 338 c 0
 879 340 975 439 982 440 c 0
 989 441 988 442 1006 423 c 0
 1021 408 1020 403 1007 391 c 0
 995 380 955 339 951 337 c 0
 950 337 916 297 905 288 c 0
 904 287 662 49 662 48 c 0
 661 44 598 -15 596 -23 c 0
 594 -29 596 -33 601 -38 c 0
 602 -39 597 -38 682 -123 c 0
 718 -159 748 -190 748 -191 c 0
 748 -193 879 -318 880 -319 c 0
 885 -323 889 -326 893 -332 c 0
 899 -340 975 -417 990 -430 c 0
 1002 -440 1003 -443 1004 -450 c 1
 927 -450 l 1
 923 -439 824 -341 799 -322 c 0
 798 -321 793 -311 731 -250 c 0
 684 -203 676 -192 675 -192 c 0
 673 -191 646 -165 614 -133 c 0
 550 -70 552 -70 544 -74 c 0
 542 -75 418 -196 418 -196 c 0
 417 -199 316 -298 310 -307 c 0
 305 -314 300 -319 291 -326 c 0
 282 -333 182 -434 179 -436 c 0
 176 -438 171 -445 171 -448 c 2
 171 -450 l 1
 94 -450 l 1
 96 -443 96 -440 103 -434 c 0
 104 -433 209 -332 209 -326 c 0
 209 -326 208 -330 284 -254 c 0
 347 -191 348 -192 348 -191 c 0
 349 -188 480 -60 488 -49 c 0
 491 -45 494 -41 495 -40 c 0
 499 -37 503 -30 503 -27 c 0
 503 -15 436 42 435 48 c 0
 435 49 176 303 176 303 c 0
 168 314 150 332 150 334 c 0
 150 334 138 343 117 364 c 0
 103 378 90 391 87 393 c 0
 74 403 81 411 92 422 c 0
 97 427 102 433 104 436 c 0xa0
EndSplineSet
EndChar

StartChar: z
Encoding: 122 122 51
Width: 1065
VWidth: 839
Flags: W
HStem: -450 21G<80 132 933.5 985> -450 21G<80 132 933.5 985> 405 20G<512.5 513> 405 20G<512.5 513>
VStem: 80 51<-450 -411.808> 168 86<-267 -195> 692 46<10.6088 86.3041> 812 46<-196 -153.268> 935 50<-450 -399.168>
LayerCount: 2
Fore
SplineSet
549 334 m 0xaf80
 549 335 533 356 532 356 c 0
 517 333 l 0
 517 333 503 288 494 280 c 0
 485 271 486 263 479 253 c 0
 469 239 471 233 465 224 c 0
 455 211 456 202 450 195 c 0
 386 67 l 0
 380 50 376 52 375 48 c 0
 371 27 345 -6 344 -18 c 0
 342 -36 330 -45 318 -70 c 0
 280 -151 254 -194 254 -195 c 0
 254 -199 204 -298 203 -302 c 0
 202 -310 199 -318 197 -320 c 0
 186 -330 145 -421 139 -429 c 0x4f80
 133 -438 133 -438 131 -450 c 1
 80 -450 l 1
 83 -421 89 -432 97 -410 c 0
 100 -402 136 -332 136 -328 c 0
 136 -317 147 -314 154 -294 c 0
 157 -286 164 -279 168 -267 c 0
 168 -266 200 -199 205 -195 c 0
 210 -191 208 -182 216 -170 c 0
 218 -166 274 -57 279 -42 c 0
 284 -24 291 -28 296 -11 c 0
 298 -5 323 43 323 45 c 0
 323 47 329 50 328 52 c 0
 328 53 428 254 429 256 c 0
 442 275 433 279 443 291 c 0
 449 298 470 337 470 338 c 0
 470 339 512 425 513 425 c 0
 513 425 547 447 558 414 c 0
 560 410 583 366 585 361 c 0
 588 353 596 340 595 338 c 0
 593 334 627 293 629 277 c 0
 630 269 738 55 738 53 c 0
 738 52 768 -6 769 -8 c 0
 776 -28 788 -32 788 -43 c 0
 788 -52 853 -172 858 -192 c 0
 858 -194 859 -195 860 -195 c 0
 867 -195 866 -210 877 -224 c 0
 884 -233 880 -237 891 -252 c 0
 897 -260 897 -271 904 -280 c 0
 914 -293 909 -297 921 -310 c 0
 928 -318 938 -355 947 -366 c 0
 955 -375 952 -383 962 -395 c 0
 970 -404 966 -412 977 -425 c 0
 983 -432 984 -439 985 -450 c 1
 935 -450 l 1
 932 -421 927 -438 920 -415 c 0
 915 -399 874 -324 870 -319 c 0
 858 -304 872 -308 854 -283 c 0
 849 -276 851 -269 841 -256 c 0
 841 -255 812 -196 812 -196 c 0
 812 -193 734 -40 728 -34 c 0
 717 -21 727 -18 714 -1 c 0
 714 -1 692 40 692 47 c 0
 692 53 685 50 679 68 c 0
 673 87 586 249 578 272 c 0
 574 283 567 281 563 301 c 0
 562 304 549 325 549 334 c 0xaf80
EndSplineSet
EndChar

